<mxfile host="app.diagrams.net" modified="2024-05-21T21:53:50.560Z" agent="Mozilla/5.0 (Windows NT 10.0; Win64; x64) AppleWebKit/537.36 (KHTML, like Gecko) Chrome/124.0.0.0 Safari/537.36" etag="Ekc5wVGmCd8PcPLbJzn5" version="24.3.1" type="device" pages="2">
  <diagram id="3HYpg9L5Uhzjahf96DRQ" name="extended UML 1">
    <mxGraphModel dx="1195" dy="643" grid="1" gridSize="10" guides="1" tooltips="1" connect="1" arrows="1" fold="1" page="1" pageScale="1" pageWidth="3300" pageHeight="4681" math="0" shadow="0">
      <root>
        <mxCell id="0" />
        <mxCell id="1" parent="0" />
        <mxCell id="5k5pkW4J8FM4mPkAsPTh-1" value="&amp;nbsp;fin 0..2" style="endArrow=0;html=1;endSize=12;startArrow=diamondThin;startSize=14;startFill=1;align=left;verticalAlign=bottom;rounded=0;exitX=1;exitY=0.5;exitDx=0;exitDy=0;edgeStyle=orthogonalEdgeStyle;entryX=0.5;entryY=0;entryDx=0;entryDy=0;" parent="1" source="5k5pkW4J8FM4mPkAsPTh-14" target="5k5pkW4J8FM4mPkAsPTh-17" edge="1">
          <mxGeometry x="0.8582" relative="1" as="geometry">
            <mxPoint x="540.0000000000002" y="765" as="sourcePoint" />
            <mxPoint x="694.9999999999998" y="822" as="targetPoint" />
            <mxPoint as="offset" />
          </mxGeometry>
        </mxCell>
        <mxCell id="5k5pkW4J8FM4mPkAsPTh-2" value="MeansOfTransportation" style="swimlane;fontStyle=0;childLayout=stackLayout;horizontal=1;startSize=26;fillColor=none;horizontalStack=0;resizeParent=1;resizeParentMax=0;resizeLast=0;collapsible=1;marginBottom=0;whiteSpace=wrap;html=1;" parent="1" vertex="1">
          <mxGeometry x="180" y="630" width="150" height="256" as="geometry">
            <mxRectangle x="60" y="112" width="90" height="30" as="alternateBounds" />
          </mxGeometry>
        </mxCell>
        <mxCell id="5k5pkW4J8FM4mPkAsPTh-3" value="&lt;div style=&quot;text-align: center;&quot;&gt;&lt;span style=&quot;background-color: initial;&quot;&gt;&amp;nbsp; &amp;nbsp; &amp;nbsp; &amp;nbsp; &amp;nbsp;&amp;lt;&amp;lt;inputs&amp;gt;&amp;gt;&lt;/span&gt;&lt;/div&gt;Inp 1&lt;br&gt;Inp 2&lt;br&gt;..." style="text;strokeColor=none;fillColor=none;align=left;verticalAlign=top;spacingLeft=4;spacingRight=4;overflow=hidden;rotatable=0;points=[[0,0.5],[1,0.5]];portConstraint=eastwest;whiteSpace=wrap;html=1;collapsible=1;marginBottom=0;" parent="5k5pkW4J8FM4mPkAsPTh-2" vertex="1" collapsed="1">
          <mxGeometry y="26" width="150" height="74" as="geometry">
            <mxRectangle y="26" width="150" height="20" as="alternateBounds" />
          </mxGeometry>
        </mxCell>
        <mxCell id="5k5pkW4J8FM4mPkAsPTh-4" value="" style="line;strokeWidth=1;fillColor=none;align=left;verticalAlign=middle;spacingTop=-1;spacingLeft=3;spacingRight=3;rotatable=0;labelPosition=right;points=[];portConstraint=eastwest;strokeColor=inherit;" parent="5k5pkW4J8FM4mPkAsPTh-2" vertex="1">
          <mxGeometry y="100" width="150" as="geometry" />
        </mxCell>
        <mxCell id="5k5pkW4J8FM4mPkAsPTh-5" value="" style="line;strokeWidth=1;fillColor=none;align=left;verticalAlign=middle;spacingTop=-1;spacingLeft=3;spacingRight=3;rotatable=0;labelPosition=right;points=[];portConstraint=eastwest;strokeColor=inherit;" parent="5k5pkW4J8FM4mPkAsPTh-2" vertex="1">
          <mxGeometry y="100" width="150" height="8" as="geometry" />
        </mxCell>
        <mxCell id="5k5pkW4J8FM4mPkAsPTh-6" value="&lt;div style=&quot;border-color: var(--border-color); text-align: center;&quot;&gt;&amp;nbsp; &amp;nbsp; &amp;nbsp; &amp;nbsp; &amp;lt;&amp;lt;@inputs&amp;gt;&amp;gt;&lt;/div&gt;Inp 1&lt;br style=&quot;border-color: var(--border-color);&quot;&gt;Inp 2&lt;br style=&quot;border-color: var(--border-color);&quot;&gt;..." style="text;strokeColor=none;fillColor=none;align=left;verticalAlign=top;spacingLeft=4;spacingRight=4;overflow=hidden;rotatable=0;points=[[0,0.5],[1,0.5]];portConstraint=eastwest;whiteSpace=wrap;html=1;collapsible=1;marginBottom=0" parent="5k5pkW4J8FM4mPkAsPTh-2" vertex="1" collapsed="1">
          <mxGeometry y="108" width="150" height="70" as="geometry">
            <mxRectangle y="108" width="150" height="21" as="alternateBounds" />
          </mxGeometry>
        </mxCell>
        <mxCell id="5k5pkW4J8FM4mPkAsPTh-7" value="" style="line;strokeWidth=1;fillColor=none;align=left;verticalAlign=middle;spacingTop=-1;spacingLeft=3;spacingRight=3;rotatable=0;labelPosition=right;points=[];portConstraint=eastwest;strokeColor=inherit;" parent="5k5pkW4J8FM4mPkAsPTh-2" vertex="1">
          <mxGeometry y="178" width="150" height="8" as="geometry" />
        </mxCell>
        <mxCell id="5k5pkW4J8FM4mPkAsPTh-8" value="&lt;div style=&quot;border-color: var(--border-color); text-align: center;&quot;&gt;&amp;nbsp; &amp;nbsp; &amp;nbsp; &amp;lt;&amp;lt;@attributes&amp;gt;&amp;gt;&lt;/div&gt;attr 1&lt;br style=&quot;border-color: var(--border-color);&quot;&gt;attr 2&lt;br style=&quot;border-color: var(--border-color);&quot;&gt;..." style="text;strokeColor=none;fillColor=none;align=left;verticalAlign=top;spacingLeft=4;spacingRight=4;overflow=hidden;rotatable=0;points=[[0,0.5],[1,0.5]];portConstraint=eastwest;whiteSpace=wrap;html=1;collapsible=1;marginBottom=0" parent="5k5pkW4J8FM4mPkAsPTh-2" vertex="1" collapsed="1">
          <mxGeometry y="186" width="150" height="70" as="geometry">
            <mxRectangle y="186" width="150" height="21" as="alternateBounds" />
          </mxGeometry>
        </mxCell>
        <mxCell id="5k5pkW4J8FM4mPkAsPTh-9" value="" style="endArrow=block;dashed=0;endFill=0;endSize=12;html=1;rounded=0;exitX=0.5;exitY=0;exitDx=0;exitDy=0;entryX=1.003;entryY=0.041;entryDx=0;entryDy=0;edgeStyle=orthogonalEdgeStyle;entryPerimeter=0;" parent="1" source="5k5pkW4J8FM4mPkAsPTh-10" target="5k5pkW4J8FM4mPkAsPTh-3" edge="1">
          <mxGeometry width="160" relative="1" as="geometry">
            <mxPoint x="465" y="702" as="sourcePoint" />
            <mxPoint x="280" y="982" as="targetPoint" />
          </mxGeometry>
        </mxCell>
        <mxCell id="5k5pkW4J8FM4mPkAsPTh-10" value="Aircraft" style="swimlane;fontStyle=0;childLayout=stackLayout;horizontal=1;startSize=26;fillColor=none;horizontalStack=0;resizeParent=1;resizeParentMax=0;resizeLast=0;collapsible=1;marginBottom=0;whiteSpace=wrap;html=1;" parent="1" vertex="1">
          <mxGeometry x="370" y="692" width="150" height="104" as="geometry">
            <mxRectangle x="60" y="112" width="90" height="30" as="alternateBounds" />
          </mxGeometry>
        </mxCell>
        <mxCell id="5k5pkW4J8FM4mPkAsPTh-11" value="&lt;div style=&quot;text-align: center;&quot;&gt;&lt;span style=&quot;background-color: initial;&quot;&gt;&amp;nbsp; &amp;nbsp; &amp;nbsp; &amp;nbsp; &amp;nbsp;&amp;lt;&amp;lt;inputs&amp;gt;&amp;gt;&lt;/span&gt;&lt;/div&gt;Inp 1&lt;br&gt;Inp 2&lt;br&gt;..." style="text;strokeColor=none;fillColor=none;align=left;verticalAlign=top;spacingLeft=4;spacingRight=4;overflow=hidden;rotatable=0;points=[[0,0.5],[1,0.5]];portConstraint=eastwest;whiteSpace=wrap;html=1;collapsible=1;marginBottom=0;" parent="5k5pkW4J8FM4mPkAsPTh-10" vertex="1">
          <mxGeometry y="26" width="150" height="20" as="geometry">
            <mxRectangle y="26" width="150" height="74" as="alternateBounds" />
          </mxGeometry>
        </mxCell>
        <mxCell id="5k5pkW4J8FM4mPkAsPTh-12" value="" style="line;strokeWidth=1;fillColor=none;align=left;verticalAlign=middle;spacingTop=-1;spacingLeft=3;spacingRight=3;rotatable=0;labelPosition=right;points=[];portConstraint=eastwest;strokeColor=inherit;" parent="5k5pkW4J8FM4mPkAsPTh-10" vertex="1">
          <mxGeometry y="46" width="150" as="geometry" />
        </mxCell>
        <mxCell id="5k5pkW4J8FM4mPkAsPTh-13" value="" style="line;strokeWidth=1;fillColor=none;align=left;verticalAlign=middle;spacingTop=-1;spacingLeft=3;spacingRight=3;rotatable=0;labelPosition=right;points=[];portConstraint=eastwest;strokeColor=inherit;" parent="5k5pkW4J8FM4mPkAsPTh-10" vertex="1">
          <mxGeometry y="46" width="150" height="8" as="geometry" />
        </mxCell>
        <mxCell id="5k5pkW4J8FM4mPkAsPTh-14" value="&lt;div style=&quot;border-color: var(--border-color); text-align: center;&quot;&gt;&amp;nbsp; &amp;nbsp; &amp;nbsp; &amp;nbsp; &amp;lt;&amp;lt;@inputs&amp;gt;&amp;gt;&lt;/div&gt;Inp 1&lt;br style=&quot;border-color: var(--border-color);&quot;&gt;Inp 2&lt;br style=&quot;border-color: var(--border-color);&quot;&gt;..." style="text;strokeColor=none;fillColor=none;align=left;verticalAlign=top;spacingLeft=4;spacingRight=4;overflow=hidden;rotatable=0;points=[[0,0.5],[1,0.5]];portConstraint=eastwest;whiteSpace=wrap;html=1;collapsible=1;marginBottom=0" parent="5k5pkW4J8FM4mPkAsPTh-10" vertex="1">
          <mxGeometry y="54" width="150" height="21" as="geometry">
            <mxRectangle y="108" width="150" height="70" as="alternateBounds" />
          </mxGeometry>
        </mxCell>
        <mxCell id="5k5pkW4J8FM4mPkAsPTh-15" value="" style="line;strokeWidth=1;fillColor=none;align=left;verticalAlign=middle;spacingTop=-1;spacingLeft=3;spacingRight=3;rotatable=0;labelPosition=right;points=[];portConstraint=eastwest;strokeColor=inherit;" parent="5k5pkW4J8FM4mPkAsPTh-10" vertex="1">
          <mxGeometry y="75" width="150" height="8" as="geometry" />
        </mxCell>
        <mxCell id="5k5pkW4J8FM4mPkAsPTh-16" value="&lt;div style=&quot;border-color: var(--border-color); text-align: center;&quot;&gt;&amp;nbsp; &amp;nbsp; &amp;nbsp; &amp;lt;&amp;lt;@attributes&amp;gt;&amp;gt;&lt;/div&gt;attr 1&lt;br style=&quot;border-color: var(--border-color);&quot;&gt;attr 2&lt;br style=&quot;border-color: var(--border-color);&quot;&gt;..." style="text;strokeColor=none;fillColor=none;align=left;verticalAlign=top;spacingLeft=4;spacingRight=4;overflow=hidden;rotatable=0;points=[[0,0.5],[1,0.5]];portConstraint=eastwest;whiteSpace=wrap;html=1;collapsible=1;marginBottom=0" parent="5k5pkW4J8FM4mPkAsPTh-10" vertex="1">
          <mxGeometry y="83" width="150" height="21" as="geometry">
            <mxRectangle y="83" width="150" height="70" as="alternateBounds" />
          </mxGeometry>
        </mxCell>
        <mxCell id="5k5pkW4J8FM4mPkAsPTh-17" value="LiftingSurface" style="swimlane;fontStyle=0;childLayout=stackLayout;horizontal=1;startSize=26;fillColor=none;horizontalStack=0;resizeParent=1;resizeParentMax=0;resizeLast=0;collapsible=1;marginBottom=0;whiteSpace=wrap;html=1;" parent="1" vertex="1">
          <mxGeometry x="550" y="782" width="150" height="104" as="geometry">
            <mxRectangle x="60" y="112" width="90" height="30" as="alternateBounds" />
          </mxGeometry>
        </mxCell>
        <mxCell id="5k5pkW4J8FM4mPkAsPTh-18" value="&lt;div style=&quot;text-align: center;&quot;&gt;&lt;span style=&quot;background-color: initial;&quot;&gt;&amp;nbsp; &amp;nbsp; &amp;nbsp; &amp;nbsp; &amp;nbsp;&amp;lt;&amp;lt;inputs&amp;gt;&amp;gt;&lt;/span&gt;&lt;/div&gt;Inp 1&lt;br&gt;Inp 2&lt;br&gt;..." style="text;strokeColor=none;fillColor=none;align=left;verticalAlign=top;spacingLeft=4;spacingRight=4;overflow=hidden;rotatable=0;points=[[0,0.5],[1,0.5]];portConstraint=eastwest;whiteSpace=wrap;html=1;collapsible=1;marginBottom=0;" parent="5k5pkW4J8FM4mPkAsPTh-17" vertex="1">
          <mxGeometry y="26" width="150" height="20" as="geometry">
            <mxRectangle y="26" width="150" height="74" as="alternateBounds" />
          </mxGeometry>
        </mxCell>
        <mxCell id="5k5pkW4J8FM4mPkAsPTh-19" value="" style="line;strokeWidth=1;fillColor=none;align=left;verticalAlign=middle;spacingTop=-1;spacingLeft=3;spacingRight=3;rotatable=0;labelPosition=right;points=[];portConstraint=eastwest;strokeColor=inherit;" parent="5k5pkW4J8FM4mPkAsPTh-17" vertex="1">
          <mxGeometry y="46" width="150" as="geometry" />
        </mxCell>
        <mxCell id="5k5pkW4J8FM4mPkAsPTh-20" value="" style="line;strokeWidth=1;fillColor=none;align=left;verticalAlign=middle;spacingTop=-1;spacingLeft=3;spacingRight=3;rotatable=0;labelPosition=right;points=[];portConstraint=eastwest;strokeColor=inherit;" parent="5k5pkW4J8FM4mPkAsPTh-17" vertex="1">
          <mxGeometry y="46" width="150" height="8" as="geometry" />
        </mxCell>
        <mxCell id="5k5pkW4J8FM4mPkAsPTh-21" value="&lt;div style=&quot;border-color: var(--border-color); text-align: center;&quot;&gt;&amp;nbsp; &amp;nbsp; &amp;nbsp; &amp;nbsp; &amp;lt;&amp;lt;@inputs&amp;gt;&amp;gt;&lt;/div&gt;Inp 1&lt;br style=&quot;border-color: var(--border-color);&quot;&gt;Inp 2&lt;br style=&quot;border-color: var(--border-color);&quot;&gt;..." style="text;strokeColor=none;fillColor=none;align=left;verticalAlign=top;spacingLeft=4;spacingRight=4;overflow=hidden;rotatable=0;points=[[0,0.5],[1,0.5]];portConstraint=eastwest;whiteSpace=wrap;html=1;collapsible=1;marginBottom=0" parent="5k5pkW4J8FM4mPkAsPTh-17" vertex="1">
          <mxGeometry y="54" width="150" height="21" as="geometry">
            <mxRectangle y="54" width="150" height="70" as="alternateBounds" />
          </mxGeometry>
        </mxCell>
        <mxCell id="5k5pkW4J8FM4mPkAsPTh-22" value="" style="line;strokeWidth=1;fillColor=none;align=left;verticalAlign=middle;spacingTop=-1;spacingLeft=3;spacingRight=3;rotatable=0;labelPosition=right;points=[];portConstraint=eastwest;strokeColor=inherit;" parent="5k5pkW4J8FM4mPkAsPTh-17" vertex="1">
          <mxGeometry y="75" width="150" height="8" as="geometry" />
        </mxCell>
        <mxCell id="5k5pkW4J8FM4mPkAsPTh-23" value="&lt;div style=&quot;border-color: var(--border-color); text-align: center;&quot;&gt;&amp;nbsp; &amp;nbsp; &amp;nbsp; &amp;lt;&amp;lt;@attributes&amp;gt;&amp;gt;&lt;/div&gt;attr 1&lt;br style=&quot;border-color: var(--border-color);&quot;&gt;attr 2&lt;br style=&quot;border-color: var(--border-color);&quot;&gt;..." style="text;strokeColor=none;fillColor=none;align=left;verticalAlign=top;spacingLeft=4;spacingRight=4;overflow=hidden;rotatable=0;points=[[0,0.5],[1,0.5]];portConstraint=eastwest;whiteSpace=wrap;html=1;collapsible=1;marginBottom=0" parent="5k5pkW4J8FM4mPkAsPTh-17" vertex="1">
          <mxGeometry y="83" width="150" height="21" as="geometry">
            <mxRectangle y="83" width="150" height="70" as="alternateBounds" />
          </mxGeometry>
        </mxCell>
        <mxCell id="5k5pkW4J8FM4mPkAsPTh-24" value="&amp;nbsp;fuselage 1" style="endArrow=0;html=1;endSize=12;startArrow=diamondThin;startSize=14;startFill=1;align=left;verticalAlign=bottom;rounded=0;exitX=1.007;exitY=0.247;exitDx=0;exitDy=0;edgeStyle=orthogonalEdgeStyle;exitPerimeter=0;entryX=0.542;entryY=0.964;entryDx=0;entryDy=0;entryPerimeter=0;" parent="1" source="5k5pkW4J8FM4mPkAsPTh-11" target="5k5pkW4J8FM4mPkAsPTh-31" edge="1">
          <mxGeometry x="-0.3825" y="11" relative="1" as="geometry">
            <mxPoint x="530" y="462" as="sourcePoint" />
            <mxPoint x="640" y="702" as="targetPoint" />
            <mxPoint as="offset" />
            <Array as="points">
              <mxPoint x="535" y="723" />
              <mxPoint x="631" y="722" />
            </Array>
          </mxGeometry>
        </mxCell>
        <mxCell id="5k5pkW4J8FM4mPkAsPTh-25" value="Cylinder" style="swimlane;fontStyle=0;childLayout=stackLayout;horizontal=1;startSize=26;fillColor=none;horizontalStack=0;resizeParent=1;resizeParentMax=0;resizeLast=0;collapsible=1;marginBottom=0;whiteSpace=wrap;html=1;" parent="1" vertex="1" collapsed="1">
          <mxGeometry x="610" y="630" width="90" height="30" as="geometry">
            <mxRectangle x="500" y="126" width="150" height="104" as="alternateBounds" />
          </mxGeometry>
        </mxCell>
        <mxCell id="5k5pkW4J8FM4mPkAsPTh-26" value="&lt;div style=&quot;text-align: center;&quot;&gt;&lt;span style=&quot;background-color: initial;&quot;&gt;&amp;nbsp; &amp;nbsp; &amp;nbsp; &amp;nbsp; &amp;nbsp;&amp;lt;&amp;lt;inputs&amp;gt;&amp;gt;&lt;/span&gt;&lt;/div&gt;Inp 1&lt;br&gt;Inp 2&lt;br&gt;..." style="text;strokeColor=none;fillColor=none;align=left;verticalAlign=top;spacingLeft=4;spacingRight=4;overflow=hidden;rotatable=0;points=[[0,0.5],[1,0.5]];portConstraint=eastwest;whiteSpace=wrap;html=1;collapsible=1;marginBottom=0;" parent="5k5pkW4J8FM4mPkAsPTh-25" vertex="1">
          <mxGeometry y="26" width="150" height="20" as="geometry">
            <mxRectangle y="26" width="150" height="74" as="alternateBounds" />
          </mxGeometry>
        </mxCell>
        <mxCell id="5k5pkW4J8FM4mPkAsPTh-27" value="" style="line;strokeWidth=1;fillColor=none;align=left;verticalAlign=middle;spacingTop=-1;spacingLeft=3;spacingRight=3;rotatable=0;labelPosition=right;points=[];portConstraint=eastwest;strokeColor=inherit;" parent="5k5pkW4J8FM4mPkAsPTh-25" vertex="1">
          <mxGeometry y="46" width="150" as="geometry" />
        </mxCell>
        <mxCell id="5k5pkW4J8FM4mPkAsPTh-28" value="" style="line;strokeWidth=1;fillColor=none;align=left;verticalAlign=middle;spacingTop=-1;spacingLeft=3;spacingRight=3;rotatable=0;labelPosition=right;points=[];portConstraint=eastwest;strokeColor=inherit;" parent="5k5pkW4J8FM4mPkAsPTh-25" vertex="1">
          <mxGeometry y="46" width="150" height="8" as="geometry" />
        </mxCell>
        <mxCell id="5k5pkW4J8FM4mPkAsPTh-29" value="&lt;div style=&quot;border-color: var(--border-color); text-align: center;&quot;&gt;&amp;nbsp; &amp;nbsp; &amp;nbsp; &amp;nbsp; &amp;lt;&amp;lt;@inputs&amp;gt;&amp;gt;&lt;/div&gt;Inp 1&lt;br style=&quot;border-color: var(--border-color);&quot;&gt;Inp 2&lt;br style=&quot;border-color: var(--border-color);&quot;&gt;..." style="text;strokeColor=none;fillColor=none;align=left;verticalAlign=top;spacingLeft=4;spacingRight=4;overflow=hidden;rotatable=0;points=[[0,0.5],[1,0.5]];portConstraint=eastwest;whiteSpace=wrap;html=1;collapsible=1;marginBottom=0" parent="5k5pkW4J8FM4mPkAsPTh-25" vertex="1">
          <mxGeometry y="54" width="150" height="21" as="geometry">
            <mxRectangle y="54" width="150" height="70" as="alternateBounds" />
          </mxGeometry>
        </mxCell>
        <mxCell id="5k5pkW4J8FM4mPkAsPTh-30" value="" style="line;strokeWidth=1;fillColor=none;align=left;verticalAlign=middle;spacingTop=-1;spacingLeft=3;spacingRight=3;rotatable=0;labelPosition=right;points=[];portConstraint=eastwest;strokeColor=inherit;" parent="5k5pkW4J8FM4mPkAsPTh-25" vertex="1">
          <mxGeometry y="75" width="150" height="8" as="geometry" />
        </mxCell>
        <mxCell id="5k5pkW4J8FM4mPkAsPTh-31" value="&lt;div style=&quot;border-color: var(--border-color); text-align: center;&quot;&gt;&amp;nbsp; &amp;nbsp; &amp;nbsp; &amp;lt;&amp;lt;@attributes&amp;gt;&amp;gt;&lt;/div&gt;attr 1&lt;br style=&quot;border-color: var(--border-color);&quot;&gt;attr 2&lt;br style=&quot;border-color: var(--border-color);&quot;&gt;..." style="text;strokeColor=none;fillColor=none;align=left;verticalAlign=top;spacingLeft=4;spacingRight=4;overflow=hidden;rotatable=0;points=[[0,0.5],[1,0.5]];portConstraint=eastwest;whiteSpace=wrap;html=1;collapsible=1;marginBottom=0" parent="5k5pkW4J8FM4mPkAsPTh-25" vertex="1">
          <mxGeometry y="83" width="150" height="21" as="geometry">
            <mxRectangle y="83" width="150" height="70" as="alternateBounds" />
          </mxGeometry>
        </mxCell>
        <mxCell id="5k5pkW4J8FM4mPkAsPTh-32" value="&amp;nbsp;main_wing 0..*" style="endArrow=0;html=1;endSize=12;startArrow=diamondThin;startSize=14;startFill=1;align=left;verticalAlign=bottom;rounded=0;edgeStyle=orthogonalEdgeStyle;entryX=0;entryY=0.5;entryDx=0;entryDy=0;exitX=0.51;exitY=1.003;exitDx=0;exitDy=0;exitPerimeter=0;" parent="1" source="5k5pkW4J8FM4mPkAsPTh-16" target="5k5pkW4J8FM4mPkAsPTh-21" edge="1">
          <mxGeometry x="-0.1693" y="5" relative="1" as="geometry">
            <mxPoint x="420" y="847.97" as="sourcePoint" />
            <mxPoint x="530" y="815.97" as="targetPoint" />
            <mxPoint y="1" as="offset" />
          </mxGeometry>
        </mxCell>
        <mxCell id="5k5pkW4J8FM4mPkAsPTh-43" value="&amp;nbsp;stabilizer 0, 1" style="endArrow=0;html=1;endSize=12;startArrow=diamondThin;startSize=14;startFill=1;align=left;verticalAlign=bottom;rounded=0;edgeStyle=orthogonalEdgeStyle;entryX=0;entryY=0.5;entryDx=0;entryDy=0;exitX=0.254;exitY=1.048;exitDx=0;exitDy=0;exitPerimeter=0;" parent="1" source="5k5pkW4J8FM4mPkAsPTh-16" target="5k5pkW4J8FM4mPkAsPTh-23" edge="1">
          <mxGeometry x="0.1822" y="1" relative="1" as="geometry">
            <mxPoint x="457" y="806" as="sourcePoint" />
            <mxPoint x="560" y="857" as="targetPoint" />
            <mxPoint as="offset" />
            <Array as="points">
              <mxPoint x="408" y="876" />
              <mxPoint x="550" y="876" />
            </Array>
          </mxGeometry>
        </mxCell>
        <mxCell id="O1_cMSCevO41RhUx0xKx-2" value="Aircraft" style="swimlane;fontStyle=0;childLayout=stackLayout;horizontal=1;startSize=26;fillColor=none;horizontalStack=0;resizeParent=1;resizeParentMax=0;resizeLast=0;collapsible=1;marginBottom=0;whiteSpace=wrap;html=1;" parent="1" vertex="1">
          <mxGeometry x="170" y="260" width="150" height="180" as="geometry">
            <mxRectangle x="60" y="112" width="90" height="30" as="alternateBounds" />
          </mxGeometry>
        </mxCell>
        <mxCell id="O1_cMSCevO41RhUx0xKx-3" value="&lt;div style=&quot;text-align: center;&quot;&gt;&lt;span style=&quot;background-color: initial;&quot;&gt;&amp;nbsp; &amp;nbsp; &amp;nbsp; &amp;nbsp; &amp;nbsp;&amp;lt;&amp;lt;inputs&amp;gt;&amp;gt;&lt;/span&gt;&lt;/div&gt;Var 1&lt;br&gt;Var 2= value" style="text;strokeColor=none;fillColor=none;align=left;verticalAlign=top;spacingLeft=4;spacingRight=4;overflow=hidden;rotatable=0;points=[[0,0.5],[1,0.5]];portConstraint=eastwest;whiteSpace=wrap;html=1;collapsible=1;marginBottom=0;" parent="O1_cMSCevO41RhUx0xKx-2" vertex="1" collapsed="1">
          <mxGeometry y="26" width="150" height="54" as="geometry">
            <mxRectangle y="26" width="150" height="20" as="alternateBounds" />
          </mxGeometry>
        </mxCell>
        <mxCell id="O1_cMSCevO41RhUx0xKx-4" value="" style="line;strokeWidth=1;fillColor=none;align=left;verticalAlign=middle;spacingTop=-1;spacingLeft=3;spacingRight=3;rotatable=0;labelPosition=right;points=[];portConstraint=eastwest;strokeColor=inherit;" parent="O1_cMSCevO41RhUx0xKx-2" vertex="1">
          <mxGeometry y="80" width="150" as="geometry" />
        </mxCell>
        <mxCell id="O1_cMSCevO41RhUx0xKx-5" value="" style="line;strokeWidth=1;fillColor=none;align=left;verticalAlign=middle;spacingTop=-1;spacingLeft=3;spacingRight=3;rotatable=0;labelPosition=right;points=[];portConstraint=eastwest;strokeColor=inherit;" parent="O1_cMSCevO41RhUx0xKx-2" vertex="1">
          <mxGeometry y="80" width="150" height="8" as="geometry" />
        </mxCell>
        <mxCell id="O1_cMSCevO41RhUx0xKx-6" value="&lt;div style=&quot;border-color: var(--border-color);&quot;&gt;&amp;nbsp; &amp;nbsp; &amp;nbsp; &amp;nbsp; &amp;lt;&amp;lt;@inputs&amp;gt;&amp;gt;&lt;br&gt;&lt;span style=&quot;background-color: initial;&quot;&gt;de_inp_slot&lt;/span&gt;&lt;/div&gt;" style="text;strokeColor=none;fillColor=none;align=left;verticalAlign=top;spacingLeft=4;spacingRight=4;overflow=hidden;rotatable=0;points=[[0,0.5],[1,0.5]];portConstraint=eastwest;whiteSpace=wrap;html=1;collapsible=1;marginBottom=0" parent="O1_cMSCevO41RhUx0xKx-2" vertex="1" collapsed="1">
          <mxGeometry y="88" width="150" height="42" as="geometry">
            <mxRectangle y="88" width="150" height="21" as="alternateBounds" />
          </mxGeometry>
        </mxCell>
        <mxCell id="O1_cMSCevO41RhUx0xKx-7" value="" style="line;strokeWidth=1;fillColor=none;align=left;verticalAlign=middle;spacingTop=-1;spacingLeft=3;spacingRight=3;rotatable=0;labelPosition=right;points=[];portConstraint=eastwest;strokeColor=inherit;" parent="O1_cMSCevO41RhUx0xKx-2" vertex="1">
          <mxGeometry y="130" width="150" height="8" as="geometry" />
        </mxCell>
        <mxCell id="O1_cMSCevO41RhUx0xKx-8" value="&lt;div style=&quot;border-color: var(--border-color); text-align: center;&quot;&gt;&amp;nbsp; &amp;nbsp; &amp;nbsp; &amp;lt;&amp;lt;@attributes&amp;gt;&amp;gt;&lt;/div&gt;attr_slot&lt;br style=&quot;border-color: var(--border-color);&quot;&gt;" style="text;strokeColor=none;fillColor=none;align=left;verticalAlign=top;spacingLeft=4;spacingRight=4;overflow=hidden;rotatable=0;points=[[0,0.5],[1,0.5]];portConstraint=eastwest;whiteSpace=wrap;html=1;collapsible=1;marginBottom=0" parent="O1_cMSCevO41RhUx0xKx-2" vertex="1" collapsed="1">
          <mxGeometry y="138" width="150" height="42" as="geometry">
            <mxRectangle y="138" width="150" height="21" as="alternateBounds" />
          </mxGeometry>
        </mxCell>
        <mxCell id="O1_cMSCevO41RhUx0xKx-9" value="Wing" style="swimlane;fontStyle=0;childLayout=stackLayout;horizontal=1;startSize=26;fillColor=none;horizontalStack=0;resizeParent=1;resizeParentMax=0;resizeLast=0;collapsible=1;marginBottom=0;whiteSpace=wrap;html=1;" parent="1" vertex="1">
          <mxGeometry x="370" y="260" width="150" height="170" as="geometry">
            <mxRectangle x="60" y="112" width="90" height="30" as="alternateBounds" />
          </mxGeometry>
        </mxCell>
        <mxCell id="O1_cMSCevO41RhUx0xKx-10" value="&lt;div style=&quot;text-align: center;&quot;&gt;&lt;span style=&quot;background-color: initial;&quot;&gt;&amp;nbsp; &amp;nbsp; &amp;nbsp; &amp;nbsp; &amp;nbsp;&amp;lt;&amp;lt;inputs&amp;gt;&amp;gt;&lt;/span&gt;&lt;/div&gt;span = 15" style="text;strokeColor=none;fillColor=none;align=left;verticalAlign=top;spacingLeft=4;spacingRight=4;overflow=hidden;rotatable=0;points=[[0,0.5],[1,0.5]];portConstraint=eastwest;whiteSpace=wrap;html=1;collapsible=1;marginBottom=0;" parent="O1_cMSCevO41RhUx0xKx-9" vertex="1" collapsed="1">
          <mxGeometry y="26" width="150" height="44" as="geometry">
            <mxRectangle y="26" width="150" height="20" as="alternateBounds" />
          </mxGeometry>
        </mxCell>
        <mxCell id="O1_cMSCevO41RhUx0xKx-11" value="" style="line;strokeWidth=1;fillColor=none;align=left;verticalAlign=middle;spacingTop=-1;spacingLeft=3;spacingRight=3;rotatable=0;labelPosition=right;points=[];portConstraint=eastwest;strokeColor=inherit;" parent="O1_cMSCevO41RhUx0xKx-9" vertex="1">
          <mxGeometry y="70" width="150" as="geometry" />
        </mxCell>
        <mxCell id="O1_cMSCevO41RhUx0xKx-12" value="" style="line;strokeWidth=1;fillColor=none;align=left;verticalAlign=middle;spacingTop=-1;spacingLeft=3;spacingRight=3;rotatable=0;labelPosition=right;points=[];portConstraint=eastwest;strokeColor=inherit;" parent="O1_cMSCevO41RhUx0xKx-9" vertex="1">
          <mxGeometry y="70" width="150" height="8" as="geometry" />
        </mxCell>
        <mxCell id="O1_cMSCevO41RhUx0xKx-13" value="&lt;div style=&quot;border-color: var(--border-color); text-align: center;&quot;&gt;&amp;nbsp; &amp;nbsp; &amp;nbsp; &amp;nbsp; &amp;lt;&amp;lt;@inputs&amp;gt;&amp;gt;&lt;/div&gt;der_inp" style="text;strokeColor=none;fillColor=none;align=left;verticalAlign=top;spacingLeft=4;spacingRight=4;overflow=hidden;rotatable=0;points=[[0,0.5],[1,0.5]];portConstraint=eastwest;whiteSpace=wrap;html=1;collapsible=1;marginBottom=0" parent="O1_cMSCevO41RhUx0xKx-9" vertex="1" collapsed="1">
          <mxGeometry y="78" width="150" height="42" as="geometry">
            <mxRectangle y="78" width="150" height="21" as="alternateBounds" />
          </mxGeometry>
        </mxCell>
        <mxCell id="O1_cMSCevO41RhUx0xKx-14" value="" style="line;strokeWidth=1;fillColor=none;align=left;verticalAlign=middle;spacingTop=-1;spacingLeft=3;spacingRight=3;rotatable=0;labelPosition=right;points=[];portConstraint=eastwest;strokeColor=inherit;" parent="O1_cMSCevO41RhUx0xKx-9" vertex="1">
          <mxGeometry y="120" width="150" height="8" as="geometry" />
        </mxCell>
        <mxCell id="O1_cMSCevO41RhUx0xKx-15" value="&lt;div style=&quot;border-color: var(--border-color); text-align: center;&quot;&gt;&amp;nbsp; &amp;nbsp; &amp;nbsp; &amp;lt;&amp;lt;@attributes&amp;gt;&amp;gt;&lt;/div&gt;attr_slot&lt;br style=&quot;border-color: var(--border-color);&quot;&gt;" style="text;strokeColor=none;fillColor=none;align=left;verticalAlign=top;spacingLeft=4;spacingRight=4;overflow=hidden;rotatable=0;points=[[0,0.5],[1,0.5]];portConstraint=eastwest;whiteSpace=wrap;html=1;collapsible=1;marginBottom=0" parent="O1_cMSCevO41RhUx0xKx-9" vertex="1" collapsed="1">
          <mxGeometry y="128" width="150" height="42" as="geometry">
            <mxRectangle y="128" width="150" height="21" as="alternateBounds" />
          </mxGeometry>
        </mxCell>
        <mxCell id="O1_cMSCevO41RhUx0xKx-16" value="&amp;nbsp;main_wing 1" style="endArrow=0;html=1;endSize=12;startArrow=diamondThin;startSize=14;startFill=1;align=left;verticalAlign=bottom;rounded=0;edgeStyle=orthogonalEdgeStyle;entryX=0.44;entryY=0.981;entryDx=0;entryDy=0;exitX=0.51;exitY=1.003;exitDx=0;exitDy=0;exitPerimeter=0;entryPerimeter=0;" parent="1" source="O1_cMSCevO41RhUx0xKx-8" target="O1_cMSCevO41RhUx0xKx-15" edge="1">
          <mxGeometry x="0.0253" relative="1" as="geometry">
            <mxPoint x="220" y="415.97" as="sourcePoint" />
            <mxPoint x="330" y="383.97" as="targetPoint" />
            <mxPoint as="offset" />
            <Array as="points">
              <mxPoint x="247" y="470" />
              <mxPoint x="436" y="470" />
            </Array>
          </mxGeometry>
        </mxCell>
        <mxCell id="UL23-9vkligj57LhXtBg-1" value="Movable" style="swimlane;fontStyle=0;childLayout=stackLayout;horizontal=1;startSize=26;fillColor=none;horizontalStack=0;resizeParent=1;resizeParentMax=0;resizeLast=0;collapsible=1;marginBottom=0;whiteSpace=wrap;html=1;" parent="1" vertex="1" collapsed="1">
          <mxGeometry x="560" y="400" width="90" height="30" as="geometry">
            <mxRectangle x="560" y="400" width="150" height="256" as="alternateBounds" />
          </mxGeometry>
        </mxCell>
        <mxCell id="UL23-9vkligj57LhXtBg-2" value="&lt;div style=&quot;text-align: center;&quot;&gt;&lt;span style=&quot;background-color: initial;&quot;&gt;&amp;nbsp; &amp;nbsp; &amp;nbsp; &amp;nbsp; &amp;nbsp;&amp;lt;&amp;lt;inputs&amp;gt;&amp;gt;&lt;/span&gt;&lt;/div&gt;Inp 1&lt;br&gt;Inp 2&lt;br&gt;..." style="text;strokeColor=none;fillColor=none;align=left;verticalAlign=top;spacingLeft=4;spacingRight=4;overflow=hidden;rotatable=0;points=[[0,0.5],[1,0.5]];portConstraint=eastwest;whiteSpace=wrap;html=1;collapsible=1;marginBottom=0;" parent="UL23-9vkligj57LhXtBg-1" vertex="1" collapsed="1">
          <mxGeometry y="26" width="150" height="74" as="geometry">
            <mxRectangle y="26" width="150" height="20" as="alternateBounds" />
          </mxGeometry>
        </mxCell>
        <mxCell id="UL23-9vkligj57LhXtBg-3" value="" style="line;strokeWidth=1;fillColor=none;align=left;verticalAlign=middle;spacingTop=-1;spacingLeft=3;spacingRight=3;rotatable=0;labelPosition=right;points=[];portConstraint=eastwest;strokeColor=inherit;" parent="UL23-9vkligj57LhXtBg-1" vertex="1">
          <mxGeometry y="100" width="150" as="geometry" />
        </mxCell>
        <mxCell id="UL23-9vkligj57LhXtBg-4" value="" style="line;strokeWidth=1;fillColor=none;align=left;verticalAlign=middle;spacingTop=-1;spacingLeft=3;spacingRight=3;rotatable=0;labelPosition=right;points=[];portConstraint=eastwest;strokeColor=inherit;" parent="UL23-9vkligj57LhXtBg-1" vertex="1">
          <mxGeometry y="100" width="150" height="8" as="geometry" />
        </mxCell>
        <mxCell id="UL23-9vkligj57LhXtBg-5" value="&lt;div style=&quot;border-color: var(--border-color); text-align: center;&quot;&gt;&amp;nbsp; &amp;nbsp; &amp;nbsp; &amp;nbsp; &amp;lt;&amp;lt;@inputs&amp;gt;&amp;gt;&lt;/div&gt;Inp 1&lt;br style=&quot;border-color: var(--border-color);&quot;&gt;Inp 2&lt;br style=&quot;border-color: var(--border-color);&quot;&gt;..." style="text;strokeColor=none;fillColor=none;align=left;verticalAlign=top;spacingLeft=4;spacingRight=4;overflow=hidden;rotatable=0;points=[[0,0.5],[1,0.5]];portConstraint=eastwest;whiteSpace=wrap;html=1;collapsible=1;marginBottom=0" parent="UL23-9vkligj57LhXtBg-1" vertex="1" collapsed="1">
          <mxGeometry y="108" width="150" height="70" as="geometry">
            <mxRectangle y="108" width="150" height="21" as="alternateBounds" />
          </mxGeometry>
        </mxCell>
        <mxCell id="UL23-9vkligj57LhXtBg-6" value="" style="line;strokeWidth=1;fillColor=none;align=left;verticalAlign=middle;spacingTop=-1;spacingLeft=3;spacingRight=3;rotatable=0;labelPosition=right;points=[];portConstraint=eastwest;strokeColor=inherit;" parent="UL23-9vkligj57LhXtBg-1" vertex="1">
          <mxGeometry y="178" width="150" height="8" as="geometry" />
        </mxCell>
        <mxCell id="UL23-9vkligj57LhXtBg-7" value="&lt;div style=&quot;border-color: var(--border-color); text-align: center;&quot;&gt;&amp;nbsp; &amp;nbsp; &amp;nbsp; &amp;lt;&amp;lt;@attributes&amp;gt;&amp;gt;&lt;/div&gt;attr 1&lt;br style=&quot;border-color: var(--border-color);&quot;&gt;attr 2&lt;br style=&quot;border-color: var(--border-color);&quot;&gt;..." style="text;strokeColor=none;fillColor=none;align=left;verticalAlign=top;spacingLeft=4;spacingRight=4;overflow=hidden;rotatable=0;points=[[0,0.5],[1,0.5]];portConstraint=eastwest;whiteSpace=wrap;html=1;collapsible=1;marginBottom=0" parent="UL23-9vkligj57LhXtBg-1" vertex="1" collapsed="1">
          <mxGeometry y="186" width="150" height="70" as="geometry">
            <mxRectangle y="186" width="150" height="21" as="alternateBounds" />
          </mxGeometry>
        </mxCell>
        <mxCell id="UL23-9vkligj57LhXtBg-9" value="aileron 1" style="endArrow=0;html=1;endSize=12;startArrow=diamondThin;startSize=14;startFill=1;align=left;verticalAlign=bottom;rounded=0;exitX=1.011;exitY=0.912;exitDx=0;exitDy=0;exitPerimeter=0;edgeStyle=orthogonalEdgeStyle;entryX=0.5;entryY=1;entryDx=0;entryDy=0;" parent="1" target="UL23-9vkligj57LhXtBg-1" edge="1">
          <mxGeometry x="-0.1016" y="10" relative="1" as="geometry">
            <mxPoint x="480.3499999999999" y="429.51199999999994" as="sourcePoint" />
            <mxPoint x="688.3499999999999" y="455.51199999999994" as="targetPoint" />
            <mxPoint as="offset" />
            <Array as="points">
              <mxPoint x="480" y="470" />
              <mxPoint x="625" y="470" />
            </Array>
          </mxGeometry>
        </mxCell>
      </root>
    </mxGraphModel>
  </diagram>
  <diagram id="J3KaGBskS6SWyFGhluMF" name="extended UML 2">
    <mxGraphModel dx="3240" dy="1287" grid="1" gridSize="10" guides="1" tooltips="1" connect="1" arrows="1" fold="1" page="1" pageScale="1" pageWidth="850" pageHeight="1100" math="0" shadow="0">
      <root>
        <mxCell id="0" />
        <mxCell id="1" parent="0" />
        <mxCell id="0QyFdaEDa3hHkOLkP6WQ-18" style="edgeStyle=orthogonalEdgeStyle;rounded=0;orthogonalLoop=1;jettySize=auto;html=1;exitX=0.5;exitY=0;exitDx=0;exitDy=0;entryX=0.75;entryY=0;entryDx=0;entryDy=0;endArrow=diamondThin;endFill=1;endSize=14;" edge="1" parent="1" source="m6qyqwOE9hwV-ypQYCnm-1" target="m6qyqwOE9hwV-ypQYCnm-8">
          <mxGeometry relative="1" as="geometry" />
        </mxCell>
        <mxCell id="0QyFdaEDa3hHkOLkP6WQ-19" value="wiring_configuration" style="edgeLabel;html=1;align=center;verticalAlign=middle;resizable=0;points=[];" vertex="1" connectable="0" parent="0QyFdaEDa3hHkOLkP6WQ-18">
          <mxGeometry x="0.059" y="-3" relative="1" as="geometry">
            <mxPoint as="offset" />
          </mxGeometry>
        </mxCell>
        <mxCell id="m6qyqwOE9hwV-ypQYCnm-1" value="EWIS" style="swimlane;fontStyle=0;childLayout=stackLayout;horizontal=1;startSize=26;fillColor=none;horizontalStack=0;resizeParent=1;resizeParentMax=0;resizeLast=0;collapsible=1;marginBottom=0;whiteSpace=wrap;html=1;" parent="1" vertex="1">
          <mxGeometry x="810" y="250" width="230" height="197" as="geometry">
            <mxRectangle x="340" y="40" width="90" height="30" as="alternateBounds" />
          </mxGeometry>
        </mxCell>
        <mxCell id="m6qyqwOE9hwV-ypQYCnm-2" value="&lt;div style=&quot;text-align: center;&quot;&gt;&lt;span style=&quot;background-color: initial;&quot;&gt;&amp;nbsp; &amp;nbsp; &amp;nbsp; &amp;nbsp; &amp;nbsp;&amp;lt;&amp;lt;inputs&amp;gt;&amp;gt;&lt;/span&gt;&lt;/div&gt;&lt;div&gt;configuration = Input()&lt;/div&gt;&lt;div&gt;&lt;br&gt;&lt;/div&gt;&lt;div&gt;front_spar_root_pos = Input()&lt;/div&gt;&lt;div&gt;aft_spar_root_pos = Input()&lt;/div&gt;&lt;div&gt;front_spar_tip_pos = Input()&lt;/div&gt;&lt;div&gt;aft_spar_tip_pos = Input()&lt;/div&gt;" style="text;strokeColor=none;fillColor=none;align=left;verticalAlign=top;spacingLeft=4;spacingRight=4;overflow=hidden;rotatable=0;points=[[0,0.5],[1,0.5]];portConstraint=eastwest;whiteSpace=wrap;html=1;collapsible=1;marginBottom=0;" parent="m6qyqwOE9hwV-ypQYCnm-1" vertex="1" collapsed="1">
          <mxGeometry y="26" width="230" height="114" as="geometry">
            <mxRectangle y="26" width="150" height="20" as="alternateBounds" />
          </mxGeometry>
        </mxCell>
        <mxCell id="m6qyqwOE9hwV-ypQYCnm-3" value="" style="line;strokeWidth=1;fillColor=none;align=left;verticalAlign=middle;spacingTop=-1;spacingLeft=3;spacingRight=3;rotatable=0;labelPosition=right;points=[];portConstraint=eastwest;strokeColor=inherit;" parent="m6qyqwOE9hwV-ypQYCnm-1" vertex="1">
          <mxGeometry y="140" width="230" as="geometry" />
        </mxCell>
        <mxCell id="m6qyqwOE9hwV-ypQYCnm-4" value="" style="line;strokeWidth=1;fillColor=none;align=left;verticalAlign=middle;spacingTop=-1;spacingLeft=3;spacingRight=3;rotatable=0;labelPosition=right;points=[];portConstraint=eastwest;strokeColor=inherit;" parent="m6qyqwOE9hwV-ypQYCnm-1" vertex="1">
          <mxGeometry y="140" width="230" height="8" as="geometry" />
        </mxCell>
        <mxCell id="m6qyqwOE9hwV-ypQYCnm-5" value="&lt;div style=&quot;border-color: var(--border-color); text-align: center;&quot;&gt;&amp;nbsp; &amp;nbsp; &amp;nbsp; &amp;nbsp; &amp;lt;&amp;lt;@inputs&amp;gt;&amp;gt;&lt;/div&gt;Inp 1&lt;br style=&quot;border-color: var(--border-color);&quot;&gt;Inp 2&lt;br style=&quot;border-color: var(--border-color);&quot;&gt;..." style="text;strokeColor=none;fillColor=none;align=left;verticalAlign=top;spacingLeft=4;spacingRight=4;overflow=hidden;rotatable=0;points=[[0,0.5],[1,0.5]];portConstraint=eastwest;whiteSpace=wrap;html=1;collapsible=1;marginBottom=0" parent="m6qyqwOE9hwV-ypQYCnm-1" vertex="1">
          <mxGeometry y="148" width="230" height="21" as="geometry">
            <mxRectangle y="54" width="150" height="70" as="alternateBounds" />
          </mxGeometry>
        </mxCell>
        <mxCell id="m6qyqwOE9hwV-ypQYCnm-6" value="" style="line;strokeWidth=1;fillColor=none;align=left;verticalAlign=middle;spacingTop=-1;spacingLeft=3;spacingRight=3;rotatable=0;labelPosition=right;points=[];portConstraint=eastwest;strokeColor=inherit;" parent="m6qyqwOE9hwV-ypQYCnm-1" vertex="1">
          <mxGeometry y="169" width="230" height="8" as="geometry" />
        </mxCell>
        <mxCell id="m6qyqwOE9hwV-ypQYCnm-7" value="&lt;div style=&quot;border-color: var(--border-color); text-align: center;&quot;&gt;&amp;nbsp; &amp;nbsp; &amp;nbsp; &amp;lt;&amp;lt;@attributes&amp;gt;&amp;gt;&lt;/div&gt;attr 1&lt;br style=&quot;border-color: var(--border-color);&quot;&gt;attr 2&lt;br style=&quot;border-color: var(--border-color);&quot;&gt;..." style="text;strokeColor=none;fillColor=none;align=left;verticalAlign=top;spacingLeft=4;spacingRight=4;overflow=hidden;rotatable=0;points=[[0,0.5],[1,0.5]];portConstraint=eastwest;whiteSpace=wrap;html=1;collapsible=1;marginBottom=0" parent="m6qyqwOE9hwV-ypQYCnm-1" vertex="1">
          <mxGeometry y="177" width="230" height="20" as="geometry">
            <mxRectangle y="83" width="150" height="67" as="alternateBounds" />
          </mxGeometry>
        </mxCell>
        <mxCell id="m6qyqwOE9hwV-ypQYCnm-8" value="MainAssembly" style="swimlane;fontStyle=0;childLayout=stackLayout;horizontal=1;startSize=26;fillColor=none;horizontalStack=0;resizeParent=1;resizeParentMax=0;resizeLast=0;collapsible=1;marginBottom=0;whiteSpace=wrap;html=1;" parent="1" vertex="1">
          <mxGeometry x="50" y="110" width="150" height="153" as="geometry">
            <mxRectangle x="50" y="110" width="90" height="30" as="alternateBounds" />
          </mxGeometry>
        </mxCell>
        <mxCell id="m6qyqwOE9hwV-ypQYCnm-9" value="&lt;div style=&quot;text-align: center;&quot;&gt;&lt;span style=&quot;background-color: initial;&quot;&gt;&amp;lt;&amp;lt;inputs&amp;gt;&amp;gt;&lt;/span&gt;&lt;/div&gt;aircraft_config = Input(&quot;Wing Mounted&quot;)&lt;div&gt;wiring_config = Input(&quot;3 Channel Option&quot;)&lt;/div&gt;&lt;div&gt;&lt;br&gt;&lt;/div&gt;" style="text;strokeColor=none;fillColor=none;align=left;verticalAlign=top;spacingLeft=4;spacingRight=4;overflow=hidden;rotatable=0;points=[[0,0.5],[1,0.5]];portConstraint=eastwest;whiteSpace=wrap;html=1;collapsible=1;marginBottom=0;" parent="m6qyqwOE9hwV-ypQYCnm-8" vertex="1">
          <mxGeometry y="26" width="150" height="20" as="geometry">
            <mxRectangle y="26" width="150" height="74" as="alternateBounds" />
          </mxGeometry>
        </mxCell>
        <mxCell id="m6qyqwOE9hwV-ypQYCnm-10" value="" style="line;strokeWidth=1;fillColor=none;align=left;verticalAlign=middle;spacingTop=-1;spacingLeft=3;spacingRight=3;rotatable=0;labelPosition=right;points=[];portConstraint=eastwest;strokeColor=inherit;" parent="m6qyqwOE9hwV-ypQYCnm-8" vertex="1">
          <mxGeometry y="46" width="150" as="geometry" />
        </mxCell>
        <mxCell id="m6qyqwOE9hwV-ypQYCnm-11" value="" style="line;strokeWidth=1;fillColor=none;align=left;verticalAlign=middle;spacingTop=-1;spacingLeft=3;spacingRight=3;rotatable=0;labelPosition=right;points=[];portConstraint=eastwest;strokeColor=inherit;" parent="m6qyqwOE9hwV-ypQYCnm-8" vertex="1">
          <mxGeometry y="46" width="150" height="8" as="geometry" />
        </mxCell>
        <mxCell id="m6qyqwOE9hwV-ypQYCnm-12" value="&lt;div style=&quot;border-color: var(--border-color); text-align: center;&quot;&gt;&amp;nbsp; &amp;nbsp; &amp;nbsp; &amp;nbsp; &amp;lt;&amp;lt;@inputs&amp;gt;&amp;gt;&lt;/div&gt;Inp 1&lt;br style=&quot;border-color: var(--border-color);&quot;&gt;Inp 2&lt;br style=&quot;border-color: var(--border-color);&quot;&gt;..." style="text;strokeColor=none;fillColor=none;align=left;verticalAlign=top;spacingLeft=4;spacingRight=4;overflow=hidden;rotatable=0;points=[[0,0.5],[1,0.5]];portConstraint=eastwest;whiteSpace=wrap;html=1;collapsible=1;marginBottom=0" parent="m6qyqwOE9hwV-ypQYCnm-8" vertex="1">
          <mxGeometry y="54" width="150" height="21" as="geometry">
            <mxRectangle y="54" width="150" height="70" as="alternateBounds" />
          </mxGeometry>
        </mxCell>
        <mxCell id="m6qyqwOE9hwV-ypQYCnm-13" value="" style="line;strokeWidth=1;fillColor=none;align=left;verticalAlign=middle;spacingTop=-1;spacingLeft=3;spacingRight=3;rotatable=0;labelPosition=right;points=[];portConstraint=eastwest;strokeColor=inherit;" parent="m6qyqwOE9hwV-ypQYCnm-8" vertex="1">
          <mxGeometry y="75" width="150" height="8" as="geometry" />
        </mxCell>
        <mxCell id="m6qyqwOE9hwV-ypQYCnm-14" value="&lt;div style=&quot;border-color: var(--border-color); text-align: center;&quot;&gt;&amp;nbsp; &amp;nbsp; &amp;nbsp; &amp;lt;&amp;lt;@attributes&amp;gt;&amp;gt;&lt;/div&gt;channel_shapes" style="text;strokeColor=none;fillColor=none;align=left;verticalAlign=top;spacingLeft=4;spacingRight=4;overflow=hidden;rotatable=0;points=[[0,0.5],[1,0.5]];portConstraint=eastwest;whiteSpace=wrap;html=1;collapsible=1;marginBottom=0" parent="m6qyqwOE9hwV-ypQYCnm-8" vertex="1" collapsed="1">
          <mxGeometry y="83" width="150" height="70" as="geometry">
            <mxRectangle y="137" width="150" height="21" as="alternateBounds" />
          </mxGeometry>
        </mxCell>
        <mxCell id="ewiW1QCOFfd17-vzVea--57" value="WingMounted" style="swimlane;fontStyle=0;childLayout=stackLayout;horizontal=1;startSize=26;fillColor=none;horizontalStack=0;resizeParent=1;resizeParentMax=0;resizeLast=0;collapsible=1;marginBottom=0;whiteSpace=wrap;html=1;" parent="1" vertex="1">
          <mxGeometry x="200" y="340" width="210" height="157" as="geometry">
            <mxRectangle x="200" y="340" width="90" height="30" as="alternateBounds" />
          </mxGeometry>
        </mxCell>
        <mxCell id="ewiW1QCOFfd17-vzVea--58" value="&lt;div style=&quot;text-align: center;&quot;&gt;&lt;span style=&quot;background-color: initial;&quot;&gt;&amp;nbsp; &amp;nbsp; &amp;nbsp; &amp;nbsp; &amp;nbsp;&amp;lt;&amp;lt;inputs&amp;gt;&amp;gt;&lt;/span&gt;&lt;/div&gt;x_pos_engine_wing = Input(16.5)&lt;div&gt;y_pos_engine_wing = Input(5.)&lt;/div&gt;&lt;div&gt;z_pos_wing = Input(-2.15)&lt;/div&gt;&lt;div&gt;&lt;br&gt;&lt;/div&gt;" style="text;strokeColor=none;fillColor=none;align=left;verticalAlign=top;spacingLeft=4;spacingRight=4;overflow=hidden;rotatable=0;points=[[0,0.5],[1,0.5]];portConstraint=eastwest;whiteSpace=wrap;html=1;collapsible=1;marginBottom=0;" parent="ewiW1QCOFfd17-vzVea--57" vertex="1" collapsed="1">
          <mxGeometry y="26" width="210" height="74" as="geometry">
            <mxRectangle y="26" width="150" height="20" as="alternateBounds" />
          </mxGeometry>
        </mxCell>
        <mxCell id="ewiW1QCOFfd17-vzVea--59" value="" style="line;strokeWidth=1;fillColor=none;align=left;verticalAlign=middle;spacingTop=-1;spacingLeft=3;spacingRight=3;rotatable=0;labelPosition=right;points=[];portConstraint=eastwest;strokeColor=inherit;" parent="ewiW1QCOFfd17-vzVea--57" vertex="1">
          <mxGeometry y="100" width="210" as="geometry" />
        </mxCell>
        <mxCell id="ewiW1QCOFfd17-vzVea--60" value="" style="line;strokeWidth=1;fillColor=none;align=left;verticalAlign=middle;spacingTop=-1;spacingLeft=3;spacingRight=3;rotatable=0;labelPosition=right;points=[];portConstraint=eastwest;strokeColor=inherit;" parent="ewiW1QCOFfd17-vzVea--57" vertex="1">
          <mxGeometry y="100" width="210" height="8" as="geometry" />
        </mxCell>
        <mxCell id="ewiW1QCOFfd17-vzVea--61" value="&lt;div style=&quot;border-color: var(--border-color); text-align: center;&quot;&gt;&amp;nbsp; &amp;nbsp; &amp;nbsp; &amp;nbsp; &amp;lt;&amp;lt;@inputs&amp;gt;&amp;gt;&lt;/div&gt;Inp 1&lt;br style=&quot;border-color: var(--border-color);&quot;&gt;Inp 2&lt;br style=&quot;border-color: var(--border-color);&quot;&gt;..." style="text;strokeColor=none;fillColor=none;align=left;verticalAlign=top;spacingLeft=4;spacingRight=4;overflow=hidden;rotatable=0;points=[[0,0.5],[1,0.5]];portConstraint=eastwest;whiteSpace=wrap;html=1;collapsible=1;marginBottom=0" parent="ewiW1QCOFfd17-vzVea--57" vertex="1">
          <mxGeometry y="108" width="210" height="21" as="geometry">
            <mxRectangle y="54" width="150" height="70" as="alternateBounds" />
          </mxGeometry>
        </mxCell>
        <mxCell id="ewiW1QCOFfd17-vzVea--62" value="" style="line;strokeWidth=1;fillColor=none;align=left;verticalAlign=middle;spacingTop=-1;spacingLeft=3;spacingRight=3;rotatable=0;labelPosition=right;points=[];portConstraint=eastwest;strokeColor=inherit;" parent="ewiW1QCOFfd17-vzVea--57" vertex="1">
          <mxGeometry y="129" width="210" height="8" as="geometry" />
        </mxCell>
        <mxCell id="ewiW1QCOFfd17-vzVea--63" value="&lt;div style=&quot;border-color: var(--border-color); text-align: center;&quot;&gt;&amp;nbsp; &amp;nbsp; &amp;nbsp; &amp;lt;&amp;lt;@attributes&amp;gt;&amp;gt;&lt;/div&gt;" style="text;strokeColor=none;fillColor=none;align=left;verticalAlign=top;spacingLeft=4;spacingRight=4;overflow=hidden;rotatable=0;points=[[0,0.5],[1,0.5]];portConstraint=eastwest;whiteSpace=wrap;html=1;collapsible=1;marginBottom=0" parent="ewiW1QCOFfd17-vzVea--57" vertex="1">
          <mxGeometry y="137" width="210" height="20" as="geometry">
            <mxRectangle y="137" width="210" height="67" as="alternateBounds" />
          </mxGeometry>
        </mxCell>
        <mxCell id="ewiW1QCOFfd17-vzVea--66" value="configuration" style="endArrow=0;html=1;endSize=12;startArrow=diamondThin;startSize=14;startFill=1;align=left;verticalAlign=bottom;rounded=0;exitX=0.717;exitY=1.01;exitDx=0;exitDy=0;edgeStyle=orthogonalEdgeStyle;entryX=0.5;entryY=0;entryDx=0;entryDy=0;exitPerimeter=0;" parent="1" source="m6qyqwOE9hwV-ypQYCnm-14" target="ewiW1QCOFfd17-vzVea--57" edge="1">
          <mxGeometry x="-0.2069" relative="1" as="geometry">
            <mxPoint x="110" y="111.52999999999997" as="sourcePoint" />
            <mxPoint x="225" y="111.5" as="targetPoint" />
            <mxPoint as="offset" />
            <Array as="points">
              <mxPoint x="158" y="290" />
              <mxPoint x="305" y="290" />
            </Array>
          </mxGeometry>
        </mxCell>
        <mxCell id="ewiW1QCOFfd17-vzVea--69" value="FuselageMounted" style="swimlane;fontStyle=0;childLayout=stackLayout;horizontal=1;startSize=26;fillColor=none;horizontalStack=0;resizeParent=1;resizeParentMax=0;resizeLast=0;collapsible=1;marginBottom=0;whiteSpace=wrap;html=1;" parent="1" vertex="1">
          <mxGeometry x="-110" y="340.0000000000001" width="240" height="147" as="geometry">
            <mxRectangle x="-110" y="340.0000000000001" width="110" height="30" as="alternateBounds" />
          </mxGeometry>
        </mxCell>
        <mxCell id="ewiW1QCOFfd17-vzVea--70" value="&lt;div style=&quot;text-align: center;&quot;&gt;&lt;span style=&quot;background-color: initial;&quot;&gt;&amp;nbsp; &amp;nbsp; &amp;nbsp; &amp;nbsp; &amp;nbsp;&amp;lt;&amp;lt;inputs&amp;gt;&amp;gt;&lt;/span&gt;&lt;div style=&quot;text-align: left;&quot;&gt;&amp;nbsp; &amp;nbsp; y_pos_engine_fus = Input(3)&lt;/div&gt;&lt;div style=&quot;text-align: left;&quot;&gt;&amp;nbsp; &amp;nbsp; z_pos_engine_fus = Input(1.0)&lt;/div&gt;&lt;div style=&quot;text-align: left;&quot;&gt;&amp;nbsp; &amp;nbsp; x_pos_engine_fus = Input(32)&lt;/div&gt;&lt;/div&gt;" style="text;strokeColor=none;fillColor=none;align=left;verticalAlign=top;spacingLeft=4;spacingRight=4;overflow=hidden;rotatable=0;points=[[0,0.5],[1,0.5]];portConstraint=eastwest;whiteSpace=wrap;html=1;collapsible=1;marginBottom=0;" parent="ewiW1QCOFfd17-vzVea--69" vertex="1" collapsed="1">
          <mxGeometry y="26" width="240" height="64" as="geometry">
            <mxRectangle y="26" width="150" height="20" as="alternateBounds" />
          </mxGeometry>
        </mxCell>
        <mxCell id="ewiW1QCOFfd17-vzVea--71" value="" style="line;strokeWidth=1;fillColor=none;align=left;verticalAlign=middle;spacingTop=-1;spacingLeft=3;spacingRight=3;rotatable=0;labelPosition=right;points=[];portConstraint=eastwest;strokeColor=inherit;" parent="ewiW1QCOFfd17-vzVea--69" vertex="1">
          <mxGeometry y="90" width="240" as="geometry" />
        </mxCell>
        <mxCell id="ewiW1QCOFfd17-vzVea--72" value="" style="line;strokeWidth=1;fillColor=none;align=left;verticalAlign=middle;spacingTop=-1;spacingLeft=3;spacingRight=3;rotatable=0;labelPosition=right;points=[];portConstraint=eastwest;strokeColor=inherit;" parent="ewiW1QCOFfd17-vzVea--69" vertex="1">
          <mxGeometry y="90" width="240" height="8" as="geometry" />
        </mxCell>
        <mxCell id="ewiW1QCOFfd17-vzVea--73" value="&lt;div style=&quot;border-color: var(--border-color); text-align: center;&quot;&gt;&amp;nbsp; &amp;nbsp; &amp;nbsp; &amp;nbsp; &amp;lt;&amp;lt;@inputs&amp;gt;&amp;gt;&lt;/div&gt;Inp 1&lt;br style=&quot;border-color: var(--border-color);&quot;&gt;Inp 2&lt;br style=&quot;border-color: var(--border-color);&quot;&gt;..." style="text;strokeColor=none;fillColor=none;align=left;verticalAlign=top;spacingLeft=4;spacingRight=4;overflow=hidden;rotatable=0;points=[[0,0.5],[1,0.5]];portConstraint=eastwest;whiteSpace=wrap;html=1;collapsible=1;marginBottom=0" parent="ewiW1QCOFfd17-vzVea--69" vertex="1">
          <mxGeometry y="98" width="240" height="21" as="geometry">
            <mxRectangle y="54" width="150" height="70" as="alternateBounds" />
          </mxGeometry>
        </mxCell>
        <mxCell id="ewiW1QCOFfd17-vzVea--74" value="" style="line;strokeWidth=1;fillColor=none;align=left;verticalAlign=middle;spacingTop=-1;spacingLeft=3;spacingRight=3;rotatable=0;labelPosition=right;points=[];portConstraint=eastwest;strokeColor=inherit;" parent="ewiW1QCOFfd17-vzVea--69" vertex="1">
          <mxGeometry y="119" width="240" height="8" as="geometry" />
        </mxCell>
        <mxCell id="ewiW1QCOFfd17-vzVea--75" value="&lt;div style=&quot;border-color: var(--border-color); text-align: center;&quot;&gt;&amp;nbsp; &amp;nbsp; &amp;nbsp; &amp;lt;&amp;lt;@attributes&amp;gt;&amp;gt;&lt;/div&gt;attr 1&lt;br style=&quot;border-color: var(--border-color);&quot;&gt;attr 2&lt;br style=&quot;border-color: var(--border-color);&quot;&gt;..." style="text;strokeColor=none;fillColor=none;align=left;verticalAlign=top;spacingLeft=4;spacingRight=4;overflow=hidden;rotatable=0;points=[[0,0.5],[1,0.5]];portConstraint=eastwest;whiteSpace=wrap;html=1;collapsible=1;marginBottom=0" parent="ewiW1QCOFfd17-vzVea--69" vertex="1">
          <mxGeometry y="127" width="240" height="20" as="geometry">
            <mxRectangle y="83" width="150" height="67" as="alternateBounds" />
          </mxGeometry>
        </mxCell>
        <mxCell id="ewiW1QCOFfd17-vzVea--77" value="configuration" style="endArrow=0;html=1;endSize=12;startArrow=diamondThin;startSize=14;startFill=1;align=left;verticalAlign=bottom;rounded=0;edgeStyle=orthogonalEdgeStyle;entryX=0.5;entryY=0;entryDx=0;entryDy=0;" parent="1" source="m6qyqwOE9hwV-ypQYCnm-14" target="ewiW1QCOFfd17-vzVea--69" edge="1">
          <mxGeometry x="0.1819" relative="1" as="geometry">
            <mxPoint x="111.34999999999991" y="250.7099999999998" as="sourcePoint" />
            <mxPoint x="342.9999999999999" y="307.5319999999999" as="targetPoint" />
            <mxPoint as="offset" />
            <Array as="points">
              <mxPoint x="133" y="290" />
              <mxPoint x="15" y="290" />
              <mxPoint x="15" y="340" />
            </Array>
          </mxGeometry>
        </mxCell>
        <mxCell id="ewiW1QCOFfd17-vzVea--86" value="{OR}" style="endArrow=none;startArrow=none;endFill=0;startFill=0;endSize=8;html=1;verticalAlign=bottom;dashed=1;labelBackgroundColor=none;dashPattern=10 10;rounded=0;exitX=-0.008;exitY=0.061;exitDx=0;exitDy=0;exitPerimeter=0;entryX=1.007;entryY=0.076;entryDx=0;entryDy=0;entryPerimeter=0;" parent="1" source="ewiW1QCOFfd17-vzVea--57" target="ewiW1QCOFfd17-vzVea--69" edge="1">
          <mxGeometry x="0.2749" width="160" relative="1" as="geometry">
            <mxPoint x="330" y="452.97" as="sourcePoint" />
            <mxPoint x="490" y="452.97" as="targetPoint" />
            <mxPoint as="offset" />
          </mxGeometry>
        </mxCell>
        <mxCell id="rF59SrE7Lo2NKZl10hfA-1" value="Aircraft" style="swimlane;fontStyle=0;childLayout=stackLayout;horizontal=1;startSize=26;fillColor=none;horizontalStack=0;resizeParent=1;resizeParentMax=0;resizeLast=0;collapsible=1;marginBottom=0;whiteSpace=wrap;html=1;" vertex="1" parent="1">
          <mxGeometry x="650" y="1090" width="150" height="150" as="geometry">
            <mxRectangle x="60" y="112" width="90" height="30" as="alternateBounds" />
          </mxGeometry>
        </mxCell>
        <mxCell id="rF59SrE7Lo2NKZl10hfA-2" value="&lt;div style=&quot;text-align: center;&quot;&gt;&lt;span style=&quot;background-color: initial;&quot;&gt;&amp;nbsp; &amp;nbsp; &amp;nbsp; &amp;nbsp; &amp;nbsp;&amp;lt;&amp;lt;inputs&amp;gt;&amp;gt;&lt;/span&gt;&lt;/div&gt;span=Input(34)&lt;br&gt;sweep = Input(30)&lt;br&gt;..." style="text;strokeColor=none;fillColor=none;align=left;verticalAlign=top;spacingLeft=4;spacingRight=4;overflow=hidden;rotatable=0;points=[[0,0.5],[1,0.5]];portConstraint=eastwest;whiteSpace=wrap;html=1;collapsible=1;marginBottom=0;" vertex="1" parent="rF59SrE7Lo2NKZl10hfA-1">
          <mxGeometry y="26" width="150" height="20" as="geometry">
            <mxRectangle y="26" width="150" height="74" as="alternateBounds" />
          </mxGeometry>
        </mxCell>
        <mxCell id="rF59SrE7Lo2NKZl10hfA-3" value="" style="line;strokeWidth=1;fillColor=none;align=left;verticalAlign=middle;spacingTop=-1;spacingLeft=3;spacingRight=3;rotatable=0;labelPosition=right;points=[];portConstraint=eastwest;strokeColor=inherit;" vertex="1" parent="rF59SrE7Lo2NKZl10hfA-1">
          <mxGeometry y="46" width="150" as="geometry" />
        </mxCell>
        <mxCell id="rF59SrE7Lo2NKZl10hfA-4" value="" style="line;strokeWidth=1;fillColor=none;align=left;verticalAlign=middle;spacingTop=-1;spacingLeft=3;spacingRight=3;rotatable=0;labelPosition=right;points=[];portConstraint=eastwest;strokeColor=inherit;" vertex="1" parent="rF59SrE7Lo2NKZl10hfA-1">
          <mxGeometry y="46" width="150" height="8" as="geometry" />
        </mxCell>
        <mxCell id="rF59SrE7Lo2NKZl10hfA-5" value="&lt;div style=&quot;border-color: var(--border-color); text-align: center;&quot;&gt;&amp;nbsp; &amp;nbsp; &amp;nbsp; &amp;nbsp; &amp;lt;&amp;lt;@inputs&amp;gt;&amp;gt;&lt;/div&gt;Inp 1&lt;br style=&quot;border-color: var(--border-color);&quot;&gt;Inp 2&lt;br style=&quot;border-color: var(--border-color);&quot;&gt;..." style="text;strokeColor=none;fillColor=none;align=left;verticalAlign=top;spacingLeft=4;spacingRight=4;overflow=hidden;rotatable=0;points=[[0,0.5],[1,0.5]];portConstraint=eastwest;whiteSpace=wrap;html=1;collapsible=1;marginBottom=0" vertex="1" parent="rF59SrE7Lo2NKZl10hfA-1">
          <mxGeometry y="54" width="150" height="21" as="geometry">
            <mxRectangle y="54" width="150" height="70" as="alternateBounds" />
          </mxGeometry>
        </mxCell>
        <mxCell id="rF59SrE7Lo2NKZl10hfA-6" value="" style="line;strokeWidth=1;fillColor=none;align=left;verticalAlign=middle;spacingTop=-1;spacingLeft=3;spacingRight=3;rotatable=0;labelPosition=right;points=[];portConstraint=eastwest;strokeColor=inherit;" vertex="1" parent="rF59SrE7Lo2NKZl10hfA-1">
          <mxGeometry y="75" width="150" height="8" as="geometry" />
        </mxCell>
        <mxCell id="rF59SrE7Lo2NKZl10hfA-7" value="&lt;div style=&quot;border-color: var(--border-color);&quot;&gt;&amp;nbsp; &amp;nbsp; &amp;nbsp; &amp;lt;&amp;lt;@attributes&amp;gt;&amp;gt;&lt;br&gt;span&lt;br style=&quot;border-color: var(--border-color);&quot;&gt;&lt;span style=&quot;&quot;&gt;sweep&lt;/span&gt;&lt;br style=&quot;border-color: var(--border-color); text-align: left;&quot;&gt;&lt;span style=&quot;text-align: left;&quot;&gt;...&lt;/span&gt;&lt;/div&gt;" style="text;strokeColor=none;fillColor=none;align=left;verticalAlign=top;spacingLeft=4;spacingRight=4;overflow=hidden;rotatable=0;points=[[0,0.5],[1,0.5]];portConstraint=eastwest;whiteSpace=wrap;html=1;collapsible=1;marginBottom=0" vertex="1" collapsed="1" parent="rF59SrE7Lo2NKZl10hfA-1">
          <mxGeometry y="83" width="150" height="67" as="geometry">
            <mxRectangle y="137" width="150" height="20" as="alternateBounds" />
          </mxGeometry>
        </mxCell>
        <mxCell id="rF59SrE7Lo2NKZl10hfA-8" value="Wing" style="swimlane;fontStyle=0;childLayout=stackLayout;horizontal=1;startSize=26;fillColor=none;horizontalStack=0;resizeParent=1;resizeParentMax=0;resizeLast=0;collapsible=1;marginBottom=0;whiteSpace=wrap;html=1;" vertex="1" parent="1">
          <mxGeometry x="870" y="1130" width="150" height="157" as="geometry">
            <mxRectangle x="60" y="112" width="90" height="30" as="alternateBounds" />
          </mxGeometry>
        </mxCell>
        <mxCell id="rF59SrE7Lo2NKZl10hfA-9" value="&lt;div style=&quot;text-align: center;&quot;&gt;&lt;span style=&quot;background-color: initial;&quot;&gt;&amp;nbsp; &amp;nbsp; &amp;nbsp; &amp;nbsp; &amp;nbsp;&amp;lt;&amp;lt;inputs&amp;gt;&amp;gt;&lt;/span&gt;&lt;/div&gt;span=Input(34)&lt;br&gt;sweep = Input(30)&lt;br&gt;position = Input()" style="text;strokeColor=none;fillColor=none;align=left;verticalAlign=top;spacingLeft=4;spacingRight=4;overflow=hidden;rotatable=0;points=[[0,0.5],[1,0.5]];portConstraint=eastwest;whiteSpace=wrap;html=1;collapsible=1;marginBottom=0;" vertex="1" collapsed="1" parent="rF59SrE7Lo2NKZl10hfA-8">
          <mxGeometry y="26" width="150" height="74" as="geometry">
            <mxRectangle y="26" width="150" height="20" as="alternateBounds" />
          </mxGeometry>
        </mxCell>
        <mxCell id="rF59SrE7Lo2NKZl10hfA-10" value="" style="line;strokeWidth=1;fillColor=none;align=left;verticalAlign=middle;spacingTop=-1;spacingLeft=3;spacingRight=3;rotatable=0;labelPosition=right;points=[];portConstraint=eastwest;strokeColor=inherit;" vertex="1" parent="rF59SrE7Lo2NKZl10hfA-8">
          <mxGeometry y="100" width="150" as="geometry" />
        </mxCell>
        <mxCell id="rF59SrE7Lo2NKZl10hfA-11" value="" style="line;strokeWidth=1;fillColor=none;align=left;verticalAlign=middle;spacingTop=-1;spacingLeft=3;spacingRight=3;rotatable=0;labelPosition=right;points=[];portConstraint=eastwest;strokeColor=inherit;" vertex="1" parent="rF59SrE7Lo2NKZl10hfA-8">
          <mxGeometry y="100" width="150" height="8" as="geometry" />
        </mxCell>
        <mxCell id="rF59SrE7Lo2NKZl10hfA-12" value="&lt;div style=&quot;border-color: var(--border-color); text-align: center;&quot;&gt;&amp;nbsp; &amp;nbsp; &amp;nbsp; &amp;nbsp; &amp;lt;&amp;lt;@inputs&amp;gt;&amp;gt;&lt;/div&gt;Inp 1&lt;br style=&quot;border-color: var(--border-color);&quot;&gt;Inp 2&lt;br style=&quot;border-color: var(--border-color);&quot;&gt;..." style="text;strokeColor=none;fillColor=none;align=left;verticalAlign=top;spacingLeft=4;spacingRight=4;overflow=hidden;rotatable=0;points=[[0,0.5],[1,0.5]];portConstraint=eastwest;whiteSpace=wrap;html=1;collapsible=1;marginBottom=0" vertex="1" parent="rF59SrE7Lo2NKZl10hfA-8">
          <mxGeometry y="108" width="150" height="21" as="geometry">
            <mxRectangle y="54" width="150" height="70" as="alternateBounds" />
          </mxGeometry>
        </mxCell>
        <mxCell id="rF59SrE7Lo2NKZl10hfA-13" value="" style="line;strokeWidth=1;fillColor=none;align=left;verticalAlign=middle;spacingTop=-1;spacingLeft=3;spacingRight=3;rotatable=0;labelPosition=right;points=[];portConstraint=eastwest;strokeColor=inherit;" vertex="1" parent="rF59SrE7Lo2NKZl10hfA-8">
          <mxGeometry y="129" width="150" height="8" as="geometry" />
        </mxCell>
        <mxCell id="rF59SrE7Lo2NKZl10hfA-14" value="&lt;div style=&quot;border-color: var(--border-color); text-align: center;&quot;&gt;&amp;nbsp; &amp;nbsp; &amp;nbsp; &amp;lt;&amp;lt;@attributes&amp;gt;&amp;gt;&lt;/div&gt;attr 1&lt;br style=&quot;border-color: var(--border-color);&quot;&gt;attr 2&lt;br style=&quot;border-color: var(--border-color);&quot;&gt;..." style="text;strokeColor=none;fillColor=none;align=left;verticalAlign=top;spacingLeft=4;spacingRight=4;overflow=hidden;rotatable=0;points=[[0,0.5],[1,0.5]];portConstraint=eastwest;whiteSpace=wrap;html=1;collapsible=1;marginBottom=0" vertex="1" parent="rF59SrE7Lo2NKZl10hfA-8">
          <mxGeometry y="137" width="150" height="20" as="geometry">
            <mxRectangle y="83" width="150" height="67" as="alternateBounds" />
          </mxGeometry>
        </mxCell>
        <mxCell id="rF59SrE7Lo2NKZl10hfA-15" value="&amp;nbsp;main_wing 1" style="endArrow=0;html=1;endSize=12;startArrow=diamondThin;startSize=14;startFill=1;align=left;verticalAlign=bottom;rounded=0;exitX=1.008;exitY=0.067;exitDx=0;exitDy=0;exitPerimeter=0;edgeStyle=orthogonalEdgeStyle;entryX=0.5;entryY=0;entryDx=0;entryDy=0;" edge="1" parent="1" source="rF59SrE7Lo2NKZl10hfA-1" target="rF59SrE7Lo2NKZl10hfA-8">
          <mxGeometry x="1" y="481" relative="1" as="geometry">
            <mxPoint x="809.9999999999999" y="1100.032" as="sourcePoint" />
            <mxPoint x="1017.9999999999999" y="1126.032" as="targetPoint" />
            <mxPoint x="-286" y="440" as="offset" />
          </mxGeometry>
        </mxCell>
        <mxCell id="rF59SrE7Lo2NKZl10hfA-16" value="winglet 0,1" style="endArrow=0;html=1;endSize=12;startArrow=diamondThin;startSize=14;startFill=1;align=left;verticalAlign=bottom;rounded=0;exitX=0.453;exitY=0.983;exitDx=0;exitDy=0;exitPerimeter=0;edgeStyle=orthogonalEdgeStyle;entryX=0.526;entryY=1.048;entryDx=0;entryDy=0;entryPerimeter=0;" edge="1" parent="1" source="rF59SrE7Lo2NKZl10hfA-7" target="rF59SrE7Lo2NKZl10hfA-14">
          <mxGeometry x="0.4844" relative="1" as="geometry">
            <mxPoint x="799.9999999999999" y="1270.062" as="sourcePoint" />
            <mxPoint x="975" y="1300.03" as="targetPoint" />
            <mxPoint as="offset" />
            <Array as="points">
              <mxPoint x="718" y="1310" />
              <mxPoint x="949" y="1310" />
            </Array>
          </mxGeometry>
        </mxCell>
        <mxCell id="rF59SrE7Lo2NKZl10hfA-17" value="get position" style="endArrow=open;endSize=12;dashed=1;html=1;rounded=0;" edge="1" parent="1">
          <mxGeometry width="160" relative="1" as="geometry">
            <mxPoint x="840" y="1310" as="sourcePoint" />
            <mxPoint x="840" y="1100" as="targetPoint" />
            <mxPoint as="offset" />
          </mxGeometry>
        </mxCell>
        <mxCell id="rF59SrE7Lo2NKZl10hfA-35" value="WingChannels" style="swimlane;fontStyle=0;childLayout=stackLayout;horizontal=1;startSize=26;fillColor=none;horizontalStack=0;resizeParent=1;resizeParentMax=0;resizeLast=0;collapsible=1;marginBottom=0;whiteSpace=wrap;html=1;" vertex="1" parent="1">
          <mxGeometry x="570" y="540" width="260" height="280" as="geometry">
            <mxRectangle x="340" y="40" width="90" height="30" as="alternateBounds" />
          </mxGeometry>
        </mxCell>
        <mxCell id="rF59SrE7Lo2NKZl10hfA-36" value="&lt;div style=&quot;text-align: center;&quot;&gt;&lt;span style=&quot;background-color: initial;&quot;&gt;&amp;nbsp; &amp;nbsp; &amp;nbsp; &amp;nbsp; &amp;nbsp;&amp;lt;&amp;lt;inputs&amp;gt;&amp;gt;&lt;/span&gt;&lt;/div&gt;&lt;div&gt;&lt;div&gt;front_spar_tip_pos = Input()&lt;/div&gt;&lt;div&gt;&lt;span style=&quot;background-color: initial;&quot;&gt;front_spar_root_pos = Input()&lt;/span&gt;&lt;/div&gt;&lt;div&gt;aft_spar_tip_pos = Input()&lt;/div&gt;&lt;div&gt;aft_spar_root_pos = Input()&lt;/div&gt;&lt;div&gt;&lt;br&gt;&lt;/div&gt;&lt;div&gt;connector_spanwise_position = Input(0.75)&lt;/div&gt;&lt;/div&gt;" style="text;strokeColor=none;fillColor=none;align=left;verticalAlign=top;spacingLeft=4;spacingRight=4;overflow=hidden;rotatable=0;points=[[0,0.5],[1,0.5]];portConstraint=eastwest;whiteSpace=wrap;html=1;collapsible=1;marginBottom=0;" vertex="1" collapsed="1" parent="rF59SrE7Lo2NKZl10hfA-35">
          <mxGeometry y="26" width="260" height="114" as="geometry">
            <mxRectangle y="26" width="150" height="20" as="alternateBounds" />
          </mxGeometry>
        </mxCell>
        <mxCell id="rF59SrE7Lo2NKZl10hfA-37" value="" style="line;strokeWidth=1;fillColor=none;align=left;verticalAlign=middle;spacingTop=-1;spacingLeft=3;spacingRight=3;rotatable=0;labelPosition=right;points=[];portConstraint=eastwest;strokeColor=inherit;" vertex="1" parent="rF59SrE7Lo2NKZl10hfA-35">
          <mxGeometry y="140" width="260" as="geometry" />
        </mxCell>
        <mxCell id="rF59SrE7Lo2NKZl10hfA-38" value="" style="line;strokeWidth=1;fillColor=none;align=left;verticalAlign=middle;spacingTop=-1;spacingLeft=3;spacingRight=3;rotatable=0;labelPosition=right;points=[];portConstraint=eastwest;strokeColor=inherit;" vertex="1" parent="rF59SrE7Lo2NKZl10hfA-35">
          <mxGeometry y="140" width="260" height="8" as="geometry" />
        </mxCell>
        <mxCell id="rF59SrE7Lo2NKZl10hfA-39" value="&lt;div style=&quot;border-color: var(--border-color); text-align: center;&quot;&gt;&amp;nbsp; &amp;nbsp; &amp;nbsp; &amp;nbsp; &amp;lt;&amp;lt;@inputs&amp;gt;&amp;gt;&lt;/div&gt;Inp 1&lt;br style=&quot;border-color: var(--border-color);&quot;&gt;Inp 2&lt;br style=&quot;border-color: var(--border-color);&quot;&gt;..." style="text;strokeColor=none;fillColor=none;align=left;verticalAlign=top;spacingLeft=4;spacingRight=4;overflow=hidden;rotatable=0;points=[[0,0.5],[1,0.5]];portConstraint=eastwest;whiteSpace=wrap;html=1;collapsible=1;marginBottom=0" vertex="1" parent="rF59SrE7Lo2NKZl10hfA-35">
          <mxGeometry y="148" width="260" height="21" as="geometry">
            <mxRectangle y="54" width="150" height="70" as="alternateBounds" />
          </mxGeometry>
        </mxCell>
        <mxCell id="rF59SrE7Lo2NKZl10hfA-40" value="" style="line;strokeWidth=1;fillColor=none;align=left;verticalAlign=middle;spacingTop=-1;spacingLeft=3;spacingRight=3;rotatable=0;labelPosition=right;points=[];portConstraint=eastwest;strokeColor=inherit;" vertex="1" parent="rF59SrE7Lo2NKZl10hfA-35">
          <mxGeometry y="169" width="260" height="8" as="geometry" />
        </mxCell>
        <mxCell id="rF59SrE7Lo2NKZl10hfA-41" value="&lt;div style=&quot;border-color: var(--border-color); text-align: center;&quot;&gt;&amp;nbsp; &amp;nbsp; &amp;nbsp; &amp;lt;&amp;lt;@attributes&amp;gt;&amp;gt;&lt;/div&gt;&lt;div style=&quot;border-color: var(--border-color);&quot;&gt;wing_connector_segment&lt;/div&gt;&lt;div style=&quot;border-color: var(--border-color);&quot;&gt;front_spar_vector&lt;/div&gt;&lt;div style=&quot;border-color: var(--border-color);&quot;&gt;aft_spar_vector&lt;/div&gt;&lt;div style=&quot;border-color: var(--border-color);&quot;&gt;front_connector_pos&lt;/div&gt;&lt;div style=&quot;border-color: var(--border-color);&quot;&gt;aft_connector_pos&lt;/div&gt;&lt;div style=&quot;border-color: var(--border-color);&quot;&gt;&lt;br&gt;&lt;/div&gt;" style="text;strokeColor=none;fillColor=none;align=left;verticalAlign=top;spacingLeft=4;spacingRight=4;overflow=hidden;rotatable=0;points=[[0,0.5],[1,0.5]];portConstraint=eastwest;whiteSpace=wrap;html=1;collapsible=1;marginBottom=0" vertex="1" collapsed="1" parent="rF59SrE7Lo2NKZl10hfA-35">
          <mxGeometry y="177" width="260" height="103" as="geometry">
            <mxRectangle y="177" width="290" height="20" as="alternateBounds" />
          </mxGeometry>
        </mxCell>
        <mxCell id="rF59SrE7Lo2NKZl10hfA-44" value="" style="endArrow=diamondThin;endFill=1;endSize=14;html=1;rounded=0;exitX=0.5;exitY=0;exitDx=0;exitDy=0;entryX=0.058;entryY=1.167;entryDx=0;entryDy=0;entryPerimeter=0;edgeStyle=orthogonalEdgeStyle;" edge="1" parent="1" source="rF59SrE7Lo2NKZl10hfA-35" target="m6qyqwOE9hwV-ypQYCnm-7">
          <mxGeometry width="160" relative="1" as="geometry">
            <mxPoint x="780" y="470" as="sourcePoint" />
            <mxPoint x="940" y="470" as="targetPoint" />
            <Array as="points">
              <mxPoint x="715" y="520" />
              <mxPoint x="823" y="520" />
            </Array>
          </mxGeometry>
        </mxCell>
        <mxCell id="rF59SrE7Lo2NKZl10hfA-46" value="spar_channels 0,...,3&lt;div&gt;wing_connectors 0, 1&lt;/div&gt;" style="text;html=1;align=center;verticalAlign=middle;resizable=0;points=[];autosize=1;strokeColor=none;fillColor=none;" vertex="1" parent="1">
          <mxGeometry x="680" y="480" width="140" height="40" as="geometry" />
        </mxCell>
        <mxCell id="kFv384wHv3biG9Io00nf-8" value="FourChannels" style="swimlane;fontStyle=0;childLayout=stackLayout;horizontal=1;startSize=26;fillColor=none;horizontalStack=0;resizeParent=1;resizeParentMax=0;resizeLast=0;collapsible=1;marginBottom=0;whiteSpace=wrap;html=1;" vertex="1" parent="1">
          <mxGeometry x="1230" y="749" width="160" height="157" as="geometry">
            <mxRectangle x="200" y="340" width="90" height="30" as="alternateBounds" />
          </mxGeometry>
        </mxCell>
        <mxCell id="kFv384wHv3biG9Io00nf-9" value="&lt;div style=&quot;text-align: center;&quot;&gt;&lt;span style=&quot;background-color: initial;&quot;&gt;&amp;nbsp; &amp;nbsp; &amp;nbsp; &amp;nbsp; &amp;nbsp;&amp;lt;&amp;lt;inputs&amp;gt;&amp;gt;&lt;/span&gt;&lt;/div&gt;&lt;br&gt;&lt;div&gt;&lt;br&gt;&lt;/div&gt;" style="text;strokeColor=none;fillColor=none;align=left;verticalAlign=top;spacingLeft=4;spacingRight=4;overflow=hidden;rotatable=0;points=[[0,0.5],[1,0.5]];portConstraint=eastwest;whiteSpace=wrap;html=1;collapsible=1;marginBottom=0;" vertex="1" collapsed="1" parent="kFv384wHv3biG9Io00nf-8">
          <mxGeometry y="26" width="160" height="74" as="geometry">
            <mxRectangle y="26" width="150" height="20" as="alternateBounds" />
          </mxGeometry>
        </mxCell>
        <mxCell id="kFv384wHv3biG9Io00nf-10" value="" style="line;strokeWidth=1;fillColor=none;align=left;verticalAlign=middle;spacingTop=-1;spacingLeft=3;spacingRight=3;rotatable=0;labelPosition=right;points=[];portConstraint=eastwest;strokeColor=inherit;" vertex="1" parent="kFv384wHv3biG9Io00nf-8">
          <mxGeometry y="100" width="160" as="geometry" />
        </mxCell>
        <mxCell id="kFv384wHv3biG9Io00nf-11" value="" style="line;strokeWidth=1;fillColor=none;align=left;verticalAlign=middle;spacingTop=-1;spacingLeft=3;spacingRight=3;rotatable=0;labelPosition=right;points=[];portConstraint=eastwest;strokeColor=inherit;" vertex="1" parent="kFv384wHv3biG9Io00nf-8">
          <mxGeometry y="100" width="160" height="8" as="geometry" />
        </mxCell>
        <mxCell id="kFv384wHv3biG9Io00nf-12" value="&lt;div style=&quot;border-color: var(--border-color); text-align: center;&quot;&gt;&amp;nbsp; &amp;nbsp; &amp;nbsp; &amp;nbsp; &amp;lt;&amp;lt;@inputs&amp;gt;&amp;gt;&lt;/div&gt;Inp 1&lt;br style=&quot;border-color: var(--border-color);&quot;&gt;Inp 2&lt;br style=&quot;border-color: var(--border-color);&quot;&gt;..." style="text;strokeColor=none;fillColor=none;align=left;verticalAlign=top;spacingLeft=4;spacingRight=4;overflow=hidden;rotatable=0;points=[[0,0.5],[1,0.5]];portConstraint=eastwest;whiteSpace=wrap;html=1;collapsible=1;marginBottom=0" vertex="1" parent="kFv384wHv3biG9Io00nf-8">
          <mxGeometry y="108" width="160" height="21" as="geometry">
            <mxRectangle y="54" width="150" height="70" as="alternateBounds" />
          </mxGeometry>
        </mxCell>
        <mxCell id="kFv384wHv3biG9Io00nf-13" value="" style="line;strokeWidth=1;fillColor=none;align=left;verticalAlign=middle;spacingTop=-1;spacingLeft=3;spacingRight=3;rotatable=0;labelPosition=right;points=[];portConstraint=eastwest;strokeColor=inherit;" vertex="1" parent="kFv384wHv3biG9Io00nf-8">
          <mxGeometry y="129" width="160" height="8" as="geometry" />
        </mxCell>
        <mxCell id="kFv384wHv3biG9Io00nf-14" value="&lt;div style=&quot;border-color: var(--border-color); text-align: center;&quot;&gt;&amp;nbsp; &amp;nbsp; &amp;nbsp; &amp;lt;&amp;lt;@attributes&amp;gt;&amp;gt;&lt;/div&gt;" style="text;strokeColor=none;fillColor=none;align=left;verticalAlign=top;spacingLeft=4;spacingRight=4;overflow=hidden;rotatable=0;points=[[0,0.5],[1,0.5]];portConstraint=eastwest;whiteSpace=wrap;html=1;collapsible=1;marginBottom=0" vertex="1" parent="kFv384wHv3biG9Io00nf-8">
          <mxGeometry y="137" width="160" height="20" as="geometry">
            <mxRectangle y="137" width="210" height="67" as="alternateBounds" />
          </mxGeometry>
        </mxCell>
        <mxCell id="kFv384wHv3biG9Io00nf-15" value="ThreeChannels" style="swimlane;fontStyle=0;childLayout=stackLayout;horizontal=1;startSize=26;fillColor=none;horizontalStack=0;resizeParent=1;resizeParentMax=0;resizeLast=0;collapsible=1;marginBottom=0;whiteSpace=wrap;html=1;" vertex="1" parent="1">
          <mxGeometry x="920" y="749.0000000000001" width="170" height="147" as="geometry">
            <mxRectangle x="-110" y="340.0000000000001" width="110" height="30" as="alternateBounds" />
          </mxGeometry>
        </mxCell>
        <mxCell id="kFv384wHv3biG9Io00nf-16" value="&lt;div style=&quot;text-align: center;&quot;&gt;&lt;span style=&quot;background-color: initial;&quot;&gt;&amp;nbsp; &amp;nbsp; &amp;nbsp; &amp;nbsp; &amp;nbsp;&amp;lt;&amp;lt;inputs&amp;gt;&amp;gt;&lt;/span&gt;&lt;/div&gt;" style="text;strokeColor=none;fillColor=none;align=left;verticalAlign=top;spacingLeft=4;spacingRight=4;overflow=hidden;rotatable=0;points=[[0,0.5],[1,0.5]];portConstraint=eastwest;whiteSpace=wrap;html=1;collapsible=1;marginBottom=0;" vertex="1" collapsed="1" parent="kFv384wHv3biG9Io00nf-15">
          <mxGeometry y="26" width="170" height="64" as="geometry">
            <mxRectangle y="26" width="150" height="20" as="alternateBounds" />
          </mxGeometry>
        </mxCell>
        <mxCell id="kFv384wHv3biG9Io00nf-17" value="" style="line;strokeWidth=1;fillColor=none;align=left;verticalAlign=middle;spacingTop=-1;spacingLeft=3;spacingRight=3;rotatable=0;labelPosition=right;points=[];portConstraint=eastwest;strokeColor=inherit;" vertex="1" parent="kFv384wHv3biG9Io00nf-15">
          <mxGeometry y="90" width="170" as="geometry" />
        </mxCell>
        <mxCell id="kFv384wHv3biG9Io00nf-18" value="" style="line;strokeWidth=1;fillColor=none;align=left;verticalAlign=middle;spacingTop=-1;spacingLeft=3;spacingRight=3;rotatable=0;labelPosition=right;points=[];portConstraint=eastwest;strokeColor=inherit;" vertex="1" parent="kFv384wHv3biG9Io00nf-15">
          <mxGeometry y="90" width="170" height="8" as="geometry" />
        </mxCell>
        <mxCell id="kFv384wHv3biG9Io00nf-19" value="&lt;div style=&quot;border-color: var(--border-color); text-align: center;&quot;&gt;&amp;nbsp; &amp;nbsp; &amp;nbsp; &amp;nbsp; &amp;lt;&amp;lt;@inputs&amp;gt;&amp;gt;&lt;/div&gt;Inp 1&lt;br style=&quot;border-color: var(--border-color);&quot;&gt;Inp 2&lt;br style=&quot;border-color: var(--border-color);&quot;&gt;..." style="text;strokeColor=none;fillColor=none;align=left;verticalAlign=top;spacingLeft=4;spacingRight=4;overflow=hidden;rotatable=0;points=[[0,0.5],[1,0.5]];portConstraint=eastwest;whiteSpace=wrap;html=1;collapsible=1;marginBottom=0" vertex="1" parent="kFv384wHv3biG9Io00nf-15">
          <mxGeometry y="98" width="170" height="21" as="geometry">
            <mxRectangle y="54" width="150" height="70" as="alternateBounds" />
          </mxGeometry>
        </mxCell>
        <mxCell id="kFv384wHv3biG9Io00nf-20" value="" style="line;strokeWidth=1;fillColor=none;align=left;verticalAlign=middle;spacingTop=-1;spacingLeft=3;spacingRight=3;rotatable=0;labelPosition=right;points=[];portConstraint=eastwest;strokeColor=inherit;" vertex="1" parent="kFv384wHv3biG9Io00nf-15">
          <mxGeometry y="119" width="170" height="8" as="geometry" />
        </mxCell>
        <mxCell id="kFv384wHv3biG9Io00nf-21" value="&lt;div style=&quot;border-color: var(--border-color); text-align: center;&quot;&gt;&amp;nbsp; &amp;nbsp; &amp;nbsp; &amp;lt;&amp;lt;@attributes&amp;gt;&amp;gt;&lt;/div&gt;attr 1&lt;br style=&quot;border-color: var(--border-color);&quot;&gt;attr 2&lt;br style=&quot;border-color: var(--border-color);&quot;&gt;..." style="text;strokeColor=none;fillColor=none;align=left;verticalAlign=top;spacingLeft=4;spacingRight=4;overflow=hidden;rotatable=0;points=[[0,0.5],[1,0.5]];portConstraint=eastwest;whiteSpace=wrap;html=1;collapsible=1;marginBottom=0" vertex="1" parent="kFv384wHv3biG9Io00nf-15">
          <mxGeometry y="127" width="170" height="20" as="geometry">
            <mxRectangle y="83" width="150" height="67" as="alternateBounds" />
          </mxGeometry>
        </mxCell>
        <mxCell id="kFv384wHv3biG9Io00nf-22" value="{OR}" style="endArrow=none;startArrow=none;endFill=0;startFill=0;endSize=8;html=1;verticalAlign=bottom;dashed=1;labelBackgroundColor=none;dashPattern=10 10;rounded=0;exitX=-0.008;exitY=0.061;exitDx=0;exitDy=0;exitPerimeter=0;entryX=1.007;entryY=0.076;entryDx=0;entryDy=0;entryPerimeter=0;" edge="1" parent="1" source="kFv384wHv3biG9Io00nf-8" target="kFv384wHv3biG9Io00nf-15">
          <mxGeometry x="0.2749" width="160" relative="1" as="geometry">
            <mxPoint x="1360" y="861.97" as="sourcePoint" />
            <mxPoint x="1520" y="861.97" as="targetPoint" />
            <mxPoint as="offset" />
          </mxGeometry>
        </mxCell>
        <mxCell id="kFv384wHv3biG9Io00nf-24" value="FuselageChannels" style="swimlane;fontStyle=0;childLayout=stackLayout;horizontal=1;startSize=26;fillColor=none;horizontalStack=0;resizeParent=1;resizeParentMax=0;resizeLast=0;collapsible=1;marginBottom=0;whiteSpace=wrap;html=1;" vertex="1" parent="1">
          <mxGeometry x="1100" y="420" width="210" height="157" as="geometry">
            <mxRectangle x="340" y="40" width="90" height="30" as="alternateBounds" />
          </mxGeometry>
        </mxCell>
        <mxCell id="kFv384wHv3biG9Io00nf-25" value="&lt;div style=&quot;text-align: center;&quot;&gt;&lt;span style=&quot;background-color: initial;&quot;&gt;&amp;lt;&amp;lt;inputs&amp;gt;&amp;gt;&lt;/span&gt;&lt;/div&gt;&lt;div&gt;&lt;div&gt;lower_channel_zposition = Input(-1)&lt;/div&gt;&lt;div&gt;upper_channel_zposition = Input(1.2)&lt;/div&gt;&lt;div&gt;channels_ypostion = Input(1.1)&lt;/div&gt;&lt;/div&gt;" style="text;strokeColor=none;fillColor=none;align=left;verticalAlign=top;spacingLeft=4;spacingRight=4;overflow=hidden;rotatable=0;points=[[0,0.5],[1,0.5]];portConstraint=eastwest;whiteSpace=wrap;html=1;collapsible=1;marginBottom=0;" vertex="1" collapsed="1" parent="kFv384wHv3biG9Io00nf-24">
          <mxGeometry y="26" width="210" height="74" as="geometry">
            <mxRectangle y="26" width="150" height="20" as="alternateBounds" />
          </mxGeometry>
        </mxCell>
        <mxCell id="kFv384wHv3biG9Io00nf-26" value="" style="line;strokeWidth=1;fillColor=none;align=left;verticalAlign=middle;spacingTop=-1;spacingLeft=3;spacingRight=3;rotatable=0;labelPosition=right;points=[];portConstraint=eastwest;strokeColor=inherit;" vertex="1" parent="kFv384wHv3biG9Io00nf-24">
          <mxGeometry y="100" width="210" as="geometry" />
        </mxCell>
        <mxCell id="kFv384wHv3biG9Io00nf-27" value="" style="line;strokeWidth=1;fillColor=none;align=left;verticalAlign=middle;spacingTop=-1;spacingLeft=3;spacingRight=3;rotatable=0;labelPosition=right;points=[];portConstraint=eastwest;strokeColor=inherit;" vertex="1" parent="kFv384wHv3biG9Io00nf-24">
          <mxGeometry y="100" width="210" height="8" as="geometry" />
        </mxCell>
        <mxCell id="kFv384wHv3biG9Io00nf-28" value="&lt;div style=&quot;border-color: var(--border-color); text-align: center;&quot;&gt;&amp;nbsp; &amp;nbsp; &amp;nbsp; &amp;nbsp; &amp;lt;&amp;lt;@inputs&amp;gt;&amp;gt;&lt;/div&gt;Inp 1&lt;br style=&quot;border-color: var(--border-color);&quot;&gt;Inp 2&lt;br style=&quot;border-color: var(--border-color);&quot;&gt;..." style="text;strokeColor=none;fillColor=none;align=left;verticalAlign=top;spacingLeft=4;spacingRight=4;overflow=hidden;rotatable=0;points=[[0,0.5],[1,0.5]];portConstraint=eastwest;whiteSpace=wrap;html=1;collapsible=1;marginBottom=0" vertex="1" parent="kFv384wHv3biG9Io00nf-24">
          <mxGeometry y="108" width="210" height="21" as="geometry">
            <mxRectangle y="54" width="150" height="70" as="alternateBounds" />
          </mxGeometry>
        </mxCell>
        <mxCell id="kFv384wHv3biG9Io00nf-29" value="" style="line;strokeWidth=1;fillColor=none;align=left;verticalAlign=middle;spacingTop=-1;spacingLeft=3;spacingRight=3;rotatable=0;labelPosition=right;points=[];portConstraint=eastwest;strokeColor=inherit;" vertex="1" parent="kFv384wHv3biG9Io00nf-24">
          <mxGeometry y="129" width="210" height="8" as="geometry" />
        </mxCell>
        <mxCell id="kFv384wHv3biG9Io00nf-30" value="&lt;div style=&quot;border-color: var(--border-color); text-align: center;&quot;&gt;&amp;nbsp; &amp;nbsp; &amp;nbsp; &amp;lt;&amp;lt;@attributes&amp;gt;&amp;gt;&lt;/div&gt;&lt;div style=&quot;border-color: var(--border-color);&quot;&gt;&lt;br&gt;&lt;/div&gt;" style="text;strokeColor=none;fillColor=none;align=left;verticalAlign=top;spacingLeft=4;spacingRight=4;overflow=hidden;rotatable=0;points=[[0,0.5],[1,0.5]];portConstraint=eastwest;whiteSpace=wrap;html=1;collapsible=1;marginBottom=0" vertex="1" parent="kFv384wHv3biG9Io00nf-24">
          <mxGeometry y="137" width="210" height="20" as="geometry">
            <mxRectangle y="137" width="210" height="23" as="alternateBounds" />
          </mxGeometry>
        </mxCell>
        <mxCell id="0QyFdaEDa3hHkOLkP6WQ-16" style="edgeStyle=orthogonalEdgeStyle;rounded=0;orthogonalLoop=1;jettySize=auto;html=1;exitX=0.75;exitY=0;exitDx=0;exitDy=0;entryX=0.25;entryY=1;entryDx=0;entryDy=0;endArrow=classic;endFill=0;" edge="1" parent="1" source="kFv384wHv3biG9Io00nf-33" target="0QyFdaEDa3hHkOLkP6WQ-9">
          <mxGeometry relative="1" as="geometry" />
        </mxCell>
        <mxCell id="kFv384wHv3biG9Io00nf-33" value="ChannelX" style="swimlane;fontStyle=0;childLayout=stackLayout;horizontal=1;startSize=26;fillColor=none;horizontalStack=0;resizeParent=1;resizeParentMax=0;resizeLast=0;collapsible=1;marginBottom=0;whiteSpace=wrap;html=1;" vertex="1" parent="1">
          <mxGeometry x="1500" y="587" width="160" height="157" as="geometry">
            <mxRectangle x="200" y="340" width="90" height="30" as="alternateBounds" />
          </mxGeometry>
        </mxCell>
        <mxCell id="kFv384wHv3biG9Io00nf-34" value="&lt;div style=&quot;text-align: center;&quot;&gt;&lt;span style=&quot;background-color: initial;&quot;&gt;&amp;nbsp; &amp;nbsp; &amp;nbsp; &amp;nbsp; &amp;nbsp;&amp;lt;&amp;lt;inputs&amp;gt;&amp;gt;&lt;/span&gt;&lt;/div&gt;ch_radius = Input(0.1)&lt;div&gt;&lt;br&gt;&lt;div&gt;&lt;br&gt;&lt;/div&gt;&lt;/div&gt;" style="text;strokeColor=none;fillColor=none;align=left;verticalAlign=top;spacingLeft=4;spacingRight=4;overflow=hidden;rotatable=0;points=[[0,0.5],[1,0.5]];portConstraint=eastwest;whiteSpace=wrap;html=1;collapsible=1;marginBottom=0;" vertex="1" collapsed="1" parent="kFv384wHv3biG9Io00nf-33">
          <mxGeometry y="26" width="160" height="74" as="geometry">
            <mxRectangle y="26" width="150" height="20" as="alternateBounds" />
          </mxGeometry>
        </mxCell>
        <mxCell id="kFv384wHv3biG9Io00nf-35" value="" style="line;strokeWidth=1;fillColor=none;align=left;verticalAlign=middle;spacingTop=-1;spacingLeft=3;spacingRight=3;rotatable=0;labelPosition=right;points=[];portConstraint=eastwest;strokeColor=inherit;" vertex="1" parent="kFv384wHv3biG9Io00nf-33">
          <mxGeometry y="100" width="160" as="geometry" />
        </mxCell>
        <mxCell id="kFv384wHv3biG9Io00nf-36" value="" style="line;strokeWidth=1;fillColor=none;align=left;verticalAlign=middle;spacingTop=-1;spacingLeft=3;spacingRight=3;rotatable=0;labelPosition=right;points=[];portConstraint=eastwest;strokeColor=inherit;" vertex="1" parent="kFv384wHv3biG9Io00nf-33">
          <mxGeometry y="100" width="160" height="8" as="geometry" />
        </mxCell>
        <mxCell id="kFv384wHv3biG9Io00nf-37" value="&lt;div style=&quot;border-color: var(--border-color); text-align: center;&quot;&gt;&amp;nbsp; &amp;nbsp; &amp;nbsp; &amp;nbsp; &amp;lt;&amp;lt;@inputs&amp;gt;&amp;gt;&lt;/div&gt;Inp 1&lt;br style=&quot;border-color: var(--border-color);&quot;&gt;Inp 2&lt;br style=&quot;border-color: var(--border-color);&quot;&gt;..." style="text;strokeColor=none;fillColor=none;align=left;verticalAlign=top;spacingLeft=4;spacingRight=4;overflow=hidden;rotatable=0;points=[[0,0.5],[1,0.5]];portConstraint=eastwest;whiteSpace=wrap;html=1;collapsible=1;marginBottom=0" vertex="1" parent="kFv384wHv3biG9Io00nf-33">
          <mxGeometry y="108" width="160" height="21" as="geometry">
            <mxRectangle y="54" width="150" height="70" as="alternateBounds" />
          </mxGeometry>
        </mxCell>
        <mxCell id="kFv384wHv3biG9Io00nf-38" value="" style="line;strokeWidth=1;fillColor=none;align=left;verticalAlign=middle;spacingTop=-1;spacingLeft=3;spacingRight=3;rotatable=0;labelPosition=right;points=[];portConstraint=eastwest;strokeColor=inherit;" vertex="1" parent="kFv384wHv3biG9Io00nf-33">
          <mxGeometry y="129" width="160" height="8" as="geometry" />
        </mxCell>
        <mxCell id="kFv384wHv3biG9Io00nf-39" value="&lt;div style=&quot;border-color: var(--border-color); text-align: center;&quot;&gt;&amp;nbsp; &amp;nbsp; &amp;nbsp; &amp;lt;&amp;lt;@attributes&amp;gt;&amp;gt;&lt;/div&gt;" style="text;strokeColor=none;fillColor=none;align=left;verticalAlign=top;spacingLeft=4;spacingRight=4;overflow=hidden;rotatable=0;points=[[0,0.5],[1,0.5]];portConstraint=eastwest;whiteSpace=wrap;html=1;collapsible=1;marginBottom=0" vertex="1" parent="kFv384wHv3biG9Io00nf-33">
          <mxGeometry y="137" width="160" height="20" as="geometry">
            <mxRectangle y="137" width="210" height="67" as="alternateBounds" />
          </mxGeometry>
        </mxCell>
        <mxCell id="0QyFdaEDa3hHkOLkP6WQ-17" style="edgeStyle=orthogonalEdgeStyle;rounded=0;orthogonalLoop=1;jettySize=auto;html=1;exitX=0.75;exitY=0;exitDx=0;exitDy=0;entryX=0.5;entryY=1;entryDx=0;entryDy=0;endArrow=classic;endFill=0;" edge="1" parent="1" source="kFv384wHv3biG9Io00nf-41" target="0QyFdaEDa3hHkOLkP6WQ-9">
          <mxGeometry relative="1" as="geometry">
            <Array as="points">
              <mxPoint x="1765" y="770" />
            </Array>
          </mxGeometry>
        </mxCell>
        <mxCell id="kFv384wHv3biG9Io00nf-41" value="ChannelY" style="swimlane;fontStyle=0;childLayout=stackLayout;horizontal=1;startSize=26;fillColor=none;horizontalStack=0;resizeParent=1;resizeParentMax=0;resizeLast=0;collapsible=1;marginBottom=0;whiteSpace=wrap;html=1;" vertex="1" parent="1">
          <mxGeometry x="1500" y="790" width="160" height="157" as="geometry">
            <mxRectangle x="200" y="340" width="90" height="30" as="alternateBounds" />
          </mxGeometry>
        </mxCell>
        <mxCell id="kFv384wHv3biG9Io00nf-42" value="&lt;div style=&quot;text-align: center;&quot;&gt;&lt;span style=&quot;background-color: initial;&quot;&gt;&amp;nbsp; &amp;nbsp; &amp;nbsp; &amp;nbsp; &amp;nbsp;&amp;lt;&amp;lt;inputs&amp;gt;&amp;gt;&lt;/span&gt;&lt;/div&gt;&lt;br&gt;&lt;div&gt;&lt;br&gt;&lt;/div&gt;" style="text;strokeColor=none;fillColor=none;align=left;verticalAlign=top;spacingLeft=4;spacingRight=4;overflow=hidden;rotatable=0;points=[[0,0.5],[1,0.5]];portConstraint=eastwest;whiteSpace=wrap;html=1;collapsible=1;marginBottom=0;" vertex="1" collapsed="1" parent="kFv384wHv3biG9Io00nf-41">
          <mxGeometry y="26" width="160" height="74" as="geometry">
            <mxRectangle y="26" width="150" height="20" as="alternateBounds" />
          </mxGeometry>
        </mxCell>
        <mxCell id="kFv384wHv3biG9Io00nf-43" value="" style="line;strokeWidth=1;fillColor=none;align=left;verticalAlign=middle;spacingTop=-1;spacingLeft=3;spacingRight=3;rotatable=0;labelPosition=right;points=[];portConstraint=eastwest;strokeColor=inherit;" vertex="1" parent="kFv384wHv3biG9Io00nf-41">
          <mxGeometry y="100" width="160" as="geometry" />
        </mxCell>
        <mxCell id="kFv384wHv3biG9Io00nf-44" value="" style="line;strokeWidth=1;fillColor=none;align=left;verticalAlign=middle;spacingTop=-1;spacingLeft=3;spacingRight=3;rotatable=0;labelPosition=right;points=[];portConstraint=eastwest;strokeColor=inherit;" vertex="1" parent="kFv384wHv3biG9Io00nf-41">
          <mxGeometry y="100" width="160" height="8" as="geometry" />
        </mxCell>
        <mxCell id="kFv384wHv3biG9Io00nf-45" value="&lt;div style=&quot;border-color: var(--border-color); text-align: center;&quot;&gt;&amp;nbsp; &amp;nbsp; &amp;nbsp; &amp;nbsp; &amp;lt;&amp;lt;@inputs&amp;gt;&amp;gt;&lt;/div&gt;Inp 1&lt;br style=&quot;border-color: var(--border-color);&quot;&gt;Inp 2&lt;br style=&quot;border-color: var(--border-color);&quot;&gt;..." style="text;strokeColor=none;fillColor=none;align=left;verticalAlign=top;spacingLeft=4;spacingRight=4;overflow=hidden;rotatable=0;points=[[0,0.5],[1,0.5]];portConstraint=eastwest;whiteSpace=wrap;html=1;collapsible=1;marginBottom=0" vertex="1" parent="kFv384wHv3biG9Io00nf-41">
          <mxGeometry y="108" width="160" height="21" as="geometry">
            <mxRectangle y="54" width="150" height="70" as="alternateBounds" />
          </mxGeometry>
        </mxCell>
        <mxCell id="kFv384wHv3biG9Io00nf-46" value="" style="line;strokeWidth=1;fillColor=none;align=left;verticalAlign=middle;spacingTop=-1;spacingLeft=3;spacingRight=3;rotatable=0;labelPosition=right;points=[];portConstraint=eastwest;strokeColor=inherit;" vertex="1" parent="kFv384wHv3biG9Io00nf-41">
          <mxGeometry y="129" width="160" height="8" as="geometry" />
        </mxCell>
        <mxCell id="kFv384wHv3biG9Io00nf-47" value="&lt;div style=&quot;border-color: var(--border-color); text-align: center;&quot;&gt;&amp;nbsp; &amp;nbsp; &amp;nbsp; &amp;lt;&amp;lt;@attributes&amp;gt;&amp;gt;&lt;/div&gt;" style="text;strokeColor=none;fillColor=none;align=left;verticalAlign=top;spacingLeft=4;spacingRight=4;overflow=hidden;rotatable=0;points=[[0,0.5],[1,0.5]];portConstraint=eastwest;whiteSpace=wrap;html=1;collapsible=1;marginBottom=0" vertex="1" parent="kFv384wHv3biG9Io00nf-41">
          <mxGeometry y="137" width="160" height="20" as="geometry">
            <mxRectangle y="137" width="210" height="67" as="alternateBounds" />
          </mxGeometry>
        </mxCell>
        <mxCell id="kFv384wHv3biG9Io00nf-48" value="" style="endArrow=diamondThin;endFill=1;endSize=14;html=1;rounded=0;exitX=0.5;exitY=0;exitDx=0;exitDy=0;edgeStyle=orthogonalEdgeStyle;" edge="1" parent="1" source="kFv384wHv3biG9Io00nf-15">
          <mxGeometry width="160" relative="1" as="geometry">
            <mxPoint x="1020" y="670" as="sourcePoint" />
            <mxPoint x="1140" y="580" as="targetPoint" />
            <Array as="points">
              <mxPoint x="1005" y="650" />
              <mxPoint x="1140" y="650" />
            </Array>
          </mxGeometry>
        </mxCell>
        <mxCell id="kFv384wHv3biG9Io00nf-49" value="" style="endArrow=diamondThin;endFill=1;endSize=14;html=1;rounded=0;exitX=0.5;exitY=0;exitDx=0;exitDy=0;edgeStyle=orthogonalEdgeStyle;" edge="1" parent="1" source="kFv384wHv3biG9Io00nf-8" target="kFv384wHv3biG9Io00nf-30">
          <mxGeometry width="160" relative="1" as="geometry">
            <mxPoint x="1015" y="759" as="sourcePoint" />
            <mxPoint x="1150" y="590" as="targetPoint" />
            <Array as="points">
              <mxPoint x="1310" y="660" />
              <mxPoint x="1250" y="660" />
            </Array>
          </mxGeometry>
        </mxCell>
        <mxCell id="0QyFdaEDa3hHkOLkP6WQ-1" value="upper_channel&lt;div&gt;fuselage_connector 0,2&lt;/div&gt;" style="text;html=1;align=center;verticalAlign=middle;resizable=0;points=[];autosize=1;strokeColor=none;fillColor=none;" vertex="1" parent="1">
          <mxGeometry x="1000" y="650.5" width="150" height="40" as="geometry" />
        </mxCell>
        <mxCell id="0QyFdaEDa3hHkOLkP6WQ-2" value="fuselage_connector 0,2&lt;div&gt;upper_channel 0,2&lt;/div&gt;" style="text;html=1;align=center;verticalAlign=middle;resizable=0;points=[];autosize=1;strokeColor=none;fillColor=none;" vertex="1" parent="1">
          <mxGeometry x="1160" y="660" width="150" height="40" as="geometry" />
        </mxCell>
        <mxCell id="0QyFdaEDa3hHkOLkP6WQ-3" style="edgeStyle=orthogonalEdgeStyle;rounded=0;orthogonalLoop=1;jettySize=auto;html=1;exitX=0.5;exitY=0;exitDx=0;exitDy=0;entryX=0.99;entryY=0.07;entryDx=0;entryDy=0;entryPerimeter=0;endArrow=diamondThin;endFill=1;endSize=14;" edge="1" parent="1" source="kFv384wHv3biG9Io00nf-33" target="kFv384wHv3biG9Io00nf-24">
          <mxGeometry relative="1" as="geometry">
            <Array as="points">
              <mxPoint x="1580" y="431" />
            </Array>
          </mxGeometry>
        </mxCell>
        <mxCell id="0QyFdaEDa3hHkOLkP6WQ-4" value="lower_channel 0,2&lt;div&gt;&lt;br&gt;&lt;/div&gt;" style="edgeLabel;html=1;align=center;verticalAlign=middle;resizable=0;points=[];" vertex="1" connectable="0" parent="0QyFdaEDa3hHkOLkP6WQ-3">
          <mxGeometry x="-0.2851" y="2" relative="1" as="geometry">
            <mxPoint x="-48" y="-4" as="offset" />
          </mxGeometry>
        </mxCell>
        <mxCell id="0QyFdaEDa3hHkOLkP6WQ-7" value="Text" style="edgeLabel;html=1;align=center;verticalAlign=middle;resizable=0;points=[];" vertex="1" connectable="0" parent="0QyFdaEDa3hHkOLkP6WQ-3">
          <mxGeometry x="-0.5842" y="3" relative="1" as="geometry">
            <mxPoint as="offset" />
          </mxGeometry>
        </mxCell>
        <mxCell id="0QyFdaEDa3hHkOLkP6WQ-5" style="edgeStyle=orthogonalEdgeStyle;rounded=0;orthogonalLoop=1;jettySize=auto;html=1;exitX=0.5;exitY=0;exitDx=0;exitDy=0;entryX=0.995;entryY=0.127;entryDx=0;entryDy=0;entryPerimeter=0;endArrow=diamondThin;endFill=1;endSize=14;" edge="1" parent="1" source="kFv384wHv3biG9Io00nf-41" target="kFv384wHv3biG9Io00nf-24">
          <mxGeometry relative="1" as="geometry">
            <Array as="points">
              <mxPoint x="1580" y="770" />
              <mxPoint x="1440" y="770" />
              <mxPoint x="1440" y="440" />
            </Array>
          </mxGeometry>
        </mxCell>
        <mxCell id="0QyFdaEDa3hHkOLkP6WQ-6" value="connectorY 1,2" style="edgeLabel;html=1;align=center;verticalAlign=middle;resizable=0;points=[];" vertex="1" connectable="0" parent="0QyFdaEDa3hHkOLkP6WQ-5">
          <mxGeometry x="-0.0945" y="4" relative="1" as="geometry">
            <mxPoint as="offset" />
          </mxGeometry>
        </mxCell>
        <mxCell id="0QyFdaEDa3hHkOLkP6WQ-9" value="LoftedSolid" style="swimlane;fontStyle=0;childLayout=stackLayout;horizontal=1;startSize=26;fillColor=none;horizontalStack=0;resizeParent=1;resizeParentMax=0;resizeLast=0;collapsible=1;marginBottom=0;whiteSpace=wrap;html=1;" vertex="1" collapsed="1" parent="1">
          <mxGeometry x="1720" y="500" width="90" height="30" as="geometry">
            <mxRectangle x="1390" y="1000" width="160" height="157" as="alternateBounds" />
          </mxGeometry>
        </mxCell>
        <mxCell id="0QyFdaEDa3hHkOLkP6WQ-10" value="&lt;div style=&quot;text-align: center;&quot;&gt;&lt;span style=&quot;background-color: initial;&quot;&gt;&amp;nbsp; &amp;nbsp; &amp;nbsp; &amp;nbsp; &amp;nbsp;&amp;lt;&amp;lt;inputs&amp;gt;&amp;gt;&lt;/span&gt;&lt;/div&gt;&lt;br&gt;&lt;div&gt;&lt;br&gt;&lt;/div&gt;" style="text;strokeColor=none;fillColor=none;align=left;verticalAlign=top;spacingLeft=4;spacingRight=4;overflow=hidden;rotatable=0;points=[[0,0.5],[1,0.5]];portConstraint=eastwest;whiteSpace=wrap;html=1;collapsible=1;marginBottom=0;" vertex="1" collapsed="1" parent="0QyFdaEDa3hHkOLkP6WQ-9">
          <mxGeometry y="26" width="160" height="74" as="geometry">
            <mxRectangle y="26" width="150" height="20" as="alternateBounds" />
          </mxGeometry>
        </mxCell>
        <mxCell id="0QyFdaEDa3hHkOLkP6WQ-11" value="" style="line;strokeWidth=1;fillColor=none;align=left;verticalAlign=middle;spacingTop=-1;spacingLeft=3;spacingRight=3;rotatable=0;labelPosition=right;points=[];portConstraint=eastwest;strokeColor=inherit;" vertex="1" parent="0QyFdaEDa3hHkOLkP6WQ-9">
          <mxGeometry y="100" width="160" as="geometry" />
        </mxCell>
        <mxCell id="0QyFdaEDa3hHkOLkP6WQ-12" value="" style="line;strokeWidth=1;fillColor=none;align=left;verticalAlign=middle;spacingTop=-1;spacingLeft=3;spacingRight=3;rotatable=0;labelPosition=right;points=[];portConstraint=eastwest;strokeColor=inherit;" vertex="1" parent="0QyFdaEDa3hHkOLkP6WQ-9">
          <mxGeometry y="100" width="160" height="8" as="geometry" />
        </mxCell>
        <mxCell id="0QyFdaEDa3hHkOLkP6WQ-13" value="&lt;div style=&quot;border-color: var(--border-color); text-align: center;&quot;&gt;&amp;nbsp; &amp;nbsp; &amp;nbsp; &amp;nbsp; &amp;lt;&amp;lt;@inputs&amp;gt;&amp;gt;&lt;/div&gt;Inp 1&lt;br style=&quot;border-color: var(--border-color);&quot;&gt;Inp 2&lt;br style=&quot;border-color: var(--border-color);&quot;&gt;..." style="text;strokeColor=none;fillColor=none;align=left;verticalAlign=top;spacingLeft=4;spacingRight=4;overflow=hidden;rotatable=0;points=[[0,0.5],[1,0.5]];portConstraint=eastwest;whiteSpace=wrap;html=1;collapsible=1;marginBottom=0" vertex="1" parent="0QyFdaEDa3hHkOLkP6WQ-9">
          <mxGeometry y="108" width="160" height="21" as="geometry">
            <mxRectangle y="54" width="150" height="70" as="alternateBounds" />
          </mxGeometry>
        </mxCell>
        <mxCell id="0QyFdaEDa3hHkOLkP6WQ-14" value="" style="line;strokeWidth=1;fillColor=none;align=left;verticalAlign=middle;spacingTop=-1;spacingLeft=3;spacingRight=3;rotatable=0;labelPosition=right;points=[];portConstraint=eastwest;strokeColor=inherit;" vertex="1" parent="0QyFdaEDa3hHkOLkP6WQ-9">
          <mxGeometry y="129" width="160" height="8" as="geometry" />
        </mxCell>
        <mxCell id="0QyFdaEDa3hHkOLkP6WQ-15" value="&lt;div style=&quot;border-color: var(--border-color); text-align: center;&quot;&gt;&amp;nbsp; &amp;nbsp; &amp;nbsp; &amp;lt;&amp;lt;@attributes&amp;gt;&amp;gt;&lt;/div&gt;" style="text;strokeColor=none;fillColor=none;align=left;verticalAlign=top;spacingLeft=4;spacingRight=4;overflow=hidden;rotatable=0;points=[[0,0.5],[1,0.5]];portConstraint=eastwest;whiteSpace=wrap;html=1;collapsible=1;marginBottom=0" vertex="1" parent="0QyFdaEDa3hHkOLkP6WQ-9">
          <mxGeometry y="137" width="160" height="20" as="geometry">
            <mxRectangle y="137" width="210" height="67" as="alternateBounds" />
          </mxGeometry>
        </mxCell>
        <mxCell id="0QyFdaEDa3hHkOLkP6WQ-20" value="AircraftBody" style="swimlane;fontStyle=0;childLayout=stackLayout;horizontal=1;startSize=26;fillColor=none;horizontalStack=0;resizeParent=1;resizeParentMax=0;resizeLast=0;collapsible=1;marginBottom=0;whiteSpace=wrap;html=1;" vertex="1" parent="1">
          <mxGeometry x="-490" y="180" width="160" height="103" as="geometry">
            <mxRectangle x="200" y="340" width="90" height="30" as="alternateBounds" />
          </mxGeometry>
        </mxCell>
        <mxCell id="0QyFdaEDa3hHkOLkP6WQ-21" value="&lt;div style=&quot;text-align: center;&quot;&gt;&lt;span style=&quot;background-color: initial;&quot;&gt;&amp;nbsp; &amp;nbsp; &amp;nbsp; &amp;nbsp; &amp;nbsp;&amp;lt;&amp;lt;inputs&amp;gt;&amp;gt;&lt;/span&gt;&lt;/div&gt;&lt;br&gt;&lt;div&gt;&lt;br&gt;&lt;/div&gt;" style="text;strokeColor=none;fillColor=none;align=left;verticalAlign=top;spacingLeft=4;spacingRight=4;overflow=hidden;rotatable=0;points=[[0,0.5],[1,0.5]];portConstraint=eastwest;whiteSpace=wrap;html=1;collapsible=1;marginBottom=0;" vertex="1" parent="0QyFdaEDa3hHkOLkP6WQ-20">
          <mxGeometry y="26" width="160" height="20" as="geometry">
            <mxRectangle y="26" width="160" height="74" as="alternateBounds" />
          </mxGeometry>
        </mxCell>
        <mxCell id="0QyFdaEDa3hHkOLkP6WQ-22" value="" style="line;strokeWidth=1;fillColor=none;align=left;verticalAlign=middle;spacingTop=-1;spacingLeft=3;spacingRight=3;rotatable=0;labelPosition=right;points=[];portConstraint=eastwest;strokeColor=inherit;" vertex="1" parent="0QyFdaEDa3hHkOLkP6WQ-20">
          <mxGeometry y="46" width="160" as="geometry" />
        </mxCell>
        <mxCell id="0QyFdaEDa3hHkOLkP6WQ-23" value="" style="line;strokeWidth=1;fillColor=none;align=left;verticalAlign=middle;spacingTop=-1;spacingLeft=3;spacingRight=3;rotatable=0;labelPosition=right;points=[];portConstraint=eastwest;strokeColor=inherit;" vertex="1" parent="0QyFdaEDa3hHkOLkP6WQ-20">
          <mxGeometry y="46" width="160" height="8" as="geometry" />
        </mxCell>
        <mxCell id="0QyFdaEDa3hHkOLkP6WQ-24" value="&lt;div style=&quot;border-color: var(--border-color); text-align: center;&quot;&gt;&amp;nbsp; &amp;nbsp; &amp;nbsp; &amp;nbsp; &amp;lt;&amp;lt;@inputs&amp;gt;&amp;gt;&lt;/div&gt;Inp 1&lt;br style=&quot;border-color: var(--border-color);&quot;&gt;Inp 2&lt;br style=&quot;border-color: var(--border-color);&quot;&gt;..." style="text;strokeColor=none;fillColor=none;align=left;verticalAlign=top;spacingLeft=4;spacingRight=4;overflow=hidden;rotatable=0;points=[[0,0.5],[1,0.5]];portConstraint=eastwest;whiteSpace=wrap;html=1;collapsible=1;marginBottom=0" vertex="1" parent="0QyFdaEDa3hHkOLkP6WQ-20">
          <mxGeometry y="54" width="160" height="21" as="geometry">
            <mxRectangle y="54" width="150" height="70" as="alternateBounds" />
          </mxGeometry>
        </mxCell>
        <mxCell id="0QyFdaEDa3hHkOLkP6WQ-25" value="" style="line;strokeWidth=1;fillColor=none;align=left;verticalAlign=middle;spacingTop=-1;spacingLeft=3;spacingRight=3;rotatable=0;labelPosition=right;points=[];portConstraint=eastwest;strokeColor=inherit;" vertex="1" parent="0QyFdaEDa3hHkOLkP6WQ-20">
          <mxGeometry y="75" width="160" height="8" as="geometry" />
        </mxCell>
        <mxCell id="0QyFdaEDa3hHkOLkP6WQ-26" value="&lt;div style=&quot;border-color: var(--border-color); text-align: center;&quot;&gt;&amp;nbsp; &amp;nbsp; &amp;nbsp; &amp;lt;&amp;lt;@attributes&amp;gt;&amp;gt;&lt;/div&gt;" style="text;strokeColor=none;fillColor=none;align=left;verticalAlign=top;spacingLeft=4;spacingRight=4;overflow=hidden;rotatable=0;points=[[0,0.5],[1,0.5]];portConstraint=eastwest;whiteSpace=wrap;html=1;collapsible=1;marginBottom=0" vertex="1" parent="0QyFdaEDa3hHkOLkP6WQ-20">
          <mxGeometry y="83" width="160" height="20" as="geometry">
            <mxRectangle y="137" width="210" height="67" as="alternateBounds" />
          </mxGeometry>
        </mxCell>
        <mxCell id="0QyFdaEDa3hHkOLkP6WQ-27" value="Wing" style="swimlane;fontStyle=0;childLayout=stackLayout;horizontal=1;startSize=26;fillColor=none;horizontalStack=0;resizeParent=1;resizeParentMax=0;resizeLast=0;collapsible=1;marginBottom=0;whiteSpace=wrap;html=1;" vertex="1" parent="1">
          <mxGeometry x="-750" y="360" width="210" height="330" as="geometry">
            <mxRectangle x="200" y="340" width="90" height="30" as="alternateBounds" />
          </mxGeometry>
        </mxCell>
        <mxCell id="0QyFdaEDa3hHkOLkP6WQ-28" value="&lt;div style=&quot;text-align: center;&quot;&gt;&lt;span style=&quot;background-color: initial;&quot;&gt;&amp;lt;&amp;lt;inputs&amp;gt;&amp;gt;&lt;/span&gt;&lt;/div&gt;&lt;div&gt;w_c_root = Input(6.0)&lt;/div&gt;&lt;div&gt;w_c_tip = Input(2.3)&lt;/div&gt;&lt;div&gt;w_semi_span = Input(10.0)&lt;/div&gt;&lt;div&gt;sweep_TE = Input(25.0)&lt;/div&gt;&lt;div&gt;dihedral = Input(1.0)&lt;/div&gt;&lt;div&gt;front_spar_chord_pos = Input(0.2)&lt;/div&gt;&lt;div&gt;aft_spar_chord_pos = Input(0.75)&lt;/div&gt;" style="text;strokeColor=none;fillColor=none;align=left;verticalAlign=top;spacingLeft=4;spacingRight=4;overflow=hidden;rotatable=0;points=[[0,0.5],[1,0.5]];portConstraint=eastwest;whiteSpace=wrap;html=1;collapsible=1;marginBottom=0;" vertex="1" collapsed="1" parent="0QyFdaEDa3hHkOLkP6WQ-27">
          <mxGeometry y="26" width="210" height="154" as="geometry">
            <mxRectangle y="26" width="150" height="20" as="alternateBounds" />
          </mxGeometry>
        </mxCell>
        <mxCell id="0QyFdaEDa3hHkOLkP6WQ-29" value="" style="line;strokeWidth=1;fillColor=none;align=left;verticalAlign=middle;spacingTop=-1;spacingLeft=3;spacingRight=3;rotatable=0;labelPosition=right;points=[];portConstraint=eastwest;strokeColor=inherit;" vertex="1" parent="0QyFdaEDa3hHkOLkP6WQ-27">
          <mxGeometry y="180" width="210" as="geometry" />
        </mxCell>
        <mxCell id="0QyFdaEDa3hHkOLkP6WQ-30" value="" style="line;strokeWidth=1;fillColor=none;align=left;verticalAlign=middle;spacingTop=-1;spacingLeft=3;spacingRight=3;rotatable=0;labelPosition=right;points=[];portConstraint=eastwest;strokeColor=inherit;" vertex="1" parent="0QyFdaEDa3hHkOLkP6WQ-27">
          <mxGeometry y="180" width="210" height="8" as="geometry" />
        </mxCell>
        <mxCell id="0QyFdaEDa3hHkOLkP6WQ-31" value="&lt;div style=&quot;border-color: var(--border-color); text-align: center;&quot;&gt;&amp;nbsp; &amp;nbsp; &amp;nbsp; &amp;nbsp; &amp;lt;&amp;lt;@inputs&amp;gt;&amp;gt;&lt;/div&gt;Inp 1&lt;br style=&quot;border-color: var(--border-color);&quot;&gt;Inp 2&lt;br style=&quot;border-color: var(--border-color);&quot;&gt;..." style="text;strokeColor=none;fillColor=none;align=left;verticalAlign=top;spacingLeft=4;spacingRight=4;overflow=hidden;rotatable=0;points=[[0,0.5],[1,0.5]];portConstraint=eastwest;whiteSpace=wrap;html=1;collapsible=1;marginBottom=0" vertex="1" parent="0QyFdaEDa3hHkOLkP6WQ-27">
          <mxGeometry y="188" width="210" height="21" as="geometry">
            <mxRectangle y="54" width="150" height="70" as="alternateBounds" />
          </mxGeometry>
        </mxCell>
        <mxCell id="0QyFdaEDa3hHkOLkP6WQ-32" value="" style="line;strokeWidth=1;fillColor=none;align=left;verticalAlign=middle;spacingTop=-1;spacingLeft=3;spacingRight=3;rotatable=0;labelPosition=right;points=[];portConstraint=eastwest;strokeColor=inherit;" vertex="1" parent="0QyFdaEDa3hHkOLkP6WQ-27">
          <mxGeometry y="209" width="210" height="8" as="geometry" />
        </mxCell>
        <mxCell id="0QyFdaEDa3hHkOLkP6WQ-94" style="edgeStyle=orthogonalEdgeStyle;rounded=0;orthogonalLoop=1;jettySize=auto;html=1;" edge="1" parent="0QyFdaEDa3hHkOLkP6WQ-27" source="0QyFdaEDa3hHkOLkP6WQ-33">
          <mxGeometry relative="1" as="geometry">
            <mxPoint x="910" y="-10" as="targetPoint" />
          </mxGeometry>
        </mxCell>
        <mxCell id="0QyFdaEDa3hHkOLkP6WQ-95" value="h_tail&lt;div&gt;mirrored_h_tail&lt;/div&gt;" style="edgeLabel;html=1;align=center;verticalAlign=middle;resizable=0;points=[];" vertex="1" connectable="0" parent="0QyFdaEDa3hHkOLkP6WQ-94">
          <mxGeometry x="-0.0772" y="1" relative="1" as="geometry">
            <mxPoint x="-14" y="-19" as="offset" />
          </mxGeometry>
        </mxCell>
        <mxCell id="0QyFdaEDa3hHkOLkP6WQ-33" value="&lt;div style=&quot;border-color: var(--border-color); text-align: center;&quot;&gt;&amp;nbsp; &amp;nbsp; &amp;nbsp; &amp;lt;&amp;lt;@attributes&amp;gt;&amp;gt;&lt;/div&gt;&lt;div style=&quot;border-color: var(--border-color);&quot;&gt;pts&lt;/div&gt;&lt;div style=&quot;border-color: var(--border-color);&quot;&gt;front_spar_root_location&lt;/div&gt;&lt;div style=&quot;border-color: var(--border-color);&quot;&gt;aft_spar_root_location&lt;/div&gt;&lt;div style=&quot;border-color: var(--border-color);&quot;&gt;front_spar_tip_location&lt;/div&gt;&lt;div style=&quot;border-color: var(--border-color);&quot;&gt;aft_spar_tip_location&lt;/div&gt;&lt;div style=&quot;border-color: var(--border-color);&quot;&gt;profiles&lt;/div&gt;" style="text;strokeColor=none;fillColor=none;align=left;verticalAlign=top;spacingLeft=4;spacingRight=4;overflow=hidden;rotatable=0;points=[[0,0.5],[1,0.5]];portConstraint=eastwest;whiteSpace=wrap;html=1;collapsible=1;marginBottom=0" vertex="1" collapsed="1" parent="0QyFdaEDa3hHkOLkP6WQ-27">
          <mxGeometry y="217" width="210" height="113" as="geometry">
            <mxRectangle y="217" width="210" height="20" as="alternateBounds" />
          </mxGeometry>
        </mxCell>
        <mxCell id="0QyFdaEDa3hHkOLkP6WQ-53" style="edgeStyle=orthogonalEdgeStyle;rounded=0;orthogonalLoop=1;jettySize=auto;html=1;exitX=0.75;exitY=0;exitDx=0;exitDy=0;entryX=0.5;entryY=1;entryDx=0;entryDy=0;endArrow=classic;endFill=0;endSize=14;" edge="1" parent="1" source="0QyFdaEDa3hHkOLkP6WQ-35" target="0QyFdaEDa3hHkOLkP6WQ-46">
          <mxGeometry relative="1" as="geometry" />
        </mxCell>
        <mxCell id="0QyFdaEDa3hHkOLkP6WQ-35" value="Fuselage" style="swimlane;fontStyle=0;childLayout=stackLayout;horizontal=1;startSize=26;fillColor=none;horizontalStack=0;resizeParent=1;resizeParentMax=0;resizeLast=0;collapsible=1;marginBottom=0;whiteSpace=wrap;html=1;" vertex="1" parent="1">
          <mxGeometry x="-490" y="373" width="160" height="240" as="geometry">
            <mxRectangle x="200" y="340" width="90" height="30" as="alternateBounds" />
          </mxGeometry>
        </mxCell>
        <mxCell id="0QyFdaEDa3hHkOLkP6WQ-36" value="&lt;div style=&quot;text-align: center;&quot;&gt;&lt;span style=&quot;background-color: initial;&quot;&gt;&amp;lt;&amp;lt;inputs&amp;gt;&amp;gt;&lt;/span&gt;&lt;/div&gt;&lt;div&gt;fu_radius = Input(3.95/2)&lt;/div&gt;&lt;div&gt;fu_sections = Input([10, 80, 90, 95, 100, 100, 100, 100, 95, 80, 10])&lt;/div&gt;&lt;div&gt;fu_length = Input(44.51)&lt;/div&gt;&lt;div&gt;transparency = Input(0.8)&lt;/div&gt;&lt;div&gt;&lt;br&gt;&lt;/div&gt;" style="text;strokeColor=none;fillColor=none;align=left;verticalAlign=top;spacingLeft=4;spacingRight=4;overflow=hidden;rotatable=0;points=[[0,0.5],[1,0.5]];portConstraint=eastwest;whiteSpace=wrap;html=1;collapsible=1;marginBottom=0;" vertex="1" collapsed="1" parent="0QyFdaEDa3hHkOLkP6WQ-35">
          <mxGeometry y="26" width="160" height="124" as="geometry">
            <mxRectangle y="26" width="150" height="20" as="alternateBounds" />
          </mxGeometry>
        </mxCell>
        <mxCell id="0QyFdaEDa3hHkOLkP6WQ-37" value="" style="line;strokeWidth=1;fillColor=none;align=left;verticalAlign=middle;spacingTop=-1;spacingLeft=3;spacingRight=3;rotatable=0;labelPosition=right;points=[];portConstraint=eastwest;strokeColor=inherit;" vertex="1" parent="0QyFdaEDa3hHkOLkP6WQ-35">
          <mxGeometry y="150" width="160" as="geometry" />
        </mxCell>
        <mxCell id="0QyFdaEDa3hHkOLkP6WQ-38" value="" style="line;strokeWidth=1;fillColor=none;align=left;verticalAlign=middle;spacingTop=-1;spacingLeft=3;spacingRight=3;rotatable=0;labelPosition=right;points=[];portConstraint=eastwest;strokeColor=inherit;" vertex="1" parent="0QyFdaEDa3hHkOLkP6WQ-35">
          <mxGeometry y="150" width="160" height="8" as="geometry" />
        </mxCell>
        <mxCell id="0QyFdaEDa3hHkOLkP6WQ-39" value="&lt;div style=&quot;border-color: var(--border-color); text-align: center;&quot;&gt;&amp;nbsp; &amp;nbsp; &amp;nbsp; &amp;nbsp; &amp;lt;&amp;lt;@inputs&amp;gt;&amp;gt;&lt;/div&gt;Inp 1&lt;br style=&quot;border-color: var(--border-color);&quot;&gt;Inp 2&lt;br style=&quot;border-color: var(--border-color);&quot;&gt;..." style="text;strokeColor=none;fillColor=none;align=left;verticalAlign=top;spacingLeft=4;spacingRight=4;overflow=hidden;rotatable=0;points=[[0,0.5],[1,0.5]];portConstraint=eastwest;whiteSpace=wrap;html=1;collapsible=1;marginBottom=0" vertex="1" parent="0QyFdaEDa3hHkOLkP6WQ-35">
          <mxGeometry y="158" width="160" height="21" as="geometry">
            <mxRectangle y="54" width="150" height="70" as="alternateBounds" />
          </mxGeometry>
        </mxCell>
        <mxCell id="0QyFdaEDa3hHkOLkP6WQ-40" value="" style="line;strokeWidth=1;fillColor=none;align=left;verticalAlign=middle;spacingTop=-1;spacingLeft=3;spacingRight=3;rotatable=0;labelPosition=right;points=[];portConstraint=eastwest;strokeColor=inherit;" vertex="1" parent="0QyFdaEDa3hHkOLkP6WQ-35">
          <mxGeometry y="179" width="160" height="8" as="geometry" />
        </mxCell>
        <mxCell id="0QyFdaEDa3hHkOLkP6WQ-41" value="&lt;div style=&quot;border-color: var(--border-color); text-align: center;&quot;&gt;&amp;nbsp; &amp;nbsp; &amp;nbsp; &amp;lt;&amp;lt;@attributes&amp;gt;&amp;gt;&lt;/div&gt;&lt;div style=&quot;border-color: var(--border-color);&quot;&gt;section_radius&lt;/div&gt;&lt;div style=&quot;border-color: var(--border-color);&quot;&gt;section_length&lt;/div&gt;" style="text;strokeColor=none;fillColor=none;align=left;verticalAlign=top;spacingLeft=4;spacingRight=4;overflow=hidden;rotatable=0;points=[[0,0.5],[1,0.5]];portConstraint=eastwest;whiteSpace=wrap;html=1;collapsible=1;marginBottom=0" vertex="1" collapsed="1" parent="0QyFdaEDa3hHkOLkP6WQ-35">
          <mxGeometry y="187" width="160" height="53" as="geometry">
            <mxRectangle y="187" width="160" height="20" as="alternateBounds" />
          </mxGeometry>
        </mxCell>
        <mxCell id="0QyFdaEDa3hHkOLkP6WQ-42" style="edgeStyle=orthogonalEdgeStyle;rounded=0;orthogonalLoop=1;jettySize=auto;html=1;exitX=0.5;exitY=0;exitDx=0;exitDy=0;entryX=-0.001;entryY=0.085;entryDx=0;entryDy=0;entryPerimeter=0;endArrow=diamondThin;endFill=0;endSize=14;" edge="1" parent="1" source="0QyFdaEDa3hHkOLkP6WQ-27" target="0QyFdaEDa3hHkOLkP6WQ-20">
          <mxGeometry relative="1" as="geometry" />
        </mxCell>
        <mxCell id="0QyFdaEDa3hHkOLkP6WQ-43" value="right_wing&lt;div&gt;left_wing&lt;/div&gt;&lt;div&gt;v_tail&lt;/div&gt;" style="edgeLabel;html=1;align=center;verticalAlign=middle;resizable=0;points=[];" vertex="1" connectable="0" parent="0QyFdaEDa3hHkOLkP6WQ-42">
          <mxGeometry x="0.2383" y="-1" relative="1" as="geometry">
            <mxPoint as="offset" />
          </mxGeometry>
        </mxCell>
        <mxCell id="0QyFdaEDa3hHkOLkP6WQ-44" style="edgeStyle=orthogonalEdgeStyle;rounded=0;orthogonalLoop=1;jettySize=auto;html=1;exitX=0.5;exitY=0;exitDx=0;exitDy=0;entryX=0.006;entryY=0.184;entryDx=0;entryDy=0;entryPerimeter=0;endArrow=diamondThin;endFill=0;endSize=14;" edge="1" parent="1" source="0QyFdaEDa3hHkOLkP6WQ-35" target="0QyFdaEDa3hHkOLkP6WQ-20">
          <mxGeometry relative="1" as="geometry" />
        </mxCell>
        <mxCell id="0QyFdaEDa3hHkOLkP6WQ-45" value="fuselage" style="edgeLabel;html=1;align=center;verticalAlign=middle;resizable=0;points=[];" vertex="1" connectable="0" parent="0QyFdaEDa3hHkOLkP6WQ-44">
          <mxGeometry x="-0.4445" relative="1" as="geometry">
            <mxPoint as="offset" />
          </mxGeometry>
        </mxCell>
        <mxCell id="0QyFdaEDa3hHkOLkP6WQ-46" value="LoftedSolid" style="swimlane;fontStyle=0;childLayout=stackLayout;horizontal=1;startSize=26;fillColor=none;horizontalStack=0;resizeParent=1;resizeParentMax=0;resizeLast=0;collapsible=1;marginBottom=0;whiteSpace=wrap;html=1;" vertex="1" collapsed="1" parent="1">
          <mxGeometry x="-370" y="300" width="90" height="30" as="geometry">
            <mxRectangle x="1390" y="1000" width="160" height="157" as="alternateBounds" />
          </mxGeometry>
        </mxCell>
        <mxCell id="0QyFdaEDa3hHkOLkP6WQ-47" value="&lt;div style=&quot;text-align: center;&quot;&gt;&lt;span style=&quot;background-color: initial;&quot;&gt;&amp;nbsp; &amp;nbsp; &amp;nbsp; &amp;nbsp; &amp;nbsp;&amp;lt;&amp;lt;inputs&amp;gt;&amp;gt;&lt;/span&gt;&lt;/div&gt;&lt;br&gt;&lt;div&gt;&lt;br&gt;&lt;/div&gt;" style="text;strokeColor=none;fillColor=none;align=left;verticalAlign=top;spacingLeft=4;spacingRight=4;overflow=hidden;rotatable=0;points=[[0,0.5],[1,0.5]];portConstraint=eastwest;whiteSpace=wrap;html=1;collapsible=1;marginBottom=0;" vertex="1" collapsed="1" parent="0QyFdaEDa3hHkOLkP6WQ-46">
          <mxGeometry y="26" width="160" height="74" as="geometry">
            <mxRectangle y="26" width="150" height="20" as="alternateBounds" />
          </mxGeometry>
        </mxCell>
        <mxCell id="0QyFdaEDa3hHkOLkP6WQ-48" value="" style="line;strokeWidth=1;fillColor=none;align=left;verticalAlign=middle;spacingTop=-1;spacingLeft=3;spacingRight=3;rotatable=0;labelPosition=right;points=[];portConstraint=eastwest;strokeColor=inherit;" vertex="1" parent="0QyFdaEDa3hHkOLkP6WQ-46">
          <mxGeometry y="100" width="160" as="geometry" />
        </mxCell>
        <mxCell id="0QyFdaEDa3hHkOLkP6WQ-49" value="" style="line;strokeWidth=1;fillColor=none;align=left;verticalAlign=middle;spacingTop=-1;spacingLeft=3;spacingRight=3;rotatable=0;labelPosition=right;points=[];portConstraint=eastwest;strokeColor=inherit;" vertex="1" parent="0QyFdaEDa3hHkOLkP6WQ-46">
          <mxGeometry y="100" width="160" height="8" as="geometry" />
        </mxCell>
        <mxCell id="0QyFdaEDa3hHkOLkP6WQ-50" value="&lt;div style=&quot;border-color: var(--border-color); text-align: center;&quot;&gt;&amp;nbsp; &amp;nbsp; &amp;nbsp; &amp;nbsp; &amp;lt;&amp;lt;@inputs&amp;gt;&amp;gt;&lt;/div&gt;Inp 1&lt;br style=&quot;border-color: var(--border-color);&quot;&gt;Inp 2&lt;br style=&quot;border-color: var(--border-color);&quot;&gt;..." style="text;strokeColor=none;fillColor=none;align=left;verticalAlign=top;spacingLeft=4;spacingRight=4;overflow=hidden;rotatable=0;points=[[0,0.5],[1,0.5]];portConstraint=eastwest;whiteSpace=wrap;html=1;collapsible=1;marginBottom=0" vertex="1" parent="0QyFdaEDa3hHkOLkP6WQ-46">
          <mxGeometry y="108" width="160" height="21" as="geometry">
            <mxRectangle y="54" width="150" height="70" as="alternateBounds" />
          </mxGeometry>
        </mxCell>
        <mxCell id="0QyFdaEDa3hHkOLkP6WQ-51" value="" style="line;strokeWidth=1;fillColor=none;align=left;verticalAlign=middle;spacingTop=-1;spacingLeft=3;spacingRight=3;rotatable=0;labelPosition=right;points=[];portConstraint=eastwest;strokeColor=inherit;" vertex="1" parent="0QyFdaEDa3hHkOLkP6WQ-46">
          <mxGeometry y="129" width="160" height="8" as="geometry" />
        </mxCell>
        <mxCell id="0QyFdaEDa3hHkOLkP6WQ-52" value="&lt;div style=&quot;border-color: var(--border-color); text-align: center;&quot;&gt;&amp;nbsp; &amp;nbsp; &amp;nbsp; &amp;lt;&amp;lt;@attributes&amp;gt;&amp;gt;&lt;/div&gt;" style="text;strokeColor=none;fillColor=none;align=left;verticalAlign=top;spacingLeft=4;spacingRight=4;overflow=hidden;rotatable=0;points=[[0,0.5],[1,0.5]];portConstraint=eastwest;whiteSpace=wrap;html=1;collapsible=1;marginBottom=0" vertex="1" parent="0QyFdaEDa3hHkOLkP6WQ-46">
          <mxGeometry y="137" width="160" height="20" as="geometry">
            <mxRectangle y="137" width="210" height="67" as="alternateBounds" />
          </mxGeometry>
        </mxCell>
        <mxCell id="0QyFdaEDa3hHkOLkP6WQ-54" style="edgeStyle=orthogonalEdgeStyle;rounded=0;orthogonalLoop=1;jettySize=auto;html=1;exitX=0;exitY=0.5;exitDx=0;exitDy=0;entryX=0.738;entryY=-0.021;entryDx=0;entryDy=0;entryPerimeter=0;" edge="1" parent="1" source="0QyFdaEDa3hHkOLkP6WQ-21" target="0QyFdaEDa3hHkOLkP6WQ-27">
          <mxGeometry relative="1" as="geometry" />
        </mxCell>
        <mxCell id="0QyFdaEDa3hHkOLkP6WQ-55" value="position" style="edgeLabel;html=1;align=center;verticalAlign=middle;resizable=0;points=[];" vertex="1" connectable="0" parent="0QyFdaEDa3hHkOLkP6WQ-54">
          <mxGeometry x="0.7453" y="-2" relative="1" as="geometry">
            <mxPoint as="offset" />
          </mxGeometry>
        </mxCell>
        <mxCell id="0QyFdaEDa3hHkOLkP6WQ-56" style="edgeStyle=orthogonalEdgeStyle;rounded=0;orthogonalLoop=1;jettySize=auto;html=1;exitX=0.5;exitY=0;exitDx=0;exitDy=0;entryX=0.991;entryY=0.061;entryDx=0;entryDy=0;entryPerimeter=0;endArrow=diamondThin;endFill=0;endSize=14;" edge="1" parent="1" source="kFv384wHv3biG9Io00nf-24" target="m6qyqwOE9hwV-ypQYCnm-1">
          <mxGeometry relative="1" as="geometry" />
        </mxCell>
        <mxCell id="0QyFdaEDa3hHkOLkP6WQ-57" style="edgeStyle=orthogonalEdgeStyle;rounded=0;orthogonalLoop=1;jettySize=auto;html=1;exitX=0.998;exitY=0.885;exitDx=0;exitDy=0;entryX=0;entryY=0.071;entryDx=0;entryDy=0;entryPerimeter=0;exitPerimeter=0;" edge="1" parent="1" source="0QyFdaEDa3hHkOLkP6WQ-33" target="rF59SrE7Lo2NKZl10hfA-35">
          <mxGeometry relative="1" as="geometry">
            <Array as="points">
              <mxPoint x="470" y="677" />
              <mxPoint x="470" y="560" />
            </Array>
          </mxGeometry>
        </mxCell>
        <mxCell id="0QyFdaEDa3hHkOLkP6WQ-58" style="edgeStyle=orthogonalEdgeStyle;rounded=0;orthogonalLoop=1;jettySize=auto;html=1;exitX=0.5;exitY=0;exitDx=0;exitDy=0;entryX=0;entryY=0.078;entryDx=0;entryDy=0;entryPerimeter=0;endArrow=diamondThin;endFill=0;endSize=14;" edge="1" parent="1" source="0QyFdaEDa3hHkOLkP6WQ-20" target="m6qyqwOE9hwV-ypQYCnm-8">
          <mxGeometry relative="1" as="geometry" />
        </mxCell>
        <mxCell id="0QyFdaEDa3hHkOLkP6WQ-66" value="Engine" style="swimlane;fontStyle=0;childLayout=stackLayout;horizontal=1;startSize=26;fillColor=none;horizontalStack=0;resizeParent=1;resizeParentMax=0;resizeLast=0;collapsible=1;marginBottom=0;whiteSpace=wrap;html=1;" vertex="1" parent="1">
          <mxGeometry x="-575" y="730" width="150" height="140" as="geometry">
            <mxRectangle x="60" y="112" width="90" height="30" as="alternateBounds" />
          </mxGeometry>
        </mxCell>
        <mxCell id="0QyFdaEDa3hHkOLkP6WQ-67" value="&lt;div style=&quot;text-align: center;&quot;&gt;&lt;span style=&quot;background-color: initial;&quot;&gt;&amp;lt;&amp;lt;inputs&amp;gt;&amp;gt;&lt;/span&gt;&lt;/div&gt;length = Input(3.0)&lt;div&gt;fan_diameter = Input(2.0)&lt;/div&gt;" style="text;strokeColor=none;fillColor=none;align=left;verticalAlign=top;spacingLeft=4;spacingRight=4;overflow=hidden;rotatable=0;points=[[0,0.5],[1,0.5]];portConstraint=eastwest;whiteSpace=wrap;html=1;collapsible=1;marginBottom=0;" vertex="1" collapsed="1" parent="0QyFdaEDa3hHkOLkP6WQ-66">
          <mxGeometry y="26" width="150" height="54" as="geometry">
            <mxRectangle y="26" width="150" height="20" as="alternateBounds" />
          </mxGeometry>
        </mxCell>
        <mxCell id="0QyFdaEDa3hHkOLkP6WQ-68" value="" style="line;strokeWidth=1;fillColor=none;align=left;verticalAlign=middle;spacingTop=-1;spacingLeft=3;spacingRight=3;rotatable=0;labelPosition=right;points=[];portConstraint=eastwest;strokeColor=inherit;" vertex="1" parent="0QyFdaEDa3hHkOLkP6WQ-66">
          <mxGeometry y="80" width="150" as="geometry" />
        </mxCell>
        <mxCell id="0QyFdaEDa3hHkOLkP6WQ-69" value="" style="line;strokeWidth=1;fillColor=none;align=left;verticalAlign=middle;spacingTop=-1;spacingLeft=3;spacingRight=3;rotatable=0;labelPosition=right;points=[];portConstraint=eastwest;strokeColor=inherit;" vertex="1" parent="0QyFdaEDa3hHkOLkP6WQ-66">
          <mxGeometry y="80" width="150" height="8" as="geometry" />
        </mxCell>
        <mxCell id="0QyFdaEDa3hHkOLkP6WQ-70" value="&lt;div style=&quot;border-color: var(--border-color); text-align: center;&quot;&gt;&amp;nbsp; &amp;nbsp; &amp;nbsp; &amp;nbsp; &amp;lt;&amp;lt;@inputs&amp;gt;&amp;gt;&lt;/div&gt;Inp 1&lt;br style=&quot;border-color: var(--border-color);&quot;&gt;Inp 2&lt;br style=&quot;border-color: var(--border-color);&quot;&gt;..." style="text;strokeColor=none;fillColor=none;align=left;verticalAlign=top;spacingLeft=4;spacingRight=4;overflow=hidden;rotatable=0;points=[[0,0.5],[1,0.5]];portConstraint=eastwest;whiteSpace=wrap;html=1;collapsible=1;marginBottom=0" vertex="1" parent="0QyFdaEDa3hHkOLkP6WQ-66">
          <mxGeometry y="88" width="150" height="21" as="geometry">
            <mxRectangle y="54" width="150" height="70" as="alternateBounds" />
          </mxGeometry>
        </mxCell>
        <mxCell id="0QyFdaEDa3hHkOLkP6WQ-71" value="" style="line;strokeWidth=1;fillColor=none;align=left;verticalAlign=middle;spacingTop=-1;spacingLeft=3;spacingRight=3;rotatable=0;labelPosition=right;points=[];portConstraint=eastwest;strokeColor=inherit;" vertex="1" parent="0QyFdaEDa3hHkOLkP6WQ-66">
          <mxGeometry y="109" width="150" height="8" as="geometry" />
        </mxCell>
        <mxCell id="0QyFdaEDa3hHkOLkP6WQ-72" value="&lt;div style=&quot;border-color: var(--border-color);&quot;&gt;&amp;nbsp; &amp;nbsp; &amp;nbsp; &amp;lt;&amp;lt;@attributes&amp;gt;&amp;gt;&lt;br&gt;&lt;/div&gt;" style="text;strokeColor=none;fillColor=none;align=left;verticalAlign=top;spacingLeft=4;spacingRight=4;overflow=hidden;rotatable=0;points=[[0,0.5],[1,0.5]];portConstraint=eastwest;whiteSpace=wrap;html=1;collapsible=1;marginBottom=0" vertex="1" parent="0QyFdaEDa3hHkOLkP6WQ-66">
          <mxGeometry y="117" width="150" height="23" as="geometry">
            <mxRectangle y="117" width="150" height="23" as="alternateBounds" />
          </mxGeometry>
        </mxCell>
        <mxCell id="0QyFdaEDa3hHkOLkP6WQ-80" value="Pylon" style="swimlane;fontStyle=0;childLayout=stackLayout;horizontal=1;startSize=26;fillColor=none;horizontalStack=0;resizeParent=1;resizeParentMax=0;resizeLast=0;collapsible=1;marginBottom=0;whiteSpace=wrap;html=1;" vertex="1" parent="1">
          <mxGeometry x="-330" y="720" width="150" height="225" as="geometry">
            <mxRectangle x="60" y="112" width="90" height="30" as="alternateBounds" />
          </mxGeometry>
        </mxCell>
        <mxCell id="0QyFdaEDa3hHkOLkP6WQ-81" value="&lt;div style=&quot;text-align: center;&quot;&gt;&lt;span style=&quot;background-color: initial;&quot;&gt;&amp;lt;&amp;lt;inputs&amp;gt;&amp;gt;&lt;/span&gt;&lt;/div&gt;&lt;div style=&quot;&quot;&gt;&lt;span style=&quot;background-color: initial;&quot;&gt;fan_diameter = Input(2.0)&lt;/span&gt;&lt;/div&gt;&lt;div style=&quot;&quot;&gt;&lt;span style=&quot;background-color: initial;&quot;&gt;length = Input(3.0)&lt;/span&gt;&lt;/div&gt;" style="text;strokeColor=none;fillColor=none;align=left;verticalAlign=top;spacingLeft=4;spacingRight=4;overflow=hidden;rotatable=0;points=[[0,0.5],[1,0.5]];portConstraint=eastwest;whiteSpace=wrap;html=1;collapsible=1;marginBottom=0;" vertex="1" collapsed="1" parent="0QyFdaEDa3hHkOLkP6WQ-80">
          <mxGeometry y="26" width="150" height="74" as="geometry">
            <mxRectangle y="26" width="150" height="20" as="alternateBounds" />
          </mxGeometry>
        </mxCell>
        <mxCell id="0QyFdaEDa3hHkOLkP6WQ-82" value="" style="line;strokeWidth=1;fillColor=none;align=left;verticalAlign=middle;spacingTop=-1;spacingLeft=3;spacingRight=3;rotatable=0;labelPosition=right;points=[];portConstraint=eastwest;strokeColor=inherit;" vertex="1" parent="0QyFdaEDa3hHkOLkP6WQ-80">
          <mxGeometry y="100" width="150" as="geometry" />
        </mxCell>
        <mxCell id="0QyFdaEDa3hHkOLkP6WQ-83" value="" style="line;strokeWidth=1;fillColor=none;align=left;verticalAlign=middle;spacingTop=-1;spacingLeft=3;spacingRight=3;rotatable=0;labelPosition=right;points=[];portConstraint=eastwest;strokeColor=inherit;" vertex="1" parent="0QyFdaEDa3hHkOLkP6WQ-80">
          <mxGeometry y="100" width="150" height="8" as="geometry" />
        </mxCell>
        <mxCell id="0QyFdaEDa3hHkOLkP6WQ-84" value="&lt;div style=&quot;border-color: var(--border-color); text-align: center;&quot;&gt;&amp;nbsp; &amp;nbsp; &amp;nbsp; &amp;nbsp; &amp;lt;&amp;lt;@inputs&amp;gt;&amp;gt;&lt;/div&gt;&lt;div style=&quot;border-color: var(--border-color);&quot;&gt;pylon_heigth&lt;/div&gt;" style="text;strokeColor=none;fillColor=none;align=left;verticalAlign=top;spacingLeft=4;spacingRight=4;overflow=hidden;rotatable=0;points=[[0,0.5],[1,0.5]];portConstraint=eastwest;whiteSpace=wrap;html=1;collapsible=1;marginBottom=0" vertex="1" collapsed="1" parent="0QyFdaEDa3hHkOLkP6WQ-80">
          <mxGeometry y="108" width="150" height="42" as="geometry">
            <mxRectangle y="108" width="150" height="21" as="alternateBounds" />
          </mxGeometry>
        </mxCell>
        <mxCell id="0QyFdaEDa3hHkOLkP6WQ-85" value="" style="line;strokeWidth=1;fillColor=none;align=left;verticalAlign=middle;spacingTop=-1;spacingLeft=3;spacingRight=3;rotatable=0;labelPosition=right;points=[];portConstraint=eastwest;strokeColor=inherit;" vertex="1" parent="0QyFdaEDa3hHkOLkP6WQ-80">
          <mxGeometry y="150" width="150" height="8" as="geometry" />
        </mxCell>
        <mxCell id="0QyFdaEDa3hHkOLkP6WQ-86" value="&lt;div style=&quot;border-color: var(--border-color);&quot;&gt;&amp;nbsp; &amp;nbsp; &amp;nbsp; &amp;lt;&amp;lt;@attributes&amp;gt;&amp;gt;&lt;br&gt;profiles&lt;/div&gt;" style="text;strokeColor=none;fillColor=none;align=left;verticalAlign=top;spacingLeft=4;spacingRight=4;overflow=hidden;rotatable=0;points=[[0,0.5],[1,0.5]];portConstraint=eastwest;whiteSpace=wrap;html=1;collapsible=1;marginBottom=0" vertex="1" collapsed="1" parent="0QyFdaEDa3hHkOLkP6WQ-80">
          <mxGeometry y="158" width="150" height="67" as="geometry">
            <mxRectangle y="137" width="150" height="20" as="alternateBounds" />
          </mxGeometry>
        </mxCell>
        <mxCell id="0QyFdaEDa3hHkOLkP6WQ-96" value="ChannelSweep" style="swimlane;fontStyle=0;childLayout=stackLayout;horizontal=1;startSize=26;fillColor=none;horizontalStack=0;resizeParent=1;resizeParentMax=0;resizeLast=0;collapsible=1;marginBottom=0;whiteSpace=wrap;html=1;" vertex="1" parent="1">
          <mxGeometry x="-130" y="720" width="150" height="150" as="geometry">
            <mxRectangle x="60" y="112" width="90" height="30" as="alternateBounds" />
          </mxGeometry>
        </mxCell>
        <mxCell id="0QyFdaEDa3hHkOLkP6WQ-97" value="&lt;div style=&quot;text-align: center;&quot;&gt;&lt;span style=&quot;background-color: initial;&quot;&gt;&amp;nbsp; &amp;nbsp; &amp;nbsp; &amp;nbsp; &amp;nbsp;&amp;lt;&amp;lt;inputs&amp;gt;&amp;gt;&lt;/span&gt;&lt;/div&gt;span=Input(34)&lt;br&gt;sweep = Input(30)&lt;br&gt;..." style="text;strokeColor=none;fillColor=none;align=left;verticalAlign=top;spacingLeft=4;spacingRight=4;overflow=hidden;rotatable=0;points=[[0,0.5],[1,0.5]];portConstraint=eastwest;whiteSpace=wrap;html=1;collapsible=1;marginBottom=0;" vertex="1" parent="0QyFdaEDa3hHkOLkP6WQ-96">
          <mxGeometry y="26" width="150" height="20" as="geometry">
            <mxRectangle y="26" width="150" height="74" as="alternateBounds" />
          </mxGeometry>
        </mxCell>
        <mxCell id="0QyFdaEDa3hHkOLkP6WQ-98" value="" style="line;strokeWidth=1;fillColor=none;align=left;verticalAlign=middle;spacingTop=-1;spacingLeft=3;spacingRight=3;rotatable=0;labelPosition=right;points=[];portConstraint=eastwest;strokeColor=inherit;" vertex="1" parent="0QyFdaEDa3hHkOLkP6WQ-96">
          <mxGeometry y="46" width="150" as="geometry" />
        </mxCell>
        <mxCell id="0QyFdaEDa3hHkOLkP6WQ-99" value="" style="line;strokeWidth=1;fillColor=none;align=left;verticalAlign=middle;spacingTop=-1;spacingLeft=3;spacingRight=3;rotatable=0;labelPosition=right;points=[];portConstraint=eastwest;strokeColor=inherit;" vertex="1" parent="0QyFdaEDa3hHkOLkP6WQ-96">
          <mxGeometry y="46" width="150" height="8" as="geometry" />
        </mxCell>
        <mxCell id="0QyFdaEDa3hHkOLkP6WQ-100" value="&lt;div style=&quot;border-color: var(--border-color); text-align: center;&quot;&gt;&amp;nbsp; &amp;nbsp; &amp;nbsp; &amp;nbsp; &amp;lt;&amp;lt;@inputs&amp;gt;&amp;gt;&lt;/div&gt;Inp 1&lt;br style=&quot;border-color: var(--border-color);&quot;&gt;Inp 2&lt;br style=&quot;border-color: var(--border-color);&quot;&gt;..." style="text;strokeColor=none;fillColor=none;align=left;verticalAlign=top;spacingLeft=4;spacingRight=4;overflow=hidden;rotatable=0;points=[[0,0.5],[1,0.5]];portConstraint=eastwest;whiteSpace=wrap;html=1;collapsible=1;marginBottom=0" vertex="1" parent="0QyFdaEDa3hHkOLkP6WQ-96">
          <mxGeometry y="54" width="150" height="21" as="geometry">
            <mxRectangle y="54" width="150" height="70" as="alternateBounds" />
          </mxGeometry>
        </mxCell>
        <mxCell id="0QyFdaEDa3hHkOLkP6WQ-101" value="" style="line;strokeWidth=1;fillColor=none;align=left;verticalAlign=middle;spacingTop=-1;spacingLeft=3;spacingRight=3;rotatable=0;labelPosition=right;points=[];portConstraint=eastwest;strokeColor=inherit;" vertex="1" parent="0QyFdaEDa3hHkOLkP6WQ-96">
          <mxGeometry y="75" width="150" height="8" as="geometry" />
        </mxCell>
        <mxCell id="0QyFdaEDa3hHkOLkP6WQ-102" value="&lt;div style=&quot;border-color: var(--border-color);&quot;&gt;&amp;nbsp; &amp;nbsp; &amp;nbsp; &amp;lt;&amp;lt;@attributes&amp;gt;&amp;gt;&lt;br&gt;span&lt;br style=&quot;border-color: var(--border-color);&quot;&gt;&lt;span style=&quot;&quot;&gt;sweep&lt;/span&gt;&lt;br style=&quot;border-color: var(--border-color); text-align: left;&quot;&gt;&lt;span style=&quot;text-align: left;&quot;&gt;...&lt;/span&gt;&lt;/div&gt;" style="text;strokeColor=none;fillColor=none;align=left;verticalAlign=top;spacingLeft=4;spacingRight=4;overflow=hidden;rotatable=0;points=[[0,0.5],[1,0.5]];portConstraint=eastwest;whiteSpace=wrap;html=1;collapsible=1;marginBottom=0" vertex="1" collapsed="1" parent="0QyFdaEDa3hHkOLkP6WQ-96">
          <mxGeometry y="83" width="150" height="67" as="geometry">
            <mxRectangle y="137" width="150" height="20" as="alternateBounds" />
          </mxGeometry>
        </mxCell>
        <mxCell id="0QyFdaEDa3hHkOLkP6WQ-117" style="edgeStyle=orthogonalEdgeStyle;rounded=0;orthogonalLoop=1;jettySize=auto;html=1;exitX=0.5;exitY=0;exitDx=0;exitDy=0;endArrow=classic;endFill=0;endSize=14;" edge="1" parent="1" source="0QyFdaEDa3hHkOLkP6WQ-103">
          <mxGeometry relative="1" as="geometry">
            <mxPoint x="-730" y="860" as="targetPoint" />
          </mxGeometry>
        </mxCell>
        <mxCell id="0QyFdaEDa3hHkOLkP6WQ-103" value="Nacelle" style="swimlane;fontStyle=0;childLayout=stackLayout;horizontal=1;startSize=26;fillColor=none;horizontalStack=0;resizeParent=1;resizeParentMax=0;resizeLast=0;collapsible=1;marginBottom=0;whiteSpace=wrap;html=1;" vertex="1" parent="1">
          <mxGeometry x="-750" y="960" width="150" height="235" as="geometry">
            <mxRectangle x="60" y="112" width="90" height="30" as="alternateBounds" />
          </mxGeometry>
        </mxCell>
        <mxCell id="0QyFdaEDa3hHkOLkP6WQ-104" value="&lt;div style=&quot;text-align: center;&quot;&gt;&lt;span style=&quot;background-color: initial;&quot;&gt;&amp;lt;&amp;lt;inputs&amp;gt;&amp;gt;&lt;/span&gt;&lt;/div&gt;&lt;div style=&quot;&quot;&gt;&lt;span style=&quot;background-color: initial;&quot;&gt;length = Input(3.0)&lt;/span&gt;&lt;/div&gt;&lt;div style=&quot;&quot;&gt;&lt;span style=&quot;background-color: initial;&quot;&gt;fan_diameter = Input(2.0)&lt;/span&gt;&lt;/div&gt;&lt;div style=&quot;&quot;&gt;&lt;span style=&quot;background-color: initial;&quot;&gt;thickness = Input(0.01)&lt;/span&gt;&lt;/div&gt;" style="text;strokeColor=none;fillColor=none;align=left;verticalAlign=top;spacingLeft=4;spacingRight=4;overflow=hidden;rotatable=0;points=[[0,0.5],[1,0.5]];portConstraint=eastwest;whiteSpace=wrap;html=1;collapsible=1;marginBottom=0;" vertex="1" collapsed="1" parent="0QyFdaEDa3hHkOLkP6WQ-103">
          <mxGeometry y="26" width="150" height="74" as="geometry">
            <mxRectangle y="26" width="150" height="20" as="alternateBounds" />
          </mxGeometry>
        </mxCell>
        <mxCell id="0QyFdaEDa3hHkOLkP6WQ-105" value="" style="line;strokeWidth=1;fillColor=none;align=left;verticalAlign=middle;spacingTop=-1;spacingLeft=3;spacingRight=3;rotatable=0;labelPosition=right;points=[];portConstraint=eastwest;strokeColor=inherit;" vertex="1" parent="0QyFdaEDa3hHkOLkP6WQ-103">
          <mxGeometry y="100" width="150" as="geometry" />
        </mxCell>
        <mxCell id="0QyFdaEDa3hHkOLkP6WQ-106" value="" style="line;strokeWidth=1;fillColor=none;align=left;verticalAlign=middle;spacingTop=-1;spacingLeft=3;spacingRight=3;rotatable=0;labelPosition=right;points=[];portConstraint=eastwest;strokeColor=inherit;" vertex="1" parent="0QyFdaEDa3hHkOLkP6WQ-103">
          <mxGeometry y="100" width="150" height="8" as="geometry" />
        </mxCell>
        <mxCell id="0QyFdaEDa3hHkOLkP6WQ-107" value="&lt;div style=&quot;border-color: var(--border-color); text-align: center;&quot;&gt;&amp;nbsp; &amp;nbsp; &amp;nbsp; &amp;nbsp; &amp;lt;&amp;lt;@inputs&amp;gt;&amp;gt;&lt;/div&gt;max_diameter&lt;div&gt;max_diameter_position&lt;/div&gt;" style="text;strokeColor=none;fillColor=none;align=left;verticalAlign=top;spacingLeft=4;spacingRight=4;overflow=hidden;rotatable=0;points=[[0,0.5],[1,0.5]];portConstraint=eastwest;whiteSpace=wrap;html=1;collapsible=1;marginBottom=0" vertex="1" collapsed="1" parent="0QyFdaEDa3hHkOLkP6WQ-103">
          <mxGeometry y="108" width="150" height="52" as="geometry">
            <mxRectangle y="108" width="150" height="21" as="alternateBounds" />
          </mxGeometry>
        </mxCell>
        <mxCell id="0QyFdaEDa3hHkOLkP6WQ-108" value="" style="line;strokeWidth=1;fillColor=none;align=left;verticalAlign=middle;spacingTop=-1;spacingLeft=3;spacingRight=3;rotatable=0;labelPosition=right;points=[];portConstraint=eastwest;strokeColor=inherit;" vertex="1" parent="0QyFdaEDa3hHkOLkP6WQ-103">
          <mxGeometry y="160" width="150" height="8" as="geometry" />
        </mxCell>
        <mxCell id="0QyFdaEDa3hHkOLkP6WQ-109" value="&lt;div style=&quot;border-color: var(--border-color);&quot;&gt;&amp;nbsp; &amp;nbsp; &amp;nbsp; &amp;lt;&amp;lt;@attributes&amp;gt;&amp;gt;&lt;br&gt;built_from&lt;/div&gt;&lt;div style=&quot;border-color: var(--border-color);&quot;&gt;offset&lt;/div&gt;" style="text;strokeColor=none;fillColor=none;align=left;verticalAlign=top;spacingLeft=4;spacingRight=4;overflow=hidden;rotatable=0;points=[[0,0.5],[1,0.5]];portConstraint=eastwest;whiteSpace=wrap;html=1;collapsible=1;marginBottom=0" vertex="1" collapsed="1" parent="0QyFdaEDa3hHkOLkP6WQ-103">
          <mxGeometry y="168" width="150" height="67" as="geometry">
            <mxRectangle y="137" width="150" height="20" as="alternateBounds" />
          </mxGeometry>
        </mxCell>
        <mxCell id="0QyFdaEDa3hHkOLkP6WQ-110" value="ThickShell" style="swimlane;fontStyle=0;childLayout=stackLayout;horizontal=1;startSize=26;fillColor=none;horizontalStack=0;resizeParent=1;resizeParentMax=0;resizeLast=0;collapsible=1;marginBottom=0;whiteSpace=wrap;html=1;" vertex="1" collapsed="1" parent="1">
          <mxGeometry x="-770" y="830" width="90" height="30" as="geometry">
            <mxRectangle x="1390" y="1000" width="160" height="157" as="alternateBounds" />
          </mxGeometry>
        </mxCell>
        <mxCell id="0QyFdaEDa3hHkOLkP6WQ-111" value="&lt;div style=&quot;text-align: center;&quot;&gt;&lt;span style=&quot;background-color: initial;&quot;&gt;&amp;nbsp; &amp;nbsp; &amp;nbsp; &amp;nbsp; &amp;nbsp;&amp;lt;&amp;lt;inputs&amp;gt;&amp;gt;&lt;/span&gt;&lt;/div&gt;&lt;br&gt;&lt;div&gt;&lt;br&gt;&lt;/div&gt;" style="text;strokeColor=none;fillColor=none;align=left;verticalAlign=top;spacingLeft=4;spacingRight=4;overflow=hidden;rotatable=0;points=[[0,0.5],[1,0.5]];portConstraint=eastwest;whiteSpace=wrap;html=1;collapsible=1;marginBottom=0;" vertex="1" collapsed="1" parent="0QyFdaEDa3hHkOLkP6WQ-110">
          <mxGeometry y="26" width="160" height="74" as="geometry">
            <mxRectangle y="26" width="150" height="20" as="alternateBounds" />
          </mxGeometry>
        </mxCell>
        <mxCell id="0QyFdaEDa3hHkOLkP6WQ-112" value="" style="line;strokeWidth=1;fillColor=none;align=left;verticalAlign=middle;spacingTop=-1;spacingLeft=3;spacingRight=3;rotatable=0;labelPosition=right;points=[];portConstraint=eastwest;strokeColor=inherit;" vertex="1" parent="0QyFdaEDa3hHkOLkP6WQ-110">
          <mxGeometry y="100" width="160" as="geometry" />
        </mxCell>
        <mxCell id="0QyFdaEDa3hHkOLkP6WQ-113" value="" style="line;strokeWidth=1;fillColor=none;align=left;verticalAlign=middle;spacingTop=-1;spacingLeft=3;spacingRight=3;rotatable=0;labelPosition=right;points=[];portConstraint=eastwest;strokeColor=inherit;" vertex="1" parent="0QyFdaEDa3hHkOLkP6WQ-110">
          <mxGeometry y="100" width="160" height="8" as="geometry" />
        </mxCell>
        <mxCell id="0QyFdaEDa3hHkOLkP6WQ-114" value="&lt;div style=&quot;border-color: var(--border-color); text-align: center;&quot;&gt;&amp;nbsp; &amp;nbsp; &amp;nbsp; &amp;nbsp; &amp;lt;&amp;lt;@inputs&amp;gt;&amp;gt;&lt;/div&gt;Inp 1&lt;br style=&quot;border-color: var(--border-color);&quot;&gt;Inp 2&lt;br style=&quot;border-color: var(--border-color);&quot;&gt;..." style="text;strokeColor=none;fillColor=none;align=left;verticalAlign=top;spacingLeft=4;spacingRight=4;overflow=hidden;rotatable=0;points=[[0,0.5],[1,0.5]];portConstraint=eastwest;whiteSpace=wrap;html=1;collapsible=1;marginBottom=0" vertex="1" parent="0QyFdaEDa3hHkOLkP6WQ-110">
          <mxGeometry y="108" width="160" height="21" as="geometry">
            <mxRectangle y="54" width="150" height="70" as="alternateBounds" />
          </mxGeometry>
        </mxCell>
        <mxCell id="0QyFdaEDa3hHkOLkP6WQ-115" value="" style="line;strokeWidth=1;fillColor=none;align=left;verticalAlign=middle;spacingTop=-1;spacingLeft=3;spacingRight=3;rotatable=0;labelPosition=right;points=[];portConstraint=eastwest;strokeColor=inherit;" vertex="1" parent="0QyFdaEDa3hHkOLkP6WQ-110">
          <mxGeometry y="129" width="160" height="8" as="geometry" />
        </mxCell>
        <mxCell id="0QyFdaEDa3hHkOLkP6WQ-116" value="&lt;div style=&quot;border-color: var(--border-color); text-align: center;&quot;&gt;&amp;nbsp; &amp;nbsp; &amp;nbsp; &amp;lt;&amp;lt;@attributes&amp;gt;&amp;gt;&lt;/div&gt;" style="text;strokeColor=none;fillColor=none;align=left;verticalAlign=top;spacingLeft=4;spacingRight=4;overflow=hidden;rotatable=0;points=[[0,0.5],[1,0.5]];portConstraint=eastwest;whiteSpace=wrap;html=1;collapsible=1;marginBottom=0" vertex="1" parent="0QyFdaEDa3hHkOLkP6WQ-110">
          <mxGeometry y="137" width="160" height="20" as="geometry">
            <mxRectangle y="137" width="210" height="67" as="alternateBounds" />
          </mxGeometry>
        </mxCell>
        <mxCell id="0QyFdaEDa3hHkOLkP6WQ-118" style="edgeStyle=orthogonalEdgeStyle;rounded=0;orthogonalLoop=1;jettySize=auto;html=1;entryX=0.5;entryY=1;entryDx=0;entryDy=0;entryPerimeter=0;endArrow=diamondThin;endFill=0;endSize=14;" edge="1" parent="1" source="0QyFdaEDa3hHkOLkP6WQ-103" target="0QyFdaEDa3hHkOLkP6WQ-72">
          <mxGeometry relative="1" as="geometry" />
        </mxCell>
        <mxCell id="0QyFdaEDa3hHkOLkP6WQ-119" value="nacelle" style="edgeLabel;html=1;align=center;verticalAlign=middle;resizable=0;points=[];" vertex="1" connectable="0" parent="0QyFdaEDa3hHkOLkP6WQ-118">
          <mxGeometry x="0.1321" relative="1" as="geometry">
            <mxPoint x="-60" y="-9" as="offset" />
          </mxGeometry>
        </mxCell>
        <mxCell id="0QyFdaEDa3hHkOLkP6WQ-127" style="edgeStyle=orthogonalEdgeStyle;rounded=0;orthogonalLoop=1;jettySize=auto;html=1;entryX=0.633;entryY=1;entryDx=0;entryDy=0;entryPerimeter=0;endArrow=diamondThin;endFill=0;endSize=14;" edge="1" parent="1" source="0QyFdaEDa3hHkOLkP6WQ-120" target="0QyFdaEDa3hHkOLkP6WQ-72">
          <mxGeometry relative="1" as="geometry">
            <mxPoint x="-475" y="880" as="targetPoint" />
          </mxGeometry>
        </mxCell>
        <mxCell id="0QyFdaEDa3hHkOLkP6WQ-120" value="EngineShaft" style="swimlane;fontStyle=0;childLayout=stackLayout;horizontal=1;startSize=26;fillColor=none;horizontalStack=0;resizeParent=1;resizeParentMax=0;resizeLast=0;collapsible=1;marginBottom=0;whiteSpace=wrap;html=1;" vertex="1" parent="1">
          <mxGeometry x="-550" y="960" width="300" height="240" as="geometry">
            <mxRectangle x="60" y="112" width="90" height="30" as="alternateBounds" />
          </mxGeometry>
        </mxCell>
        <mxCell id="0QyFdaEDa3hHkOLkP6WQ-121" value="&lt;div style=&quot;text-align: center;&quot;&gt;&lt;span style=&quot;background-color: initial;&quot;&gt;&amp;lt;&amp;lt;inputs&amp;gt;&amp;gt;&lt;/span&gt;&lt;/div&gt;&lt;div style=&quot;&quot;&gt;&lt;span style=&quot;background-color: initial;&quot;&gt;n_stages = Input(5)&lt;/span&gt;&lt;/div&gt;&lt;div style=&quot;&quot;&gt;&lt;span style=&quot;background-color: initial;&quot;&gt;shaft_length = Input(3.0)&lt;/span&gt;&lt;/div&gt;&lt;div style=&quot;&quot;&gt;&lt;div&gt;stages_outer_diameter = Input([2.0, 0.8, 0.6, 1.0, 1.2])&lt;/div&gt;&lt;div&gt;stages_hub_diameter = Input([0.5, 0.6, 0.4, 0.5, 0.5])&lt;/div&gt;&lt;div&gt;stages_start_point = Input([0, 0.2, 0.4, 0.7, 0.8])&lt;/div&gt;&lt;div&gt;rotors_per_stage = Input([1, 3, 7, 2, 7])&lt;/div&gt;&lt;div&gt;blades_per_rotor = Input([18, 100, 100, 100, 100])&lt;/div&gt;&lt;/div&gt;" style="text;strokeColor=none;fillColor=none;align=left;verticalAlign=top;spacingLeft=4;spacingRight=4;overflow=hidden;rotatable=0;points=[[0,0.5],[1,0.5]];portConstraint=eastwest;whiteSpace=wrap;html=1;collapsible=1;marginBottom=0;" vertex="1" collapsed="1" parent="0QyFdaEDa3hHkOLkP6WQ-120">
          <mxGeometry y="26" width="300" height="134" as="geometry">
            <mxRectangle y="26" width="150" height="20" as="alternateBounds" />
          </mxGeometry>
        </mxCell>
        <mxCell id="0QyFdaEDa3hHkOLkP6WQ-122" value="" style="line;strokeWidth=1;fillColor=none;align=left;verticalAlign=middle;spacingTop=-1;spacingLeft=3;spacingRight=3;rotatable=0;labelPosition=right;points=[];portConstraint=eastwest;strokeColor=inherit;" vertex="1" parent="0QyFdaEDa3hHkOLkP6WQ-120">
          <mxGeometry y="160" width="300" as="geometry" />
        </mxCell>
        <mxCell id="0QyFdaEDa3hHkOLkP6WQ-123" value="" style="line;strokeWidth=1;fillColor=none;align=left;verticalAlign=middle;spacingTop=-1;spacingLeft=3;spacingRight=3;rotatable=0;labelPosition=right;points=[];portConstraint=eastwest;strokeColor=inherit;" vertex="1" parent="0QyFdaEDa3hHkOLkP6WQ-120">
          <mxGeometry y="160" width="300" height="8" as="geometry" />
        </mxCell>
        <mxCell id="0QyFdaEDa3hHkOLkP6WQ-124" value="&lt;div style=&quot;border-color: var(--border-color); text-align: center;&quot;&gt;&amp;nbsp; &amp;nbsp; &amp;nbsp; &amp;nbsp; &amp;lt;&amp;lt;@inputs&amp;gt;&amp;gt;&lt;/div&gt;" style="text;strokeColor=none;fillColor=none;align=left;verticalAlign=top;spacingLeft=4;spacingRight=4;overflow=hidden;rotatable=0;points=[[0,0.5],[1,0.5]];portConstraint=eastwest;whiteSpace=wrap;html=1;collapsible=1;marginBottom=0" vertex="1" parent="0QyFdaEDa3hHkOLkP6WQ-120">
          <mxGeometry y="168" width="300" height="21" as="geometry">
            <mxRectangle y="168" width="340" height="52" as="alternateBounds" />
          </mxGeometry>
        </mxCell>
        <mxCell id="0QyFdaEDa3hHkOLkP6WQ-125" value="" style="line;strokeWidth=1;fillColor=none;align=left;verticalAlign=middle;spacingTop=-1;spacingLeft=3;spacingRight=3;rotatable=0;labelPosition=right;points=[];portConstraint=eastwest;strokeColor=inherit;" vertex="1" parent="0QyFdaEDa3hHkOLkP6WQ-120">
          <mxGeometry y="189" width="300" height="8" as="geometry" />
        </mxCell>
        <mxCell id="0QyFdaEDa3hHkOLkP6WQ-126" value="&lt;div style=&quot;border-color: var(--border-color);&quot;&gt;&amp;nbsp; &amp;nbsp; &amp;nbsp; &amp;lt;&amp;lt;@attributes&amp;gt;&amp;gt;&lt;br&gt;stages_thickness&lt;/div&gt;" style="text;strokeColor=none;fillColor=none;align=left;verticalAlign=top;spacingLeft=4;spacingRight=4;overflow=hidden;rotatable=0;points=[[0,0.5],[1,0.5]];portConstraint=eastwest;whiteSpace=wrap;html=1;collapsible=1;marginBottom=0" vertex="1" collapsed="1" parent="0QyFdaEDa3hHkOLkP6WQ-120">
          <mxGeometry y="197" width="300" height="43" as="geometry">
            <mxRectangle y="137" width="150" height="20" as="alternateBounds" />
          </mxGeometry>
        </mxCell>
        <mxCell id="0QyFdaEDa3hHkOLkP6WQ-128" value="EngineStage" style="swimlane;fontStyle=0;childLayout=stackLayout;horizontal=1;startSize=26;fillColor=none;horizontalStack=0;resizeParent=1;resizeParentMax=0;resizeLast=0;collapsible=1;marginBottom=0;whiteSpace=wrap;html=1;" vertex="1" parent="1">
          <mxGeometry x="-490" y="1250" width="170" height="291" as="geometry">
            <mxRectangle x="60" y="112" width="90" height="30" as="alternateBounds" />
          </mxGeometry>
        </mxCell>
        <mxCell id="0QyFdaEDa3hHkOLkP6WQ-129" value="&lt;div style=&quot;text-align: center;&quot;&gt;&lt;span style=&quot;background-color: initial;&quot;&gt;&amp;lt;&amp;lt;inputs&amp;gt;&amp;gt;&lt;/span&gt;&lt;/div&gt;&lt;div style=&quot;&quot;&gt;&lt;span style=&quot;background-color: initial;&quot;&gt;&lt;div&gt;outerDiameter = Input(2.0)&lt;/div&gt;&lt;div&gt;hubDiameter = Input(0.5)&lt;/div&gt;&lt;div&gt;stageThickness = Input(0.2)&lt;/div&gt;&lt;div&gt;nRotors = Input(1)&lt;/div&gt;&lt;div&gt;nBladesPerRotor = Input(18)&lt;/div&gt;&lt;div&gt;&lt;br&gt;&lt;/div&gt;&lt;/span&gt;&lt;/div&gt;" style="text;strokeColor=none;fillColor=none;align=left;verticalAlign=top;spacingLeft=4;spacingRight=4;overflow=hidden;rotatable=0;points=[[0,0.5],[1,0.5]];portConstraint=eastwest;whiteSpace=wrap;html=1;collapsible=1;marginBottom=0;" vertex="1" collapsed="1" parent="0QyFdaEDa3hHkOLkP6WQ-128">
          <mxGeometry y="26" width="170" height="114" as="geometry">
            <mxRectangle y="26" width="150" height="20" as="alternateBounds" />
          </mxGeometry>
        </mxCell>
        <mxCell id="0QyFdaEDa3hHkOLkP6WQ-130" value="" style="line;strokeWidth=1;fillColor=none;align=left;verticalAlign=middle;spacingTop=-1;spacingLeft=3;spacingRight=3;rotatable=0;labelPosition=right;points=[];portConstraint=eastwest;strokeColor=inherit;" vertex="1" parent="0QyFdaEDa3hHkOLkP6WQ-128">
          <mxGeometry y="140" width="170" as="geometry" />
        </mxCell>
        <mxCell id="0QyFdaEDa3hHkOLkP6WQ-131" value="" style="line;strokeWidth=1;fillColor=none;align=left;verticalAlign=middle;spacingTop=-1;spacingLeft=3;spacingRight=3;rotatable=0;labelPosition=right;points=[];portConstraint=eastwest;strokeColor=inherit;" vertex="1" parent="0QyFdaEDa3hHkOLkP6WQ-128">
          <mxGeometry y="140" width="170" height="8" as="geometry" />
        </mxCell>
        <mxCell id="0QyFdaEDa3hHkOLkP6WQ-132" value="&lt;div style=&quot;border-color: var(--border-color); text-align: center;&quot;&gt;&amp;nbsp; &amp;nbsp; &amp;nbsp; &amp;nbsp; &amp;lt;&amp;lt;@inputs&amp;gt;&amp;gt;&lt;/div&gt;&lt;div style=&quot;border-color: var(--border-color);&quot;&gt;rotorIndex = Input(0)&lt;br&gt;&lt;/div&gt;" style="text;strokeColor=none;fillColor=none;align=left;verticalAlign=top;spacingLeft=4;spacingRight=4;overflow=hidden;rotatable=0;points=[[0,0.5],[1,0.5]];portConstraint=eastwest;whiteSpace=wrap;html=1;collapsible=1;marginBottom=0" vertex="1" collapsed="1" parent="0QyFdaEDa3hHkOLkP6WQ-128">
          <mxGeometry y="148" width="170" height="52" as="geometry">
            <mxRectangle y="148" width="170" height="21" as="alternateBounds" />
          </mxGeometry>
        </mxCell>
        <mxCell id="0QyFdaEDa3hHkOLkP6WQ-133" value="" style="line;strokeWidth=1;fillColor=none;align=left;verticalAlign=middle;spacingTop=-1;spacingLeft=3;spacingRight=3;rotatable=0;labelPosition=right;points=[];portConstraint=eastwest;strokeColor=inherit;" vertex="1" parent="0QyFdaEDa3hHkOLkP6WQ-128">
          <mxGeometry y="200" width="170" height="8" as="geometry" />
        </mxCell>
        <mxCell id="0QyFdaEDa3hHkOLkP6WQ-134" value="&lt;div style=&quot;border-color: var(--border-color);&quot;&gt;&amp;nbsp; &amp;nbsp; &amp;nbsp; &amp;lt;&amp;lt;@attributes&amp;gt;&amp;gt;&lt;br&gt;rotor_thickness&lt;/div&gt;&lt;div style=&quot;border-color: var(--border-color);&quot;&gt;blade_span&lt;/div&gt;&lt;div style=&quot;border-color: var(--border-color);&quot;&gt;off_axis_translation&lt;/div&gt;&lt;div style=&quot;border-color: var(--border-color);&quot;&gt;risk_volume_size&lt;/div&gt;" style="text;strokeColor=none;fillColor=none;align=left;verticalAlign=top;spacingLeft=4;spacingRight=4;overflow=hidden;rotatable=0;points=[[0,0.5],[1,0.5]];portConstraint=eastwest;whiteSpace=wrap;html=1;collapsible=1;marginBottom=0" vertex="1" collapsed="1" parent="0QyFdaEDa3hHkOLkP6WQ-128">
          <mxGeometry y="208" width="170" height="83" as="geometry">
            <mxRectangle y="137" width="150" height="20" as="alternateBounds" />
          </mxGeometry>
        </mxCell>
        <mxCell id="0QyFdaEDa3hHkOLkP6WQ-135" style="edgeStyle=orthogonalEdgeStyle;rounded=0;orthogonalLoop=1;jettySize=auto;html=1;entryX=0.483;entryY=1;entryDx=0;entryDy=0;entryPerimeter=0;endArrow=classic;endFill=0;endSize=14;" edge="1" parent="1" source="0QyFdaEDa3hHkOLkP6WQ-128" target="0QyFdaEDa3hHkOLkP6WQ-126">
          <mxGeometry relative="1" as="geometry" />
        </mxCell>
        <mxCell id="0QyFdaEDa3hHkOLkP6WQ-136" style="edgeStyle=orthogonalEdgeStyle;rounded=0;orthogonalLoop=1;jettySize=auto;html=1;entryX=0;entryY=0.5;entryDx=0;entryDy=0;" edge="1" parent="1" source="0QyFdaEDa3hHkOLkP6WQ-67" target="0QyFdaEDa3hHkOLkP6WQ-81">
          <mxGeometry relative="1" as="geometry" />
        </mxCell>
        <mxCell id="0QyFdaEDa3hHkOLkP6WQ-144" style="edgeStyle=orthogonalEdgeStyle;rounded=0;orthogonalLoop=1;jettySize=auto;html=1;entryX=1;entryY=0;entryDx=0;entryDy=0;endArrow=diamondThin;endFill=1;exitX=0.5;exitY=0;exitDx=0;exitDy=0;" edge="1" parent="1" source="0QyFdaEDa3hHkOLkP6WQ-137" target="m6qyqwOE9hwV-ypQYCnm-8">
          <mxGeometry relative="1" as="geometry">
            <Array as="points">
              <mxPoint x="245" y="590" />
              <mxPoint x="450" y="590" />
              <mxPoint x="450" y="90" />
              <mxPoint x="200" y="90" />
            </Array>
          </mxGeometry>
        </mxCell>
        <mxCell id="0QyFdaEDa3hHkOLkP6WQ-137" value="RiskVolumeAnalysis" style="swimlane;fontStyle=0;childLayout=stackLayout;horizontal=1;startSize=26;fillColor=none;horizontalStack=0;resizeParent=1;resizeParentMax=0;resizeLast=0;collapsible=1;marginBottom=0;whiteSpace=wrap;html=1;" vertex="1" parent="1">
          <mxGeometry x="170" y="720" width="190" height="304" as="geometry">
            <mxRectangle x="60" y="112" width="90" height="30" as="alternateBounds" />
          </mxGeometry>
        </mxCell>
        <mxCell id="0QyFdaEDa3hHkOLkP6WQ-138" value="&lt;div style=&quot;text-align: center;&quot;&gt;&lt;span style=&quot;background-color: initial;&quot;&gt;&amp;nbsp; &amp;nbsp; &amp;nbsp; &amp;nbsp; &amp;nbsp;&amp;lt;&amp;lt;inputs&amp;gt;&amp;gt;&lt;/span&gt;&lt;/div&gt;&lt;div style=&quot;&quot;&gt;&lt;span style=&quot;background-color: initial;&quot;&gt;configuration = Input()&lt;/span&gt;&lt;/div&gt;&lt;div style=&quot;&quot;&gt;&lt;span style=&quot;background-color: initial;&quot;&gt;channel_shapes = Input()&lt;/span&gt;&lt;/div&gt;&lt;div style=&quot;&quot;&gt;&lt;span style=&quot;background-color: initial;&quot;&gt;release_angle = Input(0.0)&lt;/span&gt;&lt;/div&gt;&lt;div style=&quot;&quot;&gt;&lt;span style=&quot;background-color: initial;&quot;&gt;granularity = Input(5)&lt;/span&gt;&lt;/div&gt;&lt;div style=&quot;&quot;&gt;&lt;span style=&quot;background-color: initial;&quot;&gt;start_evaluation = Input(0.&lt;/span&gt;&lt;span style=&quot;background-color: initial;&quot;&gt;)&lt;/span&gt;&lt;/div&gt;&lt;div style=&quot;&quot;&gt;&lt;span style=&quot;background-color: initial;&quot;&gt;end_evaluation = Input(90.)&lt;/span&gt;&lt;/div&gt;&lt;div style=&quot;&quot;&gt;&lt;span style=&quot;background-color: initial;&quot;&gt;rotation_direction = Input(0)&lt;/span&gt;&lt;/div&gt;&lt;div style=&quot;&quot;&gt;&lt;span style=&quot;background-color: initial;&quot;&gt;spread_angle = Input(5)&lt;/span&gt;&lt;/div&gt;&lt;div style=&quot;&quot;&gt;&lt;span style=&quot;background-color: initial;&quot;&gt;engine_index = Input(0)&lt;/span&gt;&lt;/div&gt;&lt;div style=&quot;&quot;&gt;&lt;span style=&quot;background-color: initial;&quot;&gt;engine_stage_index = Input(0)&lt;/span&gt;&lt;/div&gt;" style="text;strokeColor=none;fillColor=none;align=left;verticalAlign=top;spacingLeft=4;spacingRight=4;overflow=hidden;rotatable=0;points=[[0,0.5],[1,0.5]];portConstraint=eastwest;whiteSpace=wrap;html=1;collapsible=1;marginBottom=0;" vertex="1" collapsed="1" parent="0QyFdaEDa3hHkOLkP6WQ-137">
          <mxGeometry y="26" width="190" height="174" as="geometry">
            <mxRectangle y="26" width="150" height="20" as="alternateBounds" />
          </mxGeometry>
        </mxCell>
        <mxCell id="0QyFdaEDa3hHkOLkP6WQ-139" value="" style="line;strokeWidth=1;fillColor=none;align=left;verticalAlign=middle;spacingTop=-1;spacingLeft=3;spacingRight=3;rotatable=0;labelPosition=right;points=[];portConstraint=eastwest;strokeColor=inherit;" vertex="1" parent="0QyFdaEDa3hHkOLkP6WQ-137">
          <mxGeometry y="200" width="190" as="geometry" />
        </mxCell>
        <mxCell id="0QyFdaEDa3hHkOLkP6WQ-140" value="" style="line;strokeWidth=1;fillColor=none;align=left;verticalAlign=middle;spacingTop=-1;spacingLeft=3;spacingRight=3;rotatable=0;labelPosition=right;points=[];portConstraint=eastwest;strokeColor=inherit;" vertex="1" parent="0QyFdaEDa3hHkOLkP6WQ-137">
          <mxGeometry y="200" width="190" height="8" as="geometry" />
        </mxCell>
        <mxCell id="0QyFdaEDa3hHkOLkP6WQ-141" value="&lt;div style=&quot;border-color: var(--border-color); text-align: center;&quot;&gt;&amp;nbsp; &amp;nbsp; &amp;nbsp; &amp;nbsp; &amp;lt;&amp;lt;@inputs&amp;gt;&amp;gt;&lt;/div&gt;Inp 1&lt;br style=&quot;border-color: var(--border-color);&quot;&gt;Inp 2&lt;br style=&quot;border-color: var(--border-color);&quot;&gt;..." style="text;strokeColor=none;fillColor=none;align=left;verticalAlign=top;spacingLeft=4;spacingRight=4;overflow=hidden;rotatable=0;points=[[0,0.5],[1,0.5]];portConstraint=eastwest;whiteSpace=wrap;html=1;collapsible=1;marginBottom=0" vertex="1" parent="0QyFdaEDa3hHkOLkP6WQ-137">
          <mxGeometry y="208" width="190" height="21" as="geometry">
            <mxRectangle y="54" width="150" height="70" as="alternateBounds" />
          </mxGeometry>
        </mxCell>
        <mxCell id="0QyFdaEDa3hHkOLkP6WQ-142" value="" style="line;strokeWidth=1;fillColor=none;align=left;verticalAlign=middle;spacingTop=-1;spacingLeft=3;spacingRight=3;rotatable=0;labelPosition=right;points=[];portConstraint=eastwest;strokeColor=inherit;" vertex="1" parent="0QyFdaEDa3hHkOLkP6WQ-137">
          <mxGeometry y="229" width="190" height="8" as="geometry" />
        </mxCell>
        <mxCell id="0QyFdaEDa3hHkOLkP6WQ-143" value="&lt;div style=&quot;border-color: var(--border-color);&quot;&gt;&amp;nbsp; &amp;nbsp; &amp;nbsp; &amp;lt;&amp;lt;@attributes&amp;gt;&amp;gt;&lt;br&gt;intersected_channels&lt;/div&gt;&lt;div style=&quot;border-color: var(--border-color);&quot;&gt;pra_overview&lt;/div&gt;" style="text;strokeColor=none;fillColor=none;align=left;verticalAlign=top;spacingLeft=4;spacingRight=4;overflow=hidden;rotatable=0;points=[[0,0.5],[1,0.5]];portConstraint=eastwest;whiteSpace=wrap;html=1;collapsible=1;marginBottom=0" vertex="1" collapsed="1" parent="0QyFdaEDa3hHkOLkP6WQ-137">
          <mxGeometry y="237" width="190" height="67" as="geometry">
            <mxRectangle y="137" width="150" height="20" as="alternateBounds" />
          </mxGeometry>
        </mxCell>
      </root>
    </mxGraphModel>
  </diagram>
</mxfile>
